<svg xmlns="http://www.w3.org/2000/svg" width="37.224" height="40.903" viewBox="0 0 37.224 40.903">
  <g id="Group_158" data-name="Group 158" transform="translate(-681.8 -437.8)">
    <g id="Group_116" data-name="Group 116" transform="translate(682 438)">
      <g id="Group_103" data-name="Group 103">
        <g id="Group_96" data-name="Group 96">
          <path id="Path_3" data-name="Path 3" d="M217.239,476.953V445.89h1.346v-2.142h1.433V441.3h1.062v-1.568h.826V438.2h.674s-.017-1.349,0-1.349h.792v1.3h.708v1.584h.792v1.585h1.011v2.613h1.13v1.939h1.669v31.081Z" transform="translate(-217.239 -436.853)" fill="none" stroke="#fff" stroke-miterlimit="10" stroke-width="0.4"/>
          <path id="Path_4" data-name="Path 4" d="M228.682,575.334l-11.443.056v-.809h11.443Z" transform="translate(-217.239 -537.825)" fill="none" stroke="#fff" stroke-miterlimit="10" stroke-width="0.4"/>
          <rect id="Rectangle_92" data-name="Rectangle 92" width="2.01" height="10.996" transform="translate(1.387 24.689)" fill="none" stroke="#fff" stroke-miterlimit="10" stroke-width="0.4"/>
          <line id="Line_6" data-name="Line 6" y2="10.996" transform="translate(2.392 24.689)" fill="none" stroke="#fff" stroke-miterlimit="10" stroke-width="0.4"/>
          <line id="Line_7" data-name="Line 7" x2="2.01" transform="translate(1.387 30.907)" fill="none" stroke="#fff" stroke-miterlimit="10" stroke-width="0.4"/>
          <line id="Line_8" data-name="Line 8" x2="2.01" transform="translate(1.387 27.036)" fill="none" stroke="#fff" stroke-miterlimit="10" stroke-width="0.4"/>
          <path id="Path_5" data-name="Path 5" d="M222.436,522.773l1.946.031a.928.928,0,1,0-1.817.032" transform="translate(-221.049 -499.06)" fill="none" stroke="#fff" stroke-miterlimit="10" stroke-width="0.4"/>
          <path id="Path_6" data-name="Path 6" d="M228.682,514.358l-11.443.056V513.6h11.443Z" transform="translate(-217.239 -493.122)" fill="none" stroke="#fff" stroke-miterlimit="10" stroke-width="0.4"/>
          <rect id="Rectangle_93" data-name="Rectangle 93" width="2.01" height="10.996" transform="translate(4.717 24.735)" fill="none" stroke="#fff" stroke-miterlimit="10" stroke-width="0.4"/>
          <line id="Line_9" data-name="Line 9" y2="10.996" transform="translate(5.722 24.735)" fill="none" stroke="#fff" stroke-miterlimit="10" stroke-width="0.4"/>
          <line id="Line_10" data-name="Line 10" x2="2.01" transform="translate(4.717 30.952)" fill="none" stroke="#fff" stroke-miterlimit="10" stroke-width="0.4"/>
          <line id="Line_11" data-name="Line 11" x2="2.01" transform="translate(4.717 27.082)" fill="none" stroke="#fff" stroke-miterlimit="10" stroke-width="0.4"/>
          <rect id="Rectangle_94" data-name="Rectangle 94" width="2.01" height="10.996" transform="translate(7.953 24.735)" fill="none" stroke="#fff" stroke-miterlimit="10" stroke-width="0.4"/>
          <line id="Line_12" data-name="Line 12" y2="10.996" transform="translate(8.958 24.735)" fill="none" stroke="#fff" stroke-miterlimit="10" stroke-width="0.4"/>
          <line id="Line_13" data-name="Line 13" x2="2.01" transform="translate(7.953 30.952)" fill="none" stroke="#fff" stroke-miterlimit="10" stroke-width="0.4"/>
          <line id="Line_14" data-name="Line 14" x2="2.01" transform="translate(7.953 27.082)" fill="none" stroke="#fff" stroke-miterlimit="10" stroke-width="0.4"/>
          <path id="Path_7" data-name="Path 7" d="M247.041,522.869l1.946.031a.928.928,0,1,0-1.817.032" transform="translate(-239.088 -499.129)" fill="none" stroke="#fff" stroke-miterlimit="10" stroke-width="0.4"/>
          <path id="Path_8" data-name="Path 8" d="M234.739,522.773l1.946.031a.928.928,0,1,0-1.817.032" transform="translate(-230.069 -499.06)" fill="none" stroke="#fff" stroke-miterlimit="10" stroke-width="0.4"/>
          <g id="Group_92" data-name="Group 92" transform="translate(1.387 11.7)">
            <path id="Path_9" data-name="Path 9" d="M222.436,492.247v-6.521h1.58v6.521Z" transform="translate(-222.436 -484.384)" fill="none" stroke="#fff" stroke-miterlimit="10" stroke-width="0.4"/>
            <line id="Line_15" data-name="Line 15" x2="1.58" transform="translate(0 2.81)" fill="none" stroke="#fff" stroke-miterlimit="10" stroke-width="0.4"/>
            <line id="Line_16" data-name="Line 16" y2="1.467" transform="translate(0.79 1.343)" fill="none" stroke="#fff" stroke-miterlimit="10" stroke-width="0.4"/>
            <path id="Path_10" data-name="Path 10" d="M222.436,481.483l1.433.022a.684.684,0,1,0-1.338.023" transform="translate(-222.436 -480.696)" fill="none" stroke="#fff" stroke-miterlimit="10" stroke-width="0.4"/>
          </g>
          <g id="Group_93" data-name="Group 93" transform="translate(4.855 3.751)">
            <path id="Path_11" data-name="Path 11" d="M235.43,459.162v-3.648h1.58v3.648Z" transform="translate(-235.43 -454.285)" fill="none" stroke="#fff" stroke-miterlimit="10" stroke-width="0.4"/>
            <line id="Line_17" data-name="Line 17" x2="1.58" transform="translate(0 2.05)" fill="none" stroke="#fff" stroke-miterlimit="10" stroke-width="0.4"/>
            <line id="Line_18" data-name="Line 18" y2="0.821" transform="translate(0.79 1.229)" fill="none" stroke="#fff" stroke-miterlimit="10" stroke-width="0.4"/>
            <path id="Path_12" data-name="Path 12" d="M235.43,451.8l1.433.026a.823.823,0,0,0-.606-.916.809.809,0,0,0-.732.942" transform="translate(-235.43 -450.909)" fill="none" stroke="#fff" stroke-miterlimit="10" stroke-width="0.4"/>
            <path id="Path_13" data-name="Path 13" d="M235.43,462.839h1.707" transform="translate(-235.43 -459.655)" fill="none" stroke="#fff" stroke-miterlimit="10" stroke-width="0.4"/>
          </g>
          <g id="Group_94" data-name="Group 94" transform="translate(8.168 11.7)">
            <path id="Path_14" data-name="Path 14" d="M247.845,492.247v-6.521h1.58v6.521Z" transform="translate(-247.845 -484.384)" fill="none" stroke="#fff" stroke-miterlimit="10" stroke-width="0.4"/>
            <line id="Line_19" data-name="Line 19" x2="1.58" transform="translate(0 2.81)" fill="none" stroke="#fff" stroke-miterlimit="10" stroke-width="0.4"/>
            <line id="Line_20" data-name="Line 20" y2="1.467" transform="translate(0.79 1.343)" fill="none" stroke="#fff" stroke-miterlimit="10" stroke-width="0.4"/>
            <path id="Path_15" data-name="Path 15" d="M247.845,481.483l1.434.022a.684.684,0,1,0-1.339.023" transform="translate(-247.845 -480.696)" fill="none" stroke="#fff" stroke-miterlimit="10" stroke-width="0.4"/>
          </g>
          <path id="Path_16" data-name="Path 16" d="M228.682,471.844l-11.443.056v-.809h11.443Z" transform="translate(-217.239 -461.954)" fill="none" stroke="#fff" stroke-miterlimit="10" stroke-width="0.4"/>
          <g id="Group_95" data-name="Group 95" transform="translate(4.932 11.7)">
            <path id="Path_17" data-name="Path 17" d="M235.718,492.247v-6.521h1.58v6.521Z" transform="translate(-235.718 -484.384)" fill="none" stroke="#fff" stroke-miterlimit="10" stroke-width="0.4"/>
            <line id="Line_21" data-name="Line 21" x2="1.58" transform="translate(0 2.81)" fill="none" stroke="#fff" stroke-miterlimit="10" stroke-width="0.4"/>
            <line id="Line_22" data-name="Line 22" y2="1.467" transform="translate(0.79 1.343)" fill="none" stroke="#fff" stroke-miterlimit="10" stroke-width="0.4"/>
            <path id="Path_18" data-name="Path 18" d="M235.718,481.483l1.433.022a.684.684,0,1,0-1.338.023" transform="translate(-235.718 -480.696)" fill="none" stroke="#fff" stroke-miterlimit="10" stroke-width="0.4"/>
          </g>
        </g>
        <path id="Path_19" data-name="Path 19" d="M260.118,453.292c.316-.725.6-.877.792-.888.459-.026.658.724,1.341.869a1.588,1.588,0,0,0,1.1-.265c2.027-1.11,2.921-4.955,1.947-6.072a.738.738,0,0,1-.207-.373c-.11-.639.841-1.488,1.78-1.735,1.439-.379,3.116.589,3.147,1.333.008.193-.1.241-.213.64a3.417,3.417,0,0,0-.053,1.44c.315,2.4.529,4.031,1.814,4.8a3.338,3.338,0,0,0,2.4.32c-.046.843-.06,1.242-.05,1.295h0a.232.232,0,0,1,0,.092c-.011.043-1.558-.01-2.667-.053l-.053-.693a9.16,9.16,0,0,1-1.974-7.041.781.781,0,0,0,.033-.308,1.324,1.324,0,0,0-.583-.892,1.647,1.647,0,0,0-.853-.3,1.693,1.693,0,0,0-1.7.994,1.267,1.267,0,0,0,.066.773,6.131,6.131,0,0,1-1.369,5.235,5.254,5.254,0,0,1-1.833,1.347l.088.972-2.944-.066Z" transform="translate(-248.675 -442.638)" fill="none" stroke="#fff" stroke-miterlimit="10" stroke-width="0.4"/>
        <path id="Path_20" data-name="Path 20" d="M266.242,491.224h1.938v3.937h-1.938v-3.937Z" transform="translate(-253.165 -476.714)" fill="none" stroke="#fff" stroke-miterlimit="10" stroke-width="0.4"/>
        <path id="Path_21" data-name="Path 21" d="M268.18,496.127h-1.938v1.389h1.938" transform="translate(-253.165 -480.308)" fill="none" stroke="#fff" stroke-miterlimit="10" stroke-width="0.4"/>
        <line id="Line_23" data-name="Line 23" y2="3.937" transform="translate(14.047 14.51)" fill="none" stroke="#fff" stroke-miterlimit="10" stroke-width="0.4"/>
        <path id="Path_22" data-name="Path 22" d="M281.126,490.567h1.938V494.5h-1.938v-3.937Z" transform="translate(-264.077 -476.232)" fill="none" stroke="#fff" stroke-miterlimit="10" stroke-width="0.4"/>
        <path id="Path_23" data-name="Path 23" d="M283.065,495.47h-1.938v1.389h1.938" transform="translate(-264.077 -479.827)" fill="none" stroke="#fff" stroke-miterlimit="10" stroke-width="0.4"/>
        <line id="Line_24" data-name="Line 24" y2="3.937" transform="translate(18.019 14.335)" fill="none" stroke="#fff" stroke-miterlimit="10" stroke-width="0.4"/>
        <g id="Group_97" data-name="Group 97" transform="translate(21.269 14.335)">
          <path id="Path_24" data-name="Path 24" d="M296.934,490.567h1.938V494.5h-1.938v-3.937Z" transform="translate(-296.934 -490.567)" fill="none" stroke="#fff" stroke-miterlimit="10" stroke-width="0.4"/>
          <path id="Path_25" data-name="Path 25" d="M298.873,495.47h-1.938v1.389h1.938" transform="translate(-296.934 -494.162)" fill="none" stroke="#fff" stroke-miterlimit="10" stroke-width="0.4"/>
          <line id="Line_25" data-name="Line 25" y2="3.937" transform="translate(0.969)" fill="none" stroke="#fff" stroke-miterlimit="10" stroke-width="0.4"/>
        </g>
        <g id="Group_102" data-name="Group 102" transform="translate(13.02 20.676)">
          <path id="Path_26" data-name="Path 26" d="M296.934,514.328h2.36V520.2h-2.36v-5.868Z" transform="translate(-288.686 -514.328)" fill="none" stroke="#fff" stroke-miterlimit="10" stroke-width="0.4"/>
          <path id="Path_27" data-name="Path 27" d="M299.294,521.442h-2.36v1.475h2.36" transform="translate(-288.686 -519.544)" fill="none" stroke="#fff" stroke-miterlimit="10" stroke-width="0.4"/>
          <line id="Line_26" data-name="Line 26" y2="5.868" transform="translate(9.428)" fill="none" stroke="#fff" stroke-miterlimit="10" stroke-width="0.4"/>
          <line id="Line_27" data-name="Line 27" x2="2.475" transform="translate(8.249 4.662)" fill="none" stroke="#fff" stroke-miterlimit="10" stroke-width="0.4"/>
          <g id="Group_98" data-name="Group 98" transform="translate(4.03)">
            <path id="Path_28" data-name="Path 28" d="M281.126,514.328h2.36V520.2h-2.36v-5.868Z" transform="translate(-281.126 -514.328)" fill="none" stroke="#fff" stroke-miterlimit="10" stroke-width="0.4"/>
            <path id="Path_29" data-name="Path 29" d="M283.486,521.442h-2.36v1.475h2.36" transform="translate(-281.126 -519.544)" fill="none" stroke="#fff" stroke-miterlimit="10" stroke-width="0.4"/>
            <line id="Line_28" data-name="Line 28" y2="5.868" transform="translate(1.18)" fill="none" stroke="#fff" stroke-miterlimit="10" stroke-width="0.4"/>
            <line id="Line_29" data-name="Line 29" x2="2.475" transform="translate(0 4.662)" fill="none" stroke="#fff" stroke-miterlimit="10" stroke-width="0.4"/>
          </g>
          <g id="Group_99" data-name="Group 99" transform="translate(0.058)">
            <path id="Path_30" data-name="Path 30" d="M266.242,514.328h2.36V520.2h-2.36v-5.868Z" transform="translate(-266.242 -514.328)" fill="none" stroke="#fff" stroke-miterlimit="10" stroke-width="0.4"/>
            <path id="Path_31" data-name="Path 31" d="M268.6,521.442h-2.36v1.475h2.36" transform="translate(-266.242 -519.544)" fill="none" stroke="#fff" stroke-miterlimit="10" stroke-width="0.4"/>
            <line id="Line_30" data-name="Line 30" y2="5.868" transform="translate(1.18)" fill="none" stroke="#fff" stroke-miterlimit="10" stroke-width="0.4"/>
            <line id="Line_31" data-name="Line 31" x2="2.475" transform="translate(0 4.662)" fill="none" stroke="#fff" stroke-miterlimit="10" stroke-width="0.4"/>
          </g>
          <g id="Group_100" data-name="Group 100" transform="translate(0 8.672)">
            <path id="Path_32" data-name="Path 32" d="M266.026,546.823H268.8v7.008h-2.773v-7.008Z" transform="translate(-266.026 -546.823)" fill="none" stroke="#fff" stroke-miterlimit="10" stroke-width="0.4"/>
            <path id="Path_33" data-name="Path 33" d="M268.8,555.319h-2.773v1.761H268.8" transform="translate(-266.026 -553.052)" fill="none" stroke="#fff" stroke-miterlimit="10" stroke-width="0.4"/>
            <line id="Line_32" data-name="Line 32" y2="7.008" transform="translate(1.387)" fill="none" stroke="#fff" stroke-miterlimit="10" stroke-width="0.4"/>
            <line id="Line_33" data-name="Line 33" x2="2.909" transform="translate(0 5.568)" fill="none" stroke="#fff" stroke-miterlimit="10" stroke-width="0.4"/>
          </g>
          <g id="Group_101" data-name="Group 101" transform="translate(4.03 8.672)">
            <path id="Path_34" data-name="Path 34" d="M281.126,546.823h2.644v7.008h-2.644v-7.008Z" transform="translate(-281.126 -546.823)" fill="none" stroke="#fff" stroke-miterlimit="10" stroke-width="0.4"/>
            <path id="Path_35" data-name="Path 35" d="M283.77,555.319h-2.644v1.761h2.644" transform="translate(-281.126 -553.052)" fill="none" stroke="#fff" stroke-miterlimit="10" stroke-width="0.4"/>
            <line id="Line_34" data-name="Line 34" y2="7.008" transform="translate(1.322)" fill="none" stroke="#fff" stroke-miterlimit="10" stroke-width="0.4"/>
            <line id="Line_35" data-name="Line 35" x2="2.773" transform="translate(0 5.568)" fill="none" stroke="#fff" stroke-miterlimit="10" stroke-width="0.4"/>
          </g>
        </g>
        <rect id="Rectangle_95" data-name="Rectangle 95" width="2.309" height="3.216" transform="translate(17.586 9.318)" fill="none" stroke="#fff" stroke-miterlimit="10" stroke-width="0.4"/>
        <path id="Path_36" data-name="Path 36" d="M286.727,475.76h-1.18V473.7h1.18Z" transform="translate(-267.317 -463.866)" fill="none" stroke="#fff" stroke-miterlimit="10" stroke-width="0.4"/>
        <path id="Path_37" data-name="Path 37" d="M287.757,475.76V473.7" transform="translate(-268.938 -463.867)" fill="none" stroke="#fff" stroke-miterlimit="10" stroke-width="0.4"/>
        <path id="Path_38" data-name="Path 38" d="M273.911,481.892q.251,14.221.5,28.443h-14.3v-.363" transform="translate(-248.675 -469.872)" fill="none" stroke="#fff" stroke-miterlimit="10" stroke-width="0.4"/>
        <rect id="Rectangle_96" data-name="Rectangle 96" width="3.745" height="9.313" transform="translate(20.546 29.348)" fill="none" stroke="#fff" stroke-miterlimit="10" stroke-width="0.4"/>
        <rect id="Rectangle_97" data-name="Rectangle 97" width="2.846" height="2.284" transform="translate(21.07 29.899)" fill="none" stroke="#fff" stroke-miterlimit="10" stroke-width="0.4"/>
        <path id="Path_39" data-name="Path 39" d="M296.19,550.028l1.423-1.142,1.423,1.142-1.41,1.142Z" transform="translate(-275.12 -518.987)" fill="none" stroke="#fff" stroke-miterlimit="10" stroke-width="0.4"/>
        <line id="Line_36" data-name="Line 36" y2="6.478" transform="translate(21.07 32.183)" fill="none" stroke="#fff" stroke-miterlimit="10" stroke-width="0.4"/>
        <line id="Line_37" data-name="Line 37" y2="6.478" transform="translate(23.916 32.183)" fill="none" stroke="#fff" stroke-miterlimit="10" stroke-width="0.4"/>
        <line id="Line_38" data-name="Line 38" y1="2.289" transform="translate(16.502 38.174)" fill="none" stroke="#fff" stroke-miterlimit="10" stroke-width="0.4"/>
        <line id="Line_39" data-name="Line 39" x2="11.443" y2="0.363" transform="translate(0 40.1)" fill="none" stroke="#fff" stroke-miterlimit="10" stroke-width="0.4"/>
        <path id="Path_40" data-name="Path 40" d="M279.072,575.387l4.044-2.305h5.12" transform="translate(-262.57 -536.726)" fill="none" stroke="#fff" stroke-miterlimit="10" stroke-width="0.4"/>
        <path id="Path_41" data-name="Path 41" d="M287.272,583.521v-1.8h7.048" transform="translate(-268.582 -543.058)" fill="none" stroke="#fff" stroke-miterlimit="10" stroke-width="0.4"/>
        <line id="Line_40" data-name="Line 40" y2="2.305" transform="translate(22.214 36.356)" fill="none" stroke="#fff" stroke-miterlimit="10" stroke-width="0.4"/>
        <line id="Line_41" data-name="Line 41" y1="1.247" transform="translate(18.69 37.414)" fill="none" stroke="#fff" stroke-miterlimit="10" stroke-width="0.4"/>
        <line id="Line_42" data-name="Line 42" y1="2.504" transform="translate(17.734 37.959)" fill="none" stroke="#fff" stroke-miterlimit="10" stroke-width="0.4"/>
        <line id="Line_43" data-name="Line 43" y1="2.374" transform="translate(25.286 8.351)" fill="none" stroke="#fff" stroke-miterlimit="10" stroke-width="0.4"/>
      </g>
      <g id="Group_110" data-name="Group 110" transform="translate(25.286 2.169)">
        <path id="Path_42" data-name="Path 42" d="M311.987,451.163a1.974,1.974,0,0,0,1.076-.3,3.207,3.207,0,0,0,.862-1.138,5.07,5.07,0,0,1,1.314-1.426c.081-.06.035-.682.038-.817a3.469,3.469,0,0,1,.1-.991,2.344,2.344,0,0,1,2.461-1.5,2.766,2.766,0,0,1,2.016,1.718,2.388,2.388,0,0,1,.192,1.1,5.316,5.316,0,0,0,.063.931,1.374,1.374,0,0,0,1.145.784c.252.028.545.009.711.2.137.16.12.4.172.6a.871.871,0,0,0,.409.536,4.583,4.583,0,0,0,.53.2.693.693,0,0,1,.437.764v31.477H312.439" transform="translate(-311.987 -444.981)" fill="none" stroke="#fff" stroke-miterlimit="10" stroke-width="0.4"/>
        <path id="Path_43" data-name="Path 43" d="M311.987,460.462H315.3q-.006-1.935-.013-3.869" transform="translate(-311.987 -453.494)" fill="none" stroke="#fff" stroke-miterlimit="10" stroke-width="0.4"/>
        <path id="Path_44" data-name="Path 44" d="M333.146,455.264H329.2v-5.61h-4.078" transform="translate(-321.616 -448.407)" fill="none" stroke="#fff" stroke-miterlimit="10" stroke-width="0.4"/>
        <circle id="Ellipse_9" data-name="Ellipse 9" cx="0.402" cy="0.402" r="0.402" transform="translate(4.965 1.985)" fill="none" stroke="#fff" stroke-miterlimit="10" stroke-width="0.4"/>
        <circle id="Ellipse_10" data-name="Ellipse 10" cx="0.71" cy="0.71" r="0.71" transform="translate(1.097 8.906)" fill="none" stroke="#fff" stroke-miterlimit="10" stroke-width="0.4"/>
        <circle id="Ellipse_11" data-name="Ellipse 11" cx="0.705" cy="0.705" r="0.705" transform="translate(8.5 8.757)" fill="none" stroke="#fff" stroke-miterlimit="10" stroke-width="0.4"/>
        <path id="Path_45" data-name="Path 45" d="M329.1,458.45h1.627v1.975H329.1Z" transform="translate(-324.531 -454.856)" fill="none" stroke="#fff" stroke-miterlimit="10" stroke-width="0.4"/>
        <line id="Line_44" data-name="Line 44" y1="1.975" transform="translate(5.38 3.595)" fill="none" stroke="#fff" stroke-miterlimit="10" stroke-width="0.4"/>
        <rect id="Rectangle_98" data-name="Rectangle 98" width="3.86" height="4.194" transform="translate(3.505 8.757)" fill="none" stroke="#fff" stroke-miterlimit="10" stroke-width="0.4"/>
        <path id="Path_46" data-name="Path 46" d="M327.26,479.5v3.323H330.1V479.5H327.26Z" transform="translate(-323.184 -470.287)" fill="none" stroke="#fff" stroke-miterlimit="10" stroke-width="0.4"/>
        <path id="Path_47" data-name="Path 47" d="M330.59,482.822V479.5h.981v3.323" transform="translate(-325.625 -470.287)" fill="none" stroke="#fff" stroke-miterlimit="10" stroke-width="0.4"/>
        <line id="Line_45" data-name="Line 45" x2="2.839" transform="translate(4.076 11.608)" fill="none" stroke="#fff" stroke-miterlimit="10" stroke-width="0.4"/>
        <line id="Line_46" data-name="Line 46" x2="2.839" transform="translate(4.076 10.365)" fill="none" stroke="#fff" stroke-miterlimit="10" stroke-width="0.4"/>
        <g id="Group_104" data-name="Group 104" transform="translate(1.097 14.344)">
          <rect id="Rectangle_99" data-name="Rectangle 99" width="2.213" height="3.28" fill="none" stroke="#fff" stroke-miterlimit="10" stroke-width="0.4"/>
          <path id="Path_48" data-name="Path 48" d="M317.661,500.676v1.93h1.35v-1.93h-1.35Z" transform="translate(-317.244 -500.157)" fill="none" stroke="#fff" stroke-miterlimit="10" stroke-width="0.4"/>
          <line id="Line_47" data-name="Line 47" y1="1.93" transform="translate(1.107 0.519)" fill="none" stroke="#fff" stroke-miterlimit="10" stroke-width="0.4"/>
          <line id="Line_48" data-name="Line 48" x2="1.35" transform="translate(0.417 1.134)" fill="none" stroke="#fff" stroke-miterlimit="10" stroke-width="0.4"/>
          <line id="Line_49" data-name="Line 49" x2="1.35" transform="translate(0.417 1.759)" fill="none" stroke="#fff" stroke-miterlimit="10" stroke-width="0.4"/>
        </g>
        <g id="Group_105" data-name="Group 105" transform="translate(4.662 14.188)">
          <rect id="Rectangle_100" data-name="Rectangle 100" width="2.213" height="3.28" fill="none" stroke="#fff" stroke-miterlimit="10" stroke-width="0.4"/>
          <path id="Path_49" data-name="Path 49" d="M331.016,500.093v1.93h1.35v-1.93h-1.35Z" transform="translate(-330.599 -499.573)" fill="none" stroke="#fff" stroke-miterlimit="10" stroke-width="0.4"/>
          <line id="Line_50" data-name="Line 50" y1="1.93" transform="translate(1.107 0.519)" fill="none" stroke="#fff" stroke-miterlimit="10" stroke-width="0.4"/>
          <line id="Line_51" data-name="Line 51" x2="1.35" transform="translate(0.417 1.134)" fill="none" stroke="#fff" stroke-miterlimit="10" stroke-width="0.4"/>
          <line id="Line_52" data-name="Line 52" x2="1.35" transform="translate(0.417 1.759)" fill="none" stroke="#fff" stroke-miterlimit="10" stroke-width="0.4"/>
        </g>
        <g id="Group_106" data-name="Group 106" transform="translate(8.099 14.307)">
          <rect id="Rectangle_101" data-name="Rectangle 101" width="2.213" height="3.28" fill="none" stroke="#fff" stroke-miterlimit="10" stroke-width="0.4"/>
          <path id="Path_50" data-name="Path 50" d="M343.895,500.537v1.93h1.35v-1.93h-1.35Z" transform="translate(-343.478 -500.017)" fill="none" stroke="#fff" stroke-miterlimit="10" stroke-width="0.4"/>
          <line id="Line_53" data-name="Line 53" y1="1.93" transform="translate(1.107 0.519)" fill="none" stroke="#fff" stroke-miterlimit="10" stroke-width="0.4"/>
          <line id="Line_54" data-name="Line 54" x2="1.35" transform="translate(0.417 1.134)" fill="none" stroke="#fff" stroke-miterlimit="10" stroke-width="0.4"/>
          <line id="Line_55" data-name="Line 55" x2="1.35" transform="translate(0.417 1.759)" fill="none" stroke="#fff" stroke-miterlimit="10" stroke-width="0.4"/>
        </g>
        <rect id="Rectangle_102" data-name="Rectangle 102" width="2.031" height="4.451" transform="translate(1.28 18.718)" fill="none" stroke="#fff" stroke-miterlimit="10" stroke-width="0.4"/>
        <path id="Path_51" data-name="Path 51" d="M318.758,516.636h1.057v3.443h-1.057Z" transform="translate(-316.951 -497.513)" fill="none" stroke="#fff" stroke-miterlimit="10" stroke-width="0.4"/>
        <line id="Line_56" data-name="Line 56" y1="0.043" x2="1.057" transform="translate(1.807 20.162)" fill="none" stroke="#fff" stroke-miterlimit="10" stroke-width="0.4"/>
        <line id="Line_57" data-name="Line 57" x2="1.057" transform="translate(1.807 21.441)" fill="none" stroke="#fff" stroke-miterlimit="10" stroke-width="0.4"/>
        <rect id="Rectangle_103" data-name="Rectangle 103" width="2.031" height="4.451" transform="translate(5.126 18.619)" fill="none" stroke="#fff" stroke-miterlimit="10" stroke-width="0.4"/>
        <path id="Path_52" data-name="Path 52" d="M333.167,516.263h1.057v3.443h-1.057Z" transform="translate(-327.515 -497.24)" fill="none" stroke="#fff" stroke-miterlimit="10" stroke-width="0.4"/>
        <line id="Line_58" data-name="Line 58" y1="0.043" x2="1.057" transform="translate(5.652 20.062)" fill="none" stroke="#fff" stroke-miterlimit="10" stroke-width="0.4"/>
        <line id="Line_59" data-name="Line 59" x2="1.057" transform="translate(5.652 21.341)" fill="none" stroke="#fff" stroke-miterlimit="10" stroke-width="0.4"/>
        <rect id="Rectangle_104" data-name="Rectangle 104" width="2.031" height="4.451" transform="translate(8.19 18.519)" fill="none" stroke="#fff" stroke-miterlimit="10" stroke-width="0.4"/>
        <path id="Path_53" data-name="Path 53" d="M344.649,515.89h1.057v3.443h-1.057Z" transform="translate(-335.933 -496.966)" fill="none" stroke="#fff" stroke-miterlimit="10" stroke-width="0.4"/>
        <line id="Line_60" data-name="Line 60" y1="0.043" x2="1.057" transform="translate(8.717 19.962)" fill="none" stroke="#fff" stroke-miterlimit="10" stroke-width="0.4"/>
        <line id="Line_61" data-name="Line 61" x2="1.057" transform="translate(8.717 21.242)" fill="none" stroke="#fff" stroke-miterlimit="10" stroke-width="0.4"/>
        <g id="Group_109" data-name="Group 109" transform="translate(0.201 24.072)">
          <path id="Path_54" data-name="Path 54" d="M318.529,544.687v3.4h1.541v-3.4h-1.541Z" transform="translate(-316.985 -542.15)" fill="none" stroke="#fff" stroke-miterlimit="10" stroke-width="0.4"/>
          <line id="Line_62" data-name="Line 62" y1="3.405" transform="translate(2.332 2.537)" fill="none" stroke="#fff" stroke-miterlimit="10" stroke-width="0.4"/>
          <line id="Line_63" data-name="Line 63" x2="1.541" transform="translate(1.545 3.621)" fill="none" stroke="#fff" stroke-miterlimit="10" stroke-width="0.4"/>
          <line id="Line_64" data-name="Line 64" x2="1.541" transform="translate(1.545 4.723)" fill="none" stroke="#fff" stroke-miterlimit="10" stroke-width="0.4"/>
          <g id="Group_107" data-name="Group 107" transform="translate(4.46 2.537)">
            <path id="Path_55" data-name="Path 55" d="M329.454,544.687v3.4H331v-3.4h-1.541Z" transform="translate(-329.454 -544.687)" fill="none" stroke="#fff" stroke-miterlimit="10" stroke-width="0.4"/>
            <line id="Line_65" data-name="Line 65" y1="3.405" transform="translate(0.787)" fill="none" stroke="#fff" stroke-miterlimit="10" stroke-width="0.4"/>
            <line id="Line_66" data-name="Line 66" x2="1.541" transform="translate(0 1.084)" fill="none" stroke="#fff" stroke-miterlimit="10" stroke-width="0.4"/>
            <line id="Line_67" data-name="Line 67" x2="1.541" transform="translate(0 2.186)" fill="none" stroke="#fff" stroke-miterlimit="10" stroke-width="0.4"/>
          </g>
          <g id="Group_108" data-name="Group 108" transform="translate(7.127 2.23)">
            <path id="Path_56" data-name="Path 56" d="M339.445,543.538v3.4h1.541v-3.4h-1.541Z" transform="translate(-339.445 -543.538)" fill="none" stroke="#fff" stroke-miterlimit="10" stroke-width="0.4"/>
            <line id="Line_68" data-name="Line 68" y1="3.405" transform="translate(0.787)" fill="none" stroke="#fff" stroke-miterlimit="10" stroke-width="0.4"/>
            <line id="Line_69" data-name="Line 69" x2="1.541" transform="translate(0 1.084)" fill="none" stroke="#fff" stroke-miterlimit="10" stroke-width="0.4"/>
            <line id="Line_70" data-name="Line 70" x2="1.541" transform="translate(0 2.186)" fill="none" stroke="#fff" stroke-miterlimit="10" stroke-width="0.4"/>
          </g>
          <rect id="Rectangle_105" data-name="Rectangle 105" width="11.335" height="0.597" fill="none" stroke="#fff" stroke-miterlimit="10" stroke-width="0.4"/>
          <path id="Path_57" data-name="Path 57" d="M332.405,569.006v-7.086h4.5v7.126" transform="translate(-327.157 -554.784)" fill="none" stroke="#fff" stroke-miterlimit="10" stroke-width="0.4"/>
          <path id="Path_58" data-name="Path 58" d="M335.229,565.18h3.043v3.711h-3.043V565.18Z" transform="translate(-329.228 -557.174)" fill="none" stroke="#fff" stroke-miterlimit="10" stroke-width="0.4"/>
          <path id="Path_59" data-name="Path 59" d="M338.272,569.582h-3.043v1.334h3Z" transform="translate(-329.228 -560.401)" fill="none" stroke="#fff" stroke-miterlimit="10" stroke-width="0.4"/>
          <line id="Line_71" data-name="Line 71" y2="3.711" transform="translate(7.361 8.006)" fill="none" stroke="#fff" stroke-miterlimit="10" stroke-width="0.4"/>
          <path id="Path_60" data-name="Path 60" d="M317.41,569.347v-6.962h2.647v7" transform="translate(-316.164 -555.126)" fill="none" stroke="#fff" stroke-miterlimit="10" stroke-width="0.4"/>
          <path id="Path_61" data-name="Path 61" d="M319.366,565.18h1.678v3.927h-1.678Z" transform="translate(-317.598 -557.174)" fill="none" stroke="#fff" stroke-miterlimit="10" stroke-width="0.4"/>
          <line id="Line_72" data-name="Line 72" y1="3.927" transform="translate(2.663 8.006)" fill="none" stroke="#fff" stroke-miterlimit="10" stroke-width="0.4"/>
          <line id="Line_73" data-name="Line 73" x2="1.678" transform="translate(1.768 9.489)" fill="none" stroke="#fff" stroke-miterlimit="10" stroke-width="0.4"/>
        </g>
        <line id="Line_74" data-name="Line 74" x2="1.678" transform="translate(1.969 34.833)" fill="none" stroke="#fff" stroke-miterlimit="10" stroke-width="0.4"/>
      </g>
    </g>
  </g>
</svg>
