<svg xmlns="http://www.w3.org/2000/svg" width="81.106" height="89.12" viewBox="0 0 81.106 89.12">
  <g id="Group_158" data-name="Group 158" transform="translate(-646.55 -415.55)">
    <g id="Group_116" data-name="Group 116" transform="translate(647 416)">
      <g id="Group_103" data-name="Group 103">
        <g id="Group_96" data-name="Group 96">
          <path id="Path_3" data-name="Path 3" d="M217.239,524.2V456.537h2.931V451.87h3.121v-5.324H225.6v-3.415h1.8V439.79h1.469s-.037-2.937,0-2.937H230.6v2.827h1.543v3.451h1.725v3.452h2.2v5.691h2.461V456.5h3.635v67.7Z" transform="translate(-217.239 -436.853)" fill="none" stroke="#fff" stroke-miterlimit="10" stroke-width="0.9"/>
          <path id="Path_4" data-name="Path 4" d="M242.164,576.22l-24.925.123v-1.762h24.925Z" transform="translate(-217.239 -494.522)" fill="none" stroke="#fff" stroke-miterlimit="10" stroke-width="0.9"/>
          <rect id="Rectangle_92" data-name="Rectangle 92" width="4.377" height="23.951" transform="translate(3.021 53.776)" fill="none" stroke="#fff" stroke-miterlimit="10" stroke-width="0.9"/>
          <line id="Line_6" data-name="Line 6" y2="23.951" transform="translate(5.209 53.776)" fill="none" stroke="#fff" stroke-miterlimit="10" stroke-width="0.9"/>
          <line id="Line_7" data-name="Line 7" x2="4.377" transform="translate(3.021 67.319)" fill="none" stroke="#fff" stroke-miterlimit="10" stroke-width="0.9"/>
          <line id="Line_8" data-name="Line 8" x2="4.377" transform="translate(3.021 58.888)" fill="none" stroke="#fff" stroke-miterlimit="10" stroke-width="0.9"/>
          <path id="Path_5" data-name="Path 5" d="M222.436,524.033l4.239.067a2.022,2.022,0,1,0-3.958.069" transform="translate(-219.415 -472.382)" fill="none" stroke="#fff" stroke-miterlimit="10" stroke-width="0.9"/>
          <path id="Path_6" data-name="Path 6" d="M242.164,515.244l-24.925.123v-1.762h24.925Z" transform="translate(-217.239 -468.991)" fill="none" stroke="#fff" stroke-miterlimit="10" stroke-width="0.9"/>
          <rect id="Rectangle_93" data-name="Rectangle 93" width="4.377" height="23.951" transform="translate(10.274 53.875)" fill="none" stroke="#fff" stroke-miterlimit="10" stroke-width="0.9"/>
          <line id="Line_9" data-name="Line 9" y2="23.951" transform="translate(12.463 53.875)" fill="none" stroke="#fff" stroke-miterlimit="10" stroke-width="0.9"/>
          <line id="Line_10" data-name="Line 10" x2="4.377" transform="translate(10.274 67.418)" fill="none" stroke="#fff" stroke-miterlimit="10" stroke-width="0.9"/>
          <line id="Line_11" data-name="Line 11" x2="4.377" transform="translate(10.274 58.987)" fill="none" stroke="#fff" stroke-miterlimit="10" stroke-width="0.9"/>
          <rect id="Rectangle_94" data-name="Rectangle 94" width="4.377" height="23.951" transform="translate(17.323 53.875)" fill="none" stroke="#fff" stroke-miterlimit="10" stroke-width="0.9"/>
          <line id="Line_12" data-name="Line 12" y2="23.951" transform="translate(19.512 53.875)" fill="none" stroke="#fff" stroke-miterlimit="10" stroke-width="0.9"/>
          <line id="Line_13" data-name="Line 13" x2="4.377" transform="translate(17.323 67.418)" fill="none" stroke="#fff" stroke-miterlimit="10" stroke-width="0.9"/>
          <line id="Line_14" data-name="Line 14" x2="4.377" transform="translate(17.323 58.987)" fill="none" stroke="#fff" stroke-miterlimit="10" stroke-width="0.9"/>
          <path id="Path_7" data-name="Path 7" d="M247.041,524.128l4.239.067a2.022,2.022,0,1,0-3.959.069" transform="translate(-229.718 -472.422)" fill="none" stroke="#fff" stroke-miterlimit="10" stroke-width="0.9"/>
          <path id="Path_8" data-name="Path 8" d="M234.739,524.033l4.239.067a2.022,2.022,0,1,0-3.958.069" transform="translate(-224.567 -472.382)" fill="none" stroke="#fff" stroke-miterlimit="10" stroke-width="0.9"/>
          <g id="Group_92" data-name="Group 92" transform="translate(3.021 25.485)">
            <path id="Path_9" data-name="Path 9" d="M222.436,499.929v-14.2h3.442v14.2Z" transform="translate(-222.436 -482.802)" fill="none" stroke="#fff" stroke-miterlimit="10" stroke-width="0.9"/>
            <line id="Line_15" data-name="Line 15" x2="3.442" transform="translate(0 6.12)" fill="none" stroke="#fff" stroke-miterlimit="10" stroke-width="0.9"/>
            <line id="Line_16" data-name="Line 16" y2="3.196" transform="translate(1.721 2.924)" fill="none" stroke="#fff" stroke-miterlimit="10" stroke-width="0.9"/>
            <path id="Path_10" data-name="Path 10" d="M222.436,482.411l3.122.049a1.489,1.489,0,1,0-2.915.051" transform="translate(-222.436 -480.696)" fill="none" stroke="#fff" stroke-miterlimit="10" stroke-width="0.9"/>
          </g>
          <g id="Group_93" data-name="Group 93" transform="translate(10.574 8.17)">
            <path id="Path_11" data-name="Path 11" d="M235.43,463.46v-7.945h3.442v7.945Z" transform="translate(-235.43 -452.837)" fill="none" stroke="#fff" stroke-miterlimit="10" stroke-width="0.9"/>
            <line id="Line_17" data-name="Line 17" x2="3.442" transform="translate(0 4.465)" fill="none" stroke="#fff" stroke-miterlimit="10" stroke-width="0.9"/>
            <line id="Line_18" data-name="Line 18" y2="1.788" transform="translate(1.721 2.677)" fill="none" stroke="#fff" stroke-miterlimit="10" stroke-width="0.9"/>
            <path id="Path_12" data-name="Path 12" d="M235.43,452.852l3.122.056a1.792,1.792,0,0,0-1.321-1.994,1.762,1.762,0,0,0-1.6,2.052" transform="translate(-235.43 -450.909)" fill="none" stroke="#fff" stroke-miterlimit="10" stroke-width="0.9"/>
            <path id="Path_13" data-name="Path 13" d="M235.43,462.839h3.718" transform="translate(-235.43 -455.904)" fill="none" stroke="#fff" stroke-miterlimit="10" stroke-width="0.9"/>
          </g>
          <g id="Group_94" data-name="Group 94" transform="translate(17.791 25.485)">
            <path id="Path_14" data-name="Path 14" d="M247.845,499.929v-14.2h3.442v14.2Z" transform="translate(-247.845 -482.802)" fill="none" stroke="#fff" stroke-miterlimit="10" stroke-width="0.9"/>
            <line id="Line_19" data-name="Line 19" x2="3.442" transform="translate(0 6.12)" fill="none" stroke="#fff" stroke-miterlimit="10" stroke-width="0.9"/>
            <line id="Line_20" data-name="Line 20" y2="3.196" transform="translate(1.721 2.924)" fill="none" stroke="#fff" stroke-miterlimit="10" stroke-width="0.9"/>
            <path id="Path_15" data-name="Path 15" d="M247.845,482.411l3.123.049a1.489,1.489,0,1,0-2.916.051" transform="translate(-247.845 -480.696)" fill="none" stroke="#fff" stroke-miterlimit="10" stroke-width="0.9"/>
          </g>
          <path id="Path_16" data-name="Path 16" d="M242.164,472.73l-24.925.123v-1.762h24.925Z" transform="translate(-217.239 -451.189)" fill="none" stroke="#fff" stroke-miterlimit="10" stroke-width="0.9"/>
          <g id="Group_95" data-name="Group 95" transform="translate(10.741 25.485)">
            <path id="Path_17" data-name="Path 17" d="M235.718,499.929v-14.2h3.442v14.2Z" transform="translate(-235.718 -482.802)" fill="none" stroke="#fff" stroke-miterlimit="10" stroke-width="0.9"/>
            <line id="Line_21" data-name="Line 21" x2="3.442" transform="translate(0 6.12)" fill="none" stroke="#fff" stroke-miterlimit="10" stroke-width="0.9"/>
            <line id="Line_22" data-name="Line 22" y2="3.196" transform="translate(1.721 2.924)" fill="none" stroke="#fff" stroke-miterlimit="10" stroke-width="0.9"/>
            <path id="Path_18" data-name="Path 18" d="M235.718,482.411l3.122.049a1.489,1.489,0,1,0-2.915.051" transform="translate(-235.718 -480.696)" fill="none" stroke="#fff" stroke-miterlimit="10" stroke-width="0.9"/>
          </g>
        </g>
        <path id="Path_19" data-name="Path 19" d="M260.118,463.363c.688-1.579,1.3-1.91,1.725-1.934,1-.056,1.432,1.576,2.922,1.893a3.457,3.457,0,0,0,2.387-.576c4.415-2.419,6.361-10.792,4.24-13.227a1.608,1.608,0,0,1-.451-.813c-.24-1.392,1.833-3.241,3.876-3.778,3.135-.825,6.788,1.282,6.854,2.9.017.42-.218.524-.464,1.394a7.443,7.443,0,0,0-.116,3.137c.686,5.225,1.153,8.78,3.95,10.456a7.269,7.269,0,0,0,5.228.7c-.1,1.836-.131,2.706-.109,2.82h0a.5.5,0,0,1-.008.2c-.024.093-3.394-.023-5.809-.116l-.116-1.51a19.2,19.2,0,0,1-2.638-4.219c-2.137-4.687-2.179-9.879-1.661-11.117a1.7,1.7,0,0,0,.073-.67,2.883,2.883,0,0,0-1.269-1.943,3.588,3.588,0,0,0-1.858-.656c-1.567-.095-3.338.842-3.7,2.165a2.759,2.759,0,0,0,.144,1.684c1.106,3.238-.376,8.381-2.982,11.4a11.445,11.445,0,0,1-3.993,2.935l.192,2.116-6.411-.144Z" transform="translate(-235.193 -440.157)" fill="none" stroke="#fff" stroke-miterlimit="10" stroke-width="0.9"/>
        <path id="Path_20" data-name="Path 20" d="M266.242,491.224h4.222V499.8h-4.222v-8.575Z" transform="translate(-237.758 -459.619)" fill="none" stroke="#fff" stroke-miterlimit="10" stroke-width="0.9"/>
        <path id="Path_21" data-name="Path 21" d="M270.464,496.127h-4.222v3.026h4.222" transform="translate(-237.758 -461.672)" fill="none" stroke="#fff" stroke-miterlimit="10" stroke-width="0.9"/>
        <line id="Line_23" data-name="Line 23" y2="8.575" transform="translate(30.595 31.605)" fill="none" stroke="#fff" stroke-miterlimit="10" stroke-width="0.9"/>
        <path id="Path_22" data-name="Path 22" d="M281.126,490.567h4.222v8.575h-4.222v-8.575Z" transform="translate(-243.99 -459.344)" fill="none" stroke="#fff" stroke-miterlimit="10" stroke-width="0.9"/>
        <path id="Path_23" data-name="Path 23" d="M285.348,495.47h-4.222V498.5h4.222" transform="translate(-243.99 -461.397)" fill="none" stroke="#fff" stroke-miterlimit="10" stroke-width="0.9"/>
        <line id="Line_24" data-name="Line 24" y2="8.575" transform="translate(39.247 31.223)" fill="none" stroke="#fff" stroke-miterlimit="10" stroke-width="0.9"/>
        <g id="Group_97" data-name="Group 97" transform="translate(46.325 31.223)">
          <path id="Path_24" data-name="Path 24" d="M296.934,490.567h4.222v8.575h-4.222v-8.575Z" transform="translate(-296.934 -490.567)" fill="none" stroke="#fff" stroke-miterlimit="10" stroke-width="0.9"/>
          <path id="Path_25" data-name="Path 25" d="M301.156,495.47h-4.222V498.5h4.222" transform="translate(-296.934 -492.62)" fill="none" stroke="#fff" stroke-miterlimit="10" stroke-width="0.9"/>
          <line id="Line_25" data-name="Line 25" y2="8.575" transform="translate(2.111)" fill="none" stroke="#fff" stroke-miterlimit="10" stroke-width="0.9"/>
        </g>
        <g id="Group_102" data-name="Group 102" transform="translate(28.359 45.035)">
          <path id="Path_26" data-name="Path 26" d="M296.934,514.328h5.139v12.781h-5.139V514.328Z" transform="translate(-278.968 -514.328)" fill="none" stroke="#fff" stroke-miterlimit="10" stroke-width="0.9"/>
          <path id="Path_27" data-name="Path 27" d="M302.074,521.442h-5.139v3.213h5.139" transform="translate(-278.968 -517.307)" fill="none" stroke="#fff" stroke-miterlimit="10" stroke-width="0.9"/>
          <line id="Line_26" data-name="Line 26" y2="12.781" transform="translate(20.536)" fill="none" stroke="#fff" stroke-miterlimit="10" stroke-width="0.9"/>
          <line id="Line_27" data-name="Line 27" x2="5.391" transform="translate(17.966 10.154)" fill="none" stroke="#fff" stroke-miterlimit="10" stroke-width="0.9"/>
          <g id="Group_98" data-name="Group 98" transform="translate(8.778)">
            <path id="Path_28" data-name="Path 28" d="M281.126,514.328h5.139v12.781h-5.139V514.328Z" transform="translate(-281.126 -514.328)" fill="none" stroke="#fff" stroke-miterlimit="10" stroke-width="0.9"/>
            <path id="Path_29" data-name="Path 29" d="M286.266,521.442h-5.139v3.213h5.139" transform="translate(-281.126 -517.307)" fill="none" stroke="#fff" stroke-miterlimit="10" stroke-width="0.9"/>
            <line id="Line_28" data-name="Line 28" y2="12.781" transform="translate(2.57)" fill="none" stroke="#fff" stroke-miterlimit="10" stroke-width="0.9"/>
            <line id="Line_29" data-name="Line 29" x2="5.391" transform="translate(0 10.154)" fill="none" stroke="#fff" stroke-miterlimit="10" stroke-width="0.9"/>
          </g>
          <g id="Group_99" data-name="Group 99" transform="translate(0.126)">
            <path id="Path_30" data-name="Path 30" d="M266.242,514.328h5.139v12.781h-5.139V514.328Z" transform="translate(-266.242 -514.328)" fill="none" stroke="#fff" stroke-miterlimit="10" stroke-width="0.9"/>
            <path id="Path_31" data-name="Path 31" d="M271.382,521.442h-5.139v3.213h5.139" transform="translate(-266.242 -517.307)" fill="none" stroke="#fff" stroke-miterlimit="10" stroke-width="0.9"/>
            <line id="Line_30" data-name="Line 30" y2="12.781" transform="translate(2.57)" fill="none" stroke="#fff" stroke-miterlimit="10" stroke-width="0.9"/>
            <line id="Line_31" data-name="Line 31" x2="5.391" transform="translate(0 10.154)" fill="none" stroke="#fff" stroke-miterlimit="10" stroke-width="0.9"/>
          </g>
          <g id="Group_100" data-name="Group 100" transform="translate(0 18.889)">
            <path id="Path_32" data-name="Path 32" d="M266.026,546.823h6.04v15.264h-6.04V546.823Z" transform="translate(-266.026 -546.823)" fill="none" stroke="#fff" stroke-miterlimit="10" stroke-width="0.9"/>
            <path id="Path_33" data-name="Path 33" d="M272.066,555.319h-6.04v3.837h6.04" transform="translate(-266.026 -550.38)" fill="none" stroke="#fff" stroke-miterlimit="10" stroke-width="0.9"/>
            <line id="Line_32" data-name="Line 32" y2="15.264" transform="translate(3.02)" fill="none" stroke="#fff" stroke-miterlimit="10" stroke-width="0.9"/>
            <line id="Line_33" data-name="Line 33" x2="6.336" transform="translate(0 12.127)" fill="none" stroke="#fff" stroke-miterlimit="10" stroke-width="0.9"/>
          </g>
          <g id="Group_101" data-name="Group 101" transform="translate(8.778 18.889)">
            <path id="Path_34" data-name="Path 34" d="M281.126,546.823h5.759v15.264h-5.759V546.823Z" transform="translate(-281.126 -546.823)" fill="none" stroke="#fff" stroke-miterlimit="10" stroke-width="0.9"/>
            <path id="Path_35" data-name="Path 35" d="M286.885,555.319h-5.759v3.837h5.759" transform="translate(-281.126 -550.38)" fill="none" stroke="#fff" stroke-miterlimit="10" stroke-width="0.9"/>
            <line id="Line_34" data-name="Line 34" y2="15.264" transform="translate(2.879)" fill="none" stroke="#fff" stroke-miterlimit="10" stroke-width="0.9"/>
            <line id="Line_35" data-name="Line 35" x2="6.041" transform="translate(0 12.127)" fill="none" stroke="#fff" stroke-miterlimit="10" stroke-width="0.9"/>
          </g>
        </g>
        <rect id="Rectangle_95" data-name="Rectangle 95" width="5.03" height="7.004" transform="translate(38.305 20.297)" fill="none" stroke="#fff" stroke-miterlimit="10" stroke-width="0.9"/>
        <path id="Path_36" data-name="Path 36" d="M288.117,478.186h-2.57V473.7h2.57Z" transform="translate(-245.841 -452.282)" fill="none" stroke="#fff" stroke-miterlimit="10" stroke-width="0.9"/>
        <path id="Path_37" data-name="Path 37" d="M287.757,478.186V473.7" transform="translate(-246.766 -452.282)" fill="none" stroke="#fff" stroke-miterlimit="10" stroke-width="0.9"/>
        <path id="Path_38" data-name="Path 38" d="M290.16,481.892q.548,30.976,1.095,61.953H260.118v-.791" transform="translate(-235.193 -455.712)" fill="none" stroke="#fff" stroke-miterlimit="10" stroke-width="0.9"/>
        <rect id="Rectangle_96" data-name="Rectangle 96" width="8.156" height="20.284" transform="translate(44.751 63.923)" fill="none" stroke="#fff" stroke-miterlimit="10" stroke-width="0.9"/>
        <rect id="Rectangle_97" data-name="Rectangle 97" width="6.199" height="4.975" transform="translate(45.893 65.122)" fill="none" stroke="#fff" stroke-miterlimit="10" stroke-width="0.9"/>
        <path id="Path_39" data-name="Path 39" d="M296.19,551.373l3.1-2.488,3.1,2.488-3.071,2.488Z" transform="translate(-250.297 -483.763)" fill="none" stroke="#fff" stroke-miterlimit="10" stroke-width="0.9"/>
        <line id="Line_36" data-name="Line 36" y2="14.11" transform="translate(45.893 70.098)" fill="none" stroke="#fff" stroke-miterlimit="10" stroke-width="0.9"/>
        <line id="Line_37" data-name="Line 37" y2="14.11" transform="translate(52.091 70.098)" fill="none" stroke="#fff" stroke-miterlimit="10" stroke-width="0.9"/>
        <line id="Line_38" data-name="Line 38" y1="4.985" transform="translate(35.942 83.147)" fill="none" stroke="#fff" stroke-miterlimit="10" stroke-width="0.9"/>
        <line id="Line_39" data-name="Line 39" x2="24.925" y2="0.791" transform="translate(0 87.342)" fill="none" stroke="#fff" stroke-miterlimit="10" stroke-width="0.9"/>
        <path id="Path_40" data-name="Path 40" d="M279.072,578.1l8.809-5.021h11.152" transform="translate(-243.13 -493.895)" fill="none" stroke="#fff" stroke-miterlimit="10" stroke-width="0.9"/>
        <path id="Path_41" data-name="Path 41" d="M287.272,585.644v-3.925h15.352" transform="translate(-246.563 -497.511)" fill="none" stroke="#fff" stroke-miterlimit="10" stroke-width="0.9"/>
        <line id="Line_40" data-name="Line 40" y2="5.021" transform="translate(48.385 79.187)" fill="none" stroke="#fff" stroke-miterlimit="10" stroke-width="0.9"/>
        <line id="Line_41" data-name="Line 41" y1="2.717" transform="translate(40.709 81.491)" fill="none" stroke="#fff" stroke-miterlimit="10" stroke-width="0.9"/>
        <line id="Line_42" data-name="Line 42" y1="5.455" transform="translate(38.626 82.678)" fill="none" stroke="#fff" stroke-miterlimit="10" stroke-width="0.9"/>
        <line id="Line_43" data-name="Line 43" y1="5.172" transform="translate(55.075 18.189)" fill="none" stroke="#fff" stroke-miterlimit="10" stroke-width="0.9"/>
      </g>
      <g id="Group_110" data-name="Group 110" transform="translate(55.075 4.725)">
        <path id="Path_42" data-name="Path 42" d="M311.987,458.445a4.3,4.3,0,0,0,2.344-.645,6.984,6.984,0,0,0,1.878-2.48,11.043,11.043,0,0,1,2.863-3.107c.177-.131.076-1.485.084-1.78a7.554,7.554,0,0,1,.228-2.158,5.1,5.1,0,0,1,5.36-3.258c2.231.29,3.391,1.924,4.391,3.742a5.2,5.2,0,0,1,.418,2.4,11.579,11.579,0,0,0,.138,2.028,2.993,2.993,0,0,0,2.494,1.708c.548.06,1.188.02,1.548.438.3.348.262.862.375,1.307a1.9,1.9,0,0,0,.89,1.167,9.985,9.985,0,0,0,1.154.441,1.51,1.51,0,0,1,.951,1.664v68.56h-24.13" transform="translate(-311.987 -444.981)" fill="none" stroke="#fff" stroke-miterlimit="10" stroke-width="0.9"/>
        <path id="Path_43" data-name="Path 43" d="M311.987,465.02H319.2q-.014-4.214-.027-8.427" transform="translate(-311.987 -449.843)" fill="none" stroke="#fff" stroke-miterlimit="10" stroke-width="0.9"/>
        <path id="Path_44" data-name="Path 44" d="M342.6,461.874H334v-12.22h-8.883" transform="translate(-317.486 -446.938)" fill="none" stroke="#fff" stroke-miterlimit="10" stroke-width="0.9"/>
        <circle id="Ellipse_9" data-name="Ellipse 9" cx="0.875" cy="0.875" r="0.875" transform="translate(10.814 4.323)" fill="none" stroke="#fff" stroke-miterlimit="10" stroke-width="0.9"/>
        <circle id="Ellipse_10" data-name="Ellipse 10" cx="1.546" cy="1.546" r="1.546" transform="translate(2.39 19.398)" fill="none" stroke="#fff" stroke-miterlimit="10" stroke-width="0.9"/>
        <circle id="Ellipse_11" data-name="Ellipse 11" cx="1.536" cy="1.536" r="1.536" transform="translate(18.514 19.074)" fill="none" stroke="#fff" stroke-miterlimit="10" stroke-width="0.9"/>
        <path id="Path_45" data-name="Path 45" d="M329.1,458.45h3.543v4.3H329.1Z" transform="translate(-319.152 -450.621)" fill="none" stroke="#fff" stroke-miterlimit="10" stroke-width="0.9"/>
        <line id="Line_44" data-name="Line 44" y1="4.302" transform="translate(11.717 7.829)" fill="none" stroke="#fff" stroke-miterlimit="10" stroke-width="0.9"/>
        <rect id="Rectangle_98" data-name="Rectangle 98" width="8.407" height="9.134" transform="translate(7.634 19.074)" fill="none" stroke="#fff" stroke-miterlimit="10" stroke-width="0.9"/>
        <path id="Path_46" data-name="Path 46" d="M327.26,479.5v7.239h6.183V479.5H327.26Z" transform="translate(-318.382 -459.434)" fill="none" stroke="#fff" stroke-miterlimit="10" stroke-width="0.9"/>
        <path id="Path_47" data-name="Path 47" d="M330.59,486.738V479.5h2.136v7.239" transform="translate(-319.776 -459.434)" fill="none" stroke="#fff" stroke-miterlimit="10" stroke-width="0.9"/>
        <line id="Line_45" data-name="Line 45" x2="6.183" transform="translate(8.878 25.282)" fill="none" stroke="#fff" stroke-miterlimit="10" stroke-width="0.9"/>
        <line id="Line_46" data-name="Line 46" x2="6.183" transform="translate(8.878 22.576)" fill="none" stroke="#fff" stroke-miterlimit="10" stroke-width="0.9"/>
        <g id="Group_104" data-name="Group 104" transform="translate(2.39 31.243)">
          <rect id="Rectangle_99" data-name="Rectangle 99" width="4.821" height="7.145" fill="none" stroke="#fff" stroke-miterlimit="10" stroke-width="0.9"/>
          <path id="Path_48" data-name="Path 48" d="M317.661,500.676v4.2H320.6v-4.2h-2.941Z" transform="translate(-316.753 -499.545)" fill="none" stroke="#fff" stroke-miterlimit="10" stroke-width="0.9"/>
          <line id="Line_47" data-name="Line 47" y1="4.203" transform="translate(2.41 1.131)" fill="none" stroke="#fff" stroke-miterlimit="10" stroke-width="0.9"/>
          <line id="Line_48" data-name="Line 48" x2="2.941" transform="translate(0.908 2.469)" fill="none" stroke="#fff" stroke-miterlimit="10" stroke-width="0.9"/>
          <line id="Line_49" data-name="Line 49" x2="2.941" transform="translate(0.908 3.83)" fill="none" stroke="#fff" stroke-miterlimit="10" stroke-width="0.9"/>
        </g>
        <g id="Group_105" data-name="Group 105" transform="translate(10.153 30.904)">
          <rect id="Rectangle_100" data-name="Rectangle 100" width="4.821" height="7.145" fill="none" stroke="#fff" stroke-miterlimit="10" stroke-width="0.9"/>
          <path id="Path_49" data-name="Path 49" d="M331.016,500.093v4.2h2.941v-4.2h-2.941Z" transform="translate(-330.108 -498.961)" fill="none" stroke="#fff" stroke-miterlimit="10" stroke-width="0.9"/>
          <line id="Line_50" data-name="Line 50" y1="4.203" transform="translate(2.41 1.131)" fill="none" stroke="#fff" stroke-miterlimit="10" stroke-width="0.9"/>
          <line id="Line_51" data-name="Line 51" x2="2.941" transform="translate(0.908 2.469)" fill="none" stroke="#fff" stroke-miterlimit="10" stroke-width="0.9"/>
          <line id="Line_52" data-name="Line 52" x2="2.941" transform="translate(0.908 3.83)" fill="none" stroke="#fff" stroke-miterlimit="10" stroke-width="0.9"/>
        </g>
        <g id="Group_106" data-name="Group 106" transform="translate(17.639 31.162)">
          <rect id="Rectangle_101" data-name="Rectangle 101" width="4.821" height="7.145" fill="none" stroke="#fff" stroke-miterlimit="10" stroke-width="0.9"/>
          <path id="Path_50" data-name="Path 50" d="M343.895,500.537v4.2h2.941v-4.2h-2.941Z" transform="translate(-342.987 -499.405)" fill="none" stroke="#fff" stroke-miterlimit="10" stroke-width="0.9"/>
          <line id="Line_53" data-name="Line 53" y1="4.203" transform="translate(2.41 1.131)" fill="none" stroke="#fff" stroke-miterlimit="10" stroke-width="0.9"/>
          <line id="Line_54" data-name="Line 54" x2="2.941" transform="translate(0.908 2.469)" fill="none" stroke="#fff" stroke-miterlimit="10" stroke-width="0.9"/>
          <line id="Line_55" data-name="Line 55" x2="2.941" transform="translate(0.908 3.83)" fill="none" stroke="#fff" stroke-miterlimit="10" stroke-width="0.9"/>
        </g>
        <rect id="Rectangle_102" data-name="Rectangle 102" width="4.423" height="9.694" transform="translate(2.788 40.771)" fill="none" stroke="#fff" stroke-miterlimit="10" stroke-width="0.9"/>
        <path id="Path_51" data-name="Path 51" d="M318.758,516.636h2.3v7.5h-2.3Z" transform="translate(-314.822 -474.984)" fill="none" stroke="#fff" stroke-miterlimit="10" stroke-width="0.9"/>
        <line id="Line_56" data-name="Line 56" y1="0.094" x2="2.303" transform="translate(3.936 43.914)" fill="none" stroke="#fff" stroke-miterlimit="10" stroke-width="0.9"/>
        <line id="Line_57" data-name="Line 57" x2="2.303" transform="translate(3.936 46.701)" fill="none" stroke="#fff" stroke-miterlimit="10" stroke-width="0.9"/>
        <rect id="Rectangle_103" data-name="Rectangle 103" width="4.423" height="9.694" transform="translate(11.164 40.554)" fill="none" stroke="#fff" stroke-miterlimit="10" stroke-width="0.9"/>
        <path id="Path_52" data-name="Path 52" d="M333.167,516.263h2.3v7.5h-2.3Z" transform="translate(-320.856 -474.828)" fill="none" stroke="#fff" stroke-miterlimit="10" stroke-width="0.9"/>
        <line id="Line_58" data-name="Line 58" y1="0.094" x2="2.303" transform="translate(12.312 43.697)" fill="none" stroke="#fff" stroke-miterlimit="10" stroke-width="0.9"/>
        <line id="Line_59" data-name="Line 59" x2="2.303" transform="translate(12.312 46.484)" fill="none" stroke="#fff" stroke-miterlimit="10" stroke-width="0.9"/>
        <rect id="Rectangle_104" data-name="Rectangle 104" width="4.423" height="9.694" transform="translate(17.838 40.337)" fill="none" stroke="#fff" stroke-miterlimit="10" stroke-width="0.9"/>
        <path id="Path_53" data-name="Path 53" d="M344.649,515.89h2.3v7.5h-2.3Z" transform="translate(-325.663 -474.672)" fill="none" stroke="#fff" stroke-miterlimit="10" stroke-width="0.9"/>
        <line id="Line_60" data-name="Line 60" y1="0.094" x2="2.303" transform="translate(18.986 43.481)" fill="none" stroke="#fff" stroke-miterlimit="10" stroke-width="0.9"/>
        <line id="Line_61" data-name="Line 61" x2="2.303" transform="translate(18.986 46.267)" fill="none" stroke="#fff" stroke-miterlimit="10" stroke-width="0.9"/>
        <g id="Group_109" data-name="Group 109" transform="translate(0.439 52.432)">
          <path id="Path_54" data-name="Path 54" d="M318.529,544.687V552.1h3.357v-7.416h-3.357Z" transform="translate(-315.165 -539.162)" fill="none" stroke="#fff" stroke-miterlimit="10" stroke-width="0.9"/>
          <line id="Line_62" data-name="Line 62" y1="7.416" transform="translate(5.079 5.525)" fill="none" stroke="#fff" stroke-miterlimit="10" stroke-width="0.9"/>
          <line id="Line_63" data-name="Line 63" x2="3.357" transform="translate(3.364 7.886)" fill="none" stroke="#fff" stroke-miterlimit="10" stroke-width="0.9"/>
          <line id="Line_64" data-name="Line 64" x2="3.357" transform="translate(3.364 10.287)" fill="none" stroke="#fff" stroke-miterlimit="10" stroke-width="0.9"/>
          <g id="Group_107" data-name="Group 107" transform="translate(9.715 5.525)">
            <path id="Path_55" data-name="Path 55" d="M329.454,544.687V552.1h3.357v-7.416h-3.357Z" transform="translate(-329.454 -544.687)" fill="none" stroke="#fff" stroke-miterlimit="10" stroke-width="0.9"/>
            <line id="Line_65" data-name="Line 65" y1="7.416" transform="translate(1.715)" fill="none" stroke="#fff" stroke-miterlimit="10" stroke-width="0.9"/>
            <line id="Line_66" data-name="Line 66" x2="3.357" transform="translate(0 2.361)" fill="none" stroke="#fff" stroke-miterlimit="10" stroke-width="0.9"/>
            <line id="Line_67" data-name="Line 67" x2="3.357" transform="translate(0 4.762)" fill="none" stroke="#fff" stroke-miterlimit="10" stroke-width="0.9"/>
          </g>
          <g id="Group_108" data-name="Group 108" transform="translate(15.523 4.857)">
            <path id="Path_56" data-name="Path 56" d="M339.445,543.538v7.416H342.8v-7.416h-3.357Z" transform="translate(-339.445 -543.538)" fill="none" stroke="#fff" stroke-miterlimit="10" stroke-width="0.9"/>
            <line id="Line_68" data-name="Line 68" y1="7.416" transform="translate(1.715)" fill="none" stroke="#fff" stroke-miterlimit="10" stroke-width="0.9"/>
            <line id="Line_69" data-name="Line 69" x2="3.357" transform="translate(0 2.361)" fill="none" stroke="#fff" stroke-miterlimit="10" stroke-width="0.9"/>
            <line id="Line_70" data-name="Line 70" x2="3.357" transform="translate(0 4.762)" fill="none" stroke="#fff" stroke-miterlimit="10" stroke-width="0.9"/>
          </g>
          <rect id="Rectangle_105" data-name="Rectangle 105" width="24.689" height="1.299" fill="none" stroke="#fff" stroke-miterlimit="10" stroke-width="0.9"/>
          <path id="Path_57" data-name="Path 57" d="M332.405,577.354V561.919h9.8v15.521" transform="translate(-320.975 -546.377)" fill="none" stroke="#fff" stroke-miterlimit="10" stroke-width="0.9"/>
          <path id="Path_58" data-name="Path 58" d="M335.229,565.18h6.627v8.084h-6.627V565.18Z" transform="translate(-322.158 -547.743)" fill="none" stroke="#fff" stroke-miterlimit="10" stroke-width="0.9"/>
          <path id="Path_59" data-name="Path 59" d="M341.856,569.582h-6.627v2.906h6.54Z" transform="translate(-322.158 -549.586)" fill="none" stroke="#fff" stroke-miterlimit="10" stroke-width="0.9"/>
          <line id="Line_71" data-name="Line 71" y2="8.084" transform="translate(16.032 17.437)" fill="none" stroke="#fff" stroke-miterlimit="10" stroke-width="0.9"/>
          <path id="Path_60" data-name="Path 60" d="M317.41,577.549V562.386h5.766v15.25" transform="translate(-314.696 -546.573)" fill="none" stroke="#fff" stroke-miterlimit="10" stroke-width="0.9"/>
          <path id="Path_61" data-name="Path 61" d="M319.366,565.18h3.654v8.554h-3.654Z" transform="translate(-315.515 -547.743)" fill="none" stroke="#fff" stroke-miterlimit="10" stroke-width="0.9"/>
          <line id="Line_72" data-name="Line 72" y1="8.554" transform="translate(5.8 17.437)" fill="none" stroke="#fff" stroke-miterlimit="10" stroke-width="0.9"/>
          <line id="Line_73" data-name="Line 73" x2="3.654" transform="translate(3.851 20.669)" fill="none" stroke="#fff" stroke-miterlimit="10" stroke-width="0.9"/>
        </g>
        <line id="Line_74" data-name="Line 74" x2="3.654" transform="translate(4.289 75.87)" fill="none" stroke="#fff" stroke-miterlimit="10" stroke-width="0.9"/>
      </g>
    </g>
  </g>
</svg>
