<svg xmlns="http://www.w3.org/2000/svg" width="66.344" height="112.757" viewBox="0 0 66.344 112.757">
  <path id="Path_88" data-name="Path 88" d="M168.708,377.579c-2.768-.059-5.005-.187-6.5-.289-3.248-.219-5.383-.48-8.238.218-2.7.661-3.218,1.488-3.4,1.951-.544,1.415.705,2.928.795,3.035.973,1.147,2.851,1.9,3.9,1.157.516-.369.886-1.136.65-1.59-.369-.707-2.216-.678-3.469.072a2.849,2.849,0,0,0-.579,4.769c.915.821,2.508,1.221,3.324.506a1.309,1.309,0,0,0,.434-1.445c-.349-.576-1.727-.493-2.6.072a2.9,2.9,0,0,0,1.951,5.277c.9-.158,1.838-.935,1.735-1.518-.117-.658-1.57-1.118-2.674-.795a3.25,3.25,0,0,0-2.1,3.54c.416,2.181,3.623,3.241,4.914,2.385a1.41,1.41,0,0,0,.65-1.445c-.294-.845-2.232-1.244-3.4-.506a3.231,3.231,0,0,0-1.227,2.963c.37,4,7.891,5.96,9.971,6.5a10.513,10.513,0,0,0,5.2,0c.515-.142,1.975-.542,2.024-1.229.014-.2-.09-.437-.455-.745-1.124-.941-2.814-.918-4.314-.917-4.544,0-5.689-.192-6.7.8a1.466,1.466,0,0,0-.574,1.032c.055,1.351,3.388,2.161,4.419,2.411,1.734.422,3.731.908,5.854.058.606-.242.944-.483,2.813-2.066,4.5-3.818,5.927-5.3,6.6-7.4.4-1.255.222-1.751,0-2.009-.606-.7-2.28-.487-2.467.058-.142.407.5,1.127,1.2,1.32a2.565,2.565,0,0,0,2.755-1.664c.614-1.742-1.31-4.052-3.1-4.191-.92-.07-1.958.422-1.951.8.008.42,1.281.882,2.409.746a2.981,2.981,0,0,0,2.468-1.664,2.823,2.823,0,0,0-1.664-3.271c-.923-.387-2.217-.225-2.411.286a.68.68,0,0,0,.23.69c.672.577,2.785.041,3.5-1.436a3.027,3.027,0,0,0-.516-3.157c-.871-1.037-2.528-1.558-3.215-.975a.932.932,0,0,0-.286,1.032c.286.55,1.584.515,2.467.114a2.7,2.7,0,0,0,1.722-2.353c-.131-1.386-2.141-2.066-2.985-2.353a9.742,9.742,0,0,0-2.927-.4,43.273,43.273,0,0,0-4.591-.23,102.933,102.933,0,0,1-11.881-.344c-3.5-.477-5.28-.743-6.658-2.123-1.608-1.611-2.226-4.07-2.762-6.2-.445-1.763-.314-2.123-.678-3.72a21.854,21.854,0,0,0-2.819-6.653,186.982,186.982,0,0,1-8.963-17.7c-1.568-3.775-4.785-11.517-3.078-20.78a32.473,32.473,0,0,1,11.736-19.047c11.412-8.816,24.536-6.327,27.129-5.771,4.634.991,13.9,4,20.2,13.082.483.694,8.308,12.309,5,24.628-.522,1.948-3.043,6.942-8.08,16.931-3.183,6.309-3.795,7.154-4.233,9.621-.792,4.445.145,7.6-2.117,12.12a8.338,8.338,0,0,1-2.694,3.464c-.891.589-1.59.72-8.191.726-13.649.011-8.787-.551-8.933-.534a1.8,1.8,0,0,1-1.255-.232c-.926-.652-.739-2.373-.676-3.065.446-4.858-.207-9.758-.09-14.634.038-1.573.052-2.516.728-3.394.921-1.2,2.066-.973,4.768-2.668,1.849-1.159,2.165-1.8,2.264-2.021.361-.812.119-1.235.081-3.394a10.293,10.293,0,0,1,.242-3.638c.751-1.862,2.382-2.114,2.263-3.152-.123-1.084-2-1.693-2.263-1.777-.973-.315-1.5-.136-4.689-.244-.94-.03-1.089-.053-1.293-.161-1.06-.563-1.045-2.109-1.374-4.364-.472-3.237-.708-4.858-1.779-5.9-1.512-1.474-3.833-1.339-4.607-1.293-.4.023-2.094.122-2.264.809-.125.5.63,1.09.889,1.293,2.006,1.562,5.688,1.173,9.3.889,11.471-.9,10.457.192,12.764-.478.457-.133,1.881-.577,2.513.075a1.9,1.9,0,0,1,.242,1.616c-.644,3.48-3.085,9.822-3.717,11.558-1.543,4.233-1.607,6.548-3.961,8.65a3.427,3.427,0,0,1-2.587,1.131c-1.476-.157-2.613-1.8-3.072-3.152-.961-2.838.87-4.977-.484-6.385a4.325,4.325,0,0,0-1.779-1.051c-1.013-.3-1.715-.082-1.859-.405-.157-.35.471-1.068,1.133-1.454a3.685,3.685,0,0,1,4.284.484c.337.359.576.827.726,3.314.2,3.33.288,5.021-.484,6.3-.2.333-1.3,2.156-2.991,2.264-.815.052-1.98-.279-3.88-2.668-2.618-3.292-3.2-6.183-4.768-10.346a64.792,64.792,0,0,0-3.315-7.355" transform="translate(-130.577 -292.005)" fill="none" stroke="#fff" stroke-miterlimit="10" stroke-width="1"/>
</svg>
