<svg xmlns="http://www.w3.org/2000/svg" width="25.018" height="42.197" viewBox="0 0 25.018 42.197">
  <g id="Group_157" data-name="Group 157" transform="translate(-906.663 -412.6)">
    <g id="Group_144" data-name="Group 144" transform="translate(907 413)">
      <g id="Group_138" data-name="Group 138" transform="translate(0 0)">
        <path id="Path_88" data-name="Path 88" d="M145.027,324.178c-1.028-.022-1.859-.07-2.415-.107a9.125,9.125,0,0,0-3.059.081c-1,.245-1.195.552-1.261.724a1.275,1.275,0,0,0,.3,1.127c.361.426,1.059.707,1.449.43.192-.137.329-.422.241-.59-.137-.262-.823-.252-1.288.027a1.058,1.058,0,0,0-.215,1.771,1.031,1.031,0,0,0,1.234.188.486.486,0,0,0,.161-.537c-.129-.214-.641-.183-.966.027a1.076,1.076,0,0,0,.724,1.959c.336-.059.682-.347.644-.564-.044-.244-.583-.415-.993-.3a1.207,1.207,0,0,0-.778,1.315,1.4,1.4,0,0,0,1.825.885.523.523,0,0,0,.241-.537c-.109-.314-.829-.462-1.261-.188a1.2,1.2,0,0,0-.456,1.1c.137,1.485,2.93,2.213,3.7,2.415a3.9,3.9,0,0,0,1.932,0c.191-.053.733-.2.751-.456.005-.074-.033-.162-.169-.276a2.475,2.475,0,0,0-1.6-.34c-1.687,0-2.112-.071-2.49.3a.544.544,0,0,0-.213.383c.02.5,1.258.8,1.641.9a3.407,3.407,0,0,0,2.174.021,3.865,3.865,0,0,0,1.044-.767c1.672-1.418,2.2-1.967,2.451-2.749.149-.466.083-.65,0-.746-.225-.261-.846-.181-.916.022-.053.151.187.418.447.49a.952.952,0,0,0,1.023-.618,1.366,1.366,0,0,0-1.151-1.556c-.342-.026-.727.157-.724.3s.476.327.895.277a1.107,1.107,0,0,0,.917-.618,1.048,1.048,0,0,0-.618-1.215c-.343-.144-.823-.084-.9.106a.252.252,0,0,0,.085.256c.249.214,1.034.015,1.3-.533a1.124,1.124,0,0,0-.192-1.172c-.323-.385-.939-.578-1.194-.362a.346.346,0,0,0-.106.383c.106.2.588.191.916.042a1,1,0,0,0,.64-.874c-.049-.515-.8-.767-1.108-.874a3.616,3.616,0,0,0-1.087-.149,16.051,16.051,0,0,0-1.7-.085,38.215,38.215,0,0,1-4.412-.128c-1.3-.177-1.96-.276-2.472-.788a4.873,4.873,0,0,1-1.026-2.3c-.165-.655-.116-.788-.252-1.381a8.115,8.115,0,0,0-1.047-2.47,69.433,69.433,0,0,1-3.328-6.573,13.383,13.383,0,0,1-1.143-7.716,12.057,12.057,0,0,1,4.358-7.073,12.523,12.523,0,0,1,10.073-2.143,12.232,12.232,0,0,1,7.5,4.858c.179.258,3.085,4.57,1.857,9.145a61.625,61.625,0,0,1-3,6.287c-1.182,2.343-1.409,2.656-1.572,3.573-.294,1.65.054,2.822-.786,4.5a3.1,3.1,0,0,1-1,1.286c-.331.219-.59.267-3.042.27-5.068,0-3.263-.2-3.317-.2a.669.669,0,0,1-.466-.086c-.344-.242-.274-.881-.251-1.138.166-1.8-.077-3.623-.033-5.434a1.967,1.967,0,0,1,.27-1.26c.342-.445.767-.361,1.77-.991.686-.43.8-.668.841-.75.134-.3.044-.459.03-1.26a3.822,3.822,0,0,1,.09-1.351c.279-.691.884-.785.84-1.17-.046-.4-.744-.629-.84-.66a7.449,7.449,0,0,0-1.741-.09c-.349-.011-.4-.02-.48-.06-.394-.209-.388-.783-.51-1.621-.175-1.2-.263-1.8-.66-2.191a2.266,2.266,0,0,0-1.71-.48c-.147.008-.777.045-.841.3-.046.187.234.4.33.48.745.58,2.112.435,3.451.33,4.259-.335,3.883.071,4.74-.178.17-.049.7-.214.933.028a.705.705,0,0,1,.09.6,34.6,34.6,0,0,1-1.38,4.292c-.573,1.572-.6,2.431-1.471,3.212a1.273,1.273,0,0,1-.961.42c-.548-.058-.97-.668-1.14-1.171-.357-1.054.323-1.848-.18-2.371a1.606,1.606,0,0,0-.66-.39c-.376-.113-.637-.031-.69-.15s.175-.4.421-.54a1.368,1.368,0,0,1,1.591.18c.125.133.214.307.27,1.23a4.234,4.234,0,0,1-.18,2.341,1.621,1.621,0,0,1-1.111.841c-.3.019-.735-.1-1.441-.991a12.252,12.252,0,0,1-1.77-3.842,24.056,24.056,0,0,0-1.231-2.731" transform="translate(-131.04 -292.638)" fill="none" stroke="#fff" stroke-miterlimit="10" stroke-width="0.7"/>
      </g>
    </g>
  </g>
</svg>
