<svg xmlns="http://www.w3.org/2000/svg" width="17.684" height="25.423" viewBox="0 0 17.684 25.423">
  <path id="form-svgrepo-com" d="M39.644,5.037V3.944A.358.358,0,0,1,40,3.586h6.73a.358.358,0,0,1,.358.358V5.037a.358.358,0,0,1-.358.358H40A.358.358,0,0,1,39.644,5.037Zm5.788-3.131a2.072,2.072,0,0,0-4.13,0Zm6.777,4.3V23.162a2.263,2.263,0,0,1-2.26,2.26H36.785a2.263,2.263,0,0,1-2.26-2.26V6.2a2.263,2.263,0,0,1,2.26-2.26h1.177s0,0,0,0V5.037A2.041,2.041,0,0,0,40,7.076h6.73a2.041,2.041,0,0,0,2.039-2.039V3.944s0,0,0,0h1.177A2.263,2.263,0,0,1,52.209,6.2Zm-11.67,9.876a.841.841,0,0,0-1.157.274l-.795,1.289-.41-.323a.841.841,0,0,0-1.04,1.321l1.151.907a.841.841,0,0,0,1.236-.219l1.29-2.092A.841.841,0,0,0,40.539,16.077Zm0-6.052a.841.841,0,0,0-1.157.274l-.795,1.289-.41-.323a.841.841,0,0,0-1.04,1.321l1.151.907a.841.841,0,0,0,1.236-.219l1.29-2.092A.841.841,0,0,0,40.539,10.025Zm8.705,8.86a.84.84,0,0,0-.841-.841H42.912a.841.841,0,1,0,0,1.681H48.4A.84.84,0,0,0,49.244,18.885Zm0-6.052a.84.84,0,0,0-.841-.841H42.912a.841.841,0,1,0,0,1.681H48.4A.84.84,0,0,0,49.244,12.833Z" transform="translate(-34.525)"/>
</svg>
