<svg xmlns="http://www.w3.org/2000/svg" width="21.476" height="19.067" viewBox="0 0 21.476 19.067">
  <g id="shake-hands-svgrepo-com" transform="translate(0)">
    <path id="Path_107" data-name="Path 107" d="M7.883,24.478a1.948,1.948,0,0,1-1.347-3.349L6.086,20.7a.434.434,0,0,0-.59.022L.126,26.105a.434.434,0,0,0-.037.57l1.975,2.256a.441.441,0,0,1,.081.175,6.02,6.02,0,0,0,.4,1.169l.185-.185a1.715,1.715,0,0,1,2.426,0l.006.006.006.006a1.7,1.7,0,0,1,.448.8,1.712,1.712,0,0,1,2.06.275l.007.007,0,0a1.712,1.712,0,0,1,.389,1.824,1.7,1.7,0,0,1,.981.485l.008.008a1.7,1.7,0,0,1,.458.837l3.894,3.894a1.087,1.087,0,0,0,.766.319,1,1,0,0,0,.626-.215A1.036,1.036,0,0,0,14.9,36.8l-3.768-3.768a.5.5,0,0,1,0-.7.5.5,0,0,1,.714,0l4.792,4.792a1.087,1.087,0,0,0,.766.319,1,1,0,0,0,.626-.215,1.036,1.036,0,0,0,.091-1.542l-4.815-4.815a.5.5,0,0,1,0-.713h0a.5.5,0,0,1,.7,0L17.757,33.9a1.087,1.087,0,0,0,.766.319A1,1,0,0,0,19.148,34a1.036,1.036,0,0,0,.091-1.542L11.3,24.522Z" transform="translate(0 -20.215)"/>
    <path id="Path_108" data-name="Path 108" d="M127.06,237.331a1.03,1.03,0,0,0,.812-.393,1.054,1.054,0,0,0-.1-1.392l-.33-.33a1.707,1.707,0,0,1-.5,1.088l-.43.43a1.734,1.734,0,0,1-.263.216l.08.08A1.03,1.03,0,0,0,127.06,237.331Z" transform="translate(-116.504 -218.264)"/>
    <path id="Path_109" data-name="Path 109" d="M98.084,15.733a.434.434,0,0,0-.59-.022l-.359.2h0l-7.139.982a1.023,1.023,0,1,0,0,2.045l3.807.048,7.212,7.215a10.934,10.934,0,0,0,2.212-3.884.442.442,0,0,1,.081-.175l.185-.465a.434.434,0,0,0-.037-.57Z" transform="translate(-82.104 -15.606)"/>
    <path id="Path_110" data-name="Path 110" d="M33.138,151.009a.789.789,0,0,0,1.116,0l.617-.617a.789.789,0,0,0,0-1.116l-.008-.008a.789.789,0,0,0-1.116,0l-.617.617a.789.789,0,0,0,0,1.115Z" transform="translate(-30.359 -138.737)"/>
    <path id="Path_111" data-name="Path 111" d="M55.441,166.176a.787.787,0,0,0,.558-.231l1.46-1.46a.789.789,0,0,0,0-1.116l-.008-.008a.789.789,0,0,0-1.116,0l-1.46,1.46a.789.789,0,0,0,0,1.116l.008.008A.786.786,0,0,0,55.441,166.176Z" transform="translate(-50.426 -151.742)"/>
    <path id="Path_112" data-name="Path 112" d="M79.413,195.457a.789.789,0,0,0,1.116,0l.945-.945a.789.789,0,0,0,0-1.116l-.008-.008a.789.789,0,0,0-1.116,0l-.945.945a.789.789,0,0,0,0,1.116Z" transform="translate(-73.062 -179.451)"/>
    <path id="Path_113" data-name="Path 113" d="M104.97,225.057l.43-.43a.789.789,0,0,0,0-1.116l-.008-.008a.789.789,0,0,0-1.116,0l-.43.43a.789.789,0,0,0,0,1.116l.008.008a.789.789,0,0,0,1.116,0Z" transform="translate(-95.617 -207.242)"/>
  </g>
</svg>
