<svg id="Group_183" data-name="Group 183" xmlns="http://www.w3.org/2000/svg" xmlns:xlink="http://www.w3.org/1999/xlink" width="247" height="247" viewBox="0 0 247 247">
  <defs>
    <clipPath id="clip-path">
      <rect id="Rectangle_135" data-name="Rectangle 135" width="247" height="247" fill="none"/>
    </clipPath>
  </defs>
  <g id="Group_182" data-name="Group 182" clip-path="url(#clip-path)">
    <path id="Path_117" data-name="Path 117" d="M123.5,0h0A123.5,123.5,0,1,1,0,123.5,123.5,123.5,0,0,1,123.5,0" fill="#272727"/>
    <path id="Path_118" data-name="Path 118" d="M122.147,137.4a11.838,11.838,0,1,1,11.821-11.854A11.63,11.63,0,0,1,122.147,137.4m0-5.137c3.688,0,6.092-2.667,6.092-6.717,0-4.117-2.4-6.718-6.092-6.718-3.754,0-6.125,2.6-6.125,6.718,0,4.05,2.371,6.717,6.125,6.717" transform="translate(-19.479 -20.091)" fill="#fff"/>
    <path id="Path_119" data-name="Path 119" d="M151.082,137.4c-4.971,0-8.857-2.47-9.022-7.146h5.993a2.651,2.651,0,0,0,2.865,2.635c1.646,0,2.7-.823,2.7-2.174,0-4.28-11.558-1.976-11.491-10.175,0-4.379,3.588-6.816,8.428-6.816,5.038,0,8.43,2.5,8.661,6.916h-6.092a2.5,2.5,0,0,0-2.668-2.4,2.049,2.049,0,0,0-2.37,2.107c0,4.017,11.425,2.207,11.425,9.945,0,3.884-3.028,7.112-8.429,7.112" transform="translate(-25.097 -20.091)" fill="#fff"/>
    <path id="Path_120" data-name="Path 120" d="M176.909,114.122c5.664,0,8.5,3.26,8.5,7.277a6.728,6.728,0,0,1-5.138,6.684l5.335,9.154h-6.355l-4.808-8.726H173.09v8.726h-5.631V114.122Zm-.329,4.676h-3.49v5.73h3.49c2.108,0,3.1-1.086,3.1-2.9,0-1.712-.988-2.831-3.1-2.831" transform="translate(-29.584 -20.162)" fill="#fff"/>
    <path id="Path_121" data-name="Path 121" d="M40.244,154.862c1.629,0,2.43.937,2.43,2.053a1.954,1.954,0,0,1-1.59,1.965l1.7,2.844H41.438l-1.58-2.745H39v2.745H37.874v-6.862Zm0,.918H39v2.3h1.244c.878,0,1.274-.484,1.274-1.165s-.4-1.135-1.274-1.135" transform="translate(-6.691 -27.359)" fill="#fff"/>
    <path id="Path_122" data-name="Path 122" d="M47.718,162.1A2.64,2.64,0,0,1,45,159.285a2.605,2.605,0,0,1,2.715-2.8,2.537,2.537,0,0,1,2.646,2.677,3.378,3.378,0,0,1-.04.552H46.167a1.5,1.5,0,0,0,1.55,1.442,1.319,1.319,0,0,0,1.284-.76h1.214a2.485,2.485,0,0,1-2.5,1.708m-1.54-3.3H49.19a1.414,1.414,0,0,0-1.521-1.372,1.481,1.481,0,0,0-1.491,1.372" transform="translate(-7.951 -27.645)" fill="#fff"/>
    <path id="Path_123" data-name="Path 123" d="M54.973,156.481a2.317,2.317,0,0,1,1.886.879v-.79h1.135v5.441H56.859V161.2a2.344,2.344,0,0,1-1.906.9,2.631,2.631,0,0,1-2.547-2.835,2.589,2.589,0,0,1,2.567-2.785m.237.977a1.669,1.669,0,0,0-1.649,1.807,1.714,1.714,0,0,0,1.649,1.857,1.842,1.842,0,0,0,0-3.664" transform="translate(-9.258 -27.645)" fill="#fff"/>
    <rect id="Rectangle_131" data-name="Rectangle 131" width="1.125" height="7.307" transform="translate(50.221 127.058)" fill="#fff"/>
    <path id="Path_124" data-name="Path 124" d="M71.077,155.768H68.411v2.015h2.37v.919h-2.37v2.1h2.666v.918H67.286V154.85h3.791Z" transform="translate(-11.887 -27.357)" fill="#fff"/>
    <path id="Path_125" data-name="Path 125" d="M75.485,162.1a2.054,2.054,0,0,1-2.272-1.759h1.166a.993.993,0,0,0,1.086.811c.652,0,1-.277,1-.652,0-1.066-3.16-.454-3.16-2.449,0-.869.81-1.57,2.094-1.57a1.865,1.865,0,0,1,2.1,1.748H76.373a.9.9,0,0,0-1.017-.8c-.6,0-.918.247-.918.612,0,1.1,3.07.484,3.129,2.449,0,.918-.8,1.61-2.083,1.61" transform="translate(-12.934 -27.645)" fill="#fff"/>
    <path id="Path_126" data-name="Path 126" d="M80.059,157.217h-.641V156.3h.641v-1.354h1.135V156.3h1.323v.918H81.195v3.012c0,.4.158.573.632.573h.691v.938h-.888c-.967,0-1.57-.405-1.57-1.511Z" transform="translate(-14.031 -27.374)" fill="#fff"/>
    <path id="Path_127" data-name="Path 127" d="M86.557,156.481a2.314,2.314,0,0,1,1.885.879v-.79h1.136v5.441H88.443V161.2a2.341,2.341,0,0,1-1.905.9,2.631,2.631,0,0,1-2.547-2.835,2.589,2.589,0,0,1,2.567-2.785m.237.977a1.669,1.669,0,0,0-1.649,1.807,1.714,1.714,0,0,0,1.649,1.857,1.842,1.842,0,0,0,0-3.664" transform="translate(-14.838 -27.645)" fill="#fff"/>
    <path id="Path_128" data-name="Path 128" d="M92.659,157.217h-.641V156.3h.641v-1.354h1.135V156.3h1.323v.918H93.795v3.012c0,.4.158.573.632.573h.691v.938h-.888c-.967,0-1.57-.405-1.57-1.511Z" transform="translate(-16.257 -27.374)" fill="#fff"/>
    <path id="Path_129" data-name="Path 129" d="M99.3,162.1a2.64,2.64,0,0,1-2.715-2.815,2.606,2.606,0,0,1,2.715-2.8,2.537,2.537,0,0,1,2.646,2.677,3.471,3.471,0,0,1-.04.552H97.754a1.5,1.5,0,0,0,1.55,1.442,1.318,1.318,0,0,0,1.284-.76H101.8a2.486,2.486,0,0,1-2.5,1.708m-1.54-3.3h3.012a1.413,1.413,0,0,0-1.521-1.372,1.481,1.481,0,0,0-1.491,1.372" transform="translate(-17.064 -27.645)" fill="#fff"/>
    <rect id="Rectangle_132" data-name="Rectangle 132" width="1.126" height="6.862" transform="translate(155.816 127.503)" fill="#fff"/>
    <path id="Path_130" data-name="Path 130" d="M196.28,158.969c0-1-.543-1.511-1.363-1.511a1.319,1.319,0,0,0-1.372,1.511v3.041h-1.125V156.57h1.125v.622a2.094,2.094,0,0,1,1.62-.711,2.118,2.118,0,0,1,2.23,2.321v3.209H196.28Z" transform="translate(-33.994 -27.645)" fill="#fff"/>
    <path id="Path_131" data-name="Path 131" d="M200.631,156.589l1.54,4.434,1.54-4.434h1.195l-2.073,5.441H201.49l-2.063-5.441Z" transform="translate(-35.232 -27.664)" fill="#fff"/>
    <path id="Path_132" data-name="Path 132" d="M209.377,162.1a2.641,2.641,0,0,1-2.715-2.815,2.606,2.606,0,0,1,2.715-2.8,2.538,2.538,0,0,1,2.647,2.677,3.472,3.472,0,0,1-.04.552h-4.158a1.5,1.5,0,0,0,1.55,1.442,1.319,1.319,0,0,0,1.284-.76h1.214a2.487,2.487,0,0,1-2.5,1.708m-1.54-3.3h3.011a1.412,1.412,0,0,0-1.52-1.372,1.481,1.481,0,0,0-1.491,1.372" transform="translate(-36.51 -27.645)" fill="#fff"/>
    <path id="Path_133" data-name="Path 133" d="M216.434,162.1a2.053,2.053,0,0,1-2.272-1.759h1.165a.994.994,0,0,0,1.087.811c.652,0,1-.277,1-.652,0-1.066-3.16-.454-3.16-2.449,0-.869.809-1.57,2.094-1.57a1.865,1.865,0,0,1,2.1,1.748h-1.125a.9.9,0,0,0-1.017-.8c-.6,0-.918.247-.918.612,0,1.1,3.07.484,3.129,2.449,0,.918-.8,1.61-2.083,1.61" transform="translate(-37.835 -27.645)" fill="#fff"/>
    <path id="Path_134" data-name="Path 134" d="M221.008,157.217h-.641V156.3h.641v-1.354h1.136V156.3h1.322v.918h-1.322v3.012c0,.4.157.573.632.573h.691v.938h-.888c-.967,0-1.57-.405-1.57-1.511Z" transform="translate(-38.932 -27.374)" fill="#fff"/>
    <path id="Path_135" data-name="Path 135" d="M233.106,158.969c0-1-.543-1.511-1.363-1.511a1.319,1.319,0,0,0-1.372,1.511v3.041h-1.116v-3.041c0-1-.543-1.511-1.363-1.511a1.319,1.319,0,0,0-1.372,1.511v3.041h-1.126V156.57h1.126v.622a2.073,2.073,0,0,1,1.61-.711,2.1,2.1,0,0,1,1.955,1.076,2.231,2.231,0,0,1,4.137,1.245v3.209h-1.116Z" transform="translate(-39.82 -27.645)" fill="#fff"/>
    <path id="Path_136" data-name="Path 136" d="M240.121,162.1a2.641,2.641,0,0,1-2.715-2.815,2.606,2.606,0,0,1,2.715-2.8,2.537,2.537,0,0,1,2.646,2.677,3.47,3.47,0,0,1-.04.552h-4.157a1.5,1.5,0,0,0,1.55,1.442,1.319,1.319,0,0,0,1.284-.76h1.214a2.486,2.486,0,0,1-2.5,1.708m-1.54-3.3h3.012a1.413,1.413,0,0,0-1.52-1.372,1.482,1.482,0,0,0-1.492,1.372" transform="translate(-41.942 -27.645)" fill="#fff"/>
    <path id="Path_137" data-name="Path 137" d="M249.127,158.969c0-1-.543-1.511-1.363-1.511a1.319,1.319,0,0,0-1.373,1.511v3.041h-1.125V156.57h1.125v.622a2.091,2.091,0,0,1,1.62-.711,2.119,2.119,0,0,1,2.231,2.321v3.209h-1.116Z" transform="translate(-43.33 -27.645)" fill="#fff"/>
    <path id="Path_138" data-name="Path 138" d="M253.131,157.217h-.641V156.3h.641v-1.354h1.136V156.3h1.322v.918h-1.322v3.012c0,.4.157.573.632.573h.691v.938H254.7c-.967,0-1.57-.405-1.57-1.511Z" transform="translate(-44.607 -27.374)" fill="#fff"/>
    <path id="Path_139" data-name="Path 139" d="M259.429,162.1a2.053,2.053,0,0,1-2.272-1.759h1.165a.994.994,0,0,0,1.087.811c.652,0,1-.277,1-.652,0-1.066-3.16-.454-3.16-2.449,0-.869.809-1.57,2.094-1.57a1.865,1.865,0,0,1,2.1,1.748h-1.125a.9.9,0,0,0-1.017-.8c-.6,0-.918.247-.918.612,0,1.1,3.07.484,3.13,2.449,0,.918-.8,1.61-2.083,1.61" transform="translate(-45.431 -27.645)" fill="#fff"/>
    <rect id="Rectangle_133" data-name="Rectangle 133" width="1.125" height="9.025" transform="translate(90.872 126.545)" fill="#fff"/>
    <path id="Path_140" data-name="Path 140" d="M124.189,160.427h-2.873l-.494,1.4h-1.175l2.458-6.872h1.3l2.458,6.872h-1.185Zm-1.432-4.108-1.126,3.19h2.241Z" transform="translate(-21.138 -27.376)" fill="#fff"/>
    <path id="Path_141" data-name="Path 141" d="M130.624,156.207a2.507,2.507,0,0,1,1.876.85v-2.627h1.135v7.307H132.5v-.819a2.255,2.255,0,0,1-1.886.909,2.634,2.634,0,0,1-2.567-2.835,2.591,2.591,0,0,1,2.577-2.785m.227.977a1.669,1.669,0,0,0-1.649,1.807,1.714,1.714,0,0,0,1.649,1.857,1.842,1.842,0,0,0,0-3.664" transform="translate(-22.622 -27.282)" fill="#fff"/>
    <path id="Path_142" data-name="Path 142" d="M137.063,156.7l1.54,4.434,1.54-4.434h1.195l-2.073,5.441h-1.344l-2.063-5.441Z" transform="translate(-24.002 -27.683)" fill="#fff"/>
    <path id="Path_143" data-name="Path 143" d="M143.37,154.79a.716.716,0,1,1,.721.72.713.713,0,0,1-.721-.72m.148,1.442h1.126v5.441h-1.126Z" transform="translate(-25.329 -27.219)" fill="#fff"/>
    <path id="Path_144" data-name="Path 144" d="M148.63,162.207a2.053,2.053,0,0,1-2.272-1.759h1.165a.994.994,0,0,0,1.087.811c.652,0,1-.277,1-.652,0-1.066-3.16-.454-3.16-2.449,0-.869.81-1.57,2.094-1.57a1.865,1.865,0,0,1,2.1,1.748h-1.126a.9.9,0,0,0-1.017-.8c-.6,0-.918.247-.918.612,0,1.1,3.07.484,3.13,2.449,0,.918-.8,1.61-2.083,1.61" transform="translate(-25.857 -27.664)" fill="#fff"/>
    <path id="Path_145" data-name="Path 145" d="M155.407,162.207a2.653,2.653,0,0,1-2.726-2.814,2.776,2.776,0,1,1,5.551,0,2.725,2.725,0,0,1-2.825,2.814m0-.977a1.676,1.676,0,0,0,1.669-1.837,1.646,1.646,0,0,0-1.639-1.827,1.85,1.85,0,0,0-.03,3.664" transform="translate(-26.974 -27.664)" fill="#fff"/>
    <path id="Path_146" data-name="Path 146" d="M161.907,162.118h-1.125v-5.441h1.125v.79a1.772,1.772,0,0,1,1.629-.88v1.166h-.286c-.83,0-1.344.346-1.344,1.5Z" transform="translate(-28.405 -27.664)" fill="#fff"/>
    <path id="Path_147" data-name="Path 147" d="M168.985,156.7h1.165l-3.338,8h-1.165l1.107-2.647-2.142-5.352h1.253l1.531,4.147Z" transform="translate(-29.081 -27.683)" fill="#fff"/>
    <rect id="Rectangle_134" data-name="Rectangle 134" width="1.126" height="9.025" transform="translate(147.354 126.545)" fill="#fff"/>
  </g>
</svg>
