<svg xmlns="http://www.w3.org/2000/svg" width="107.508" height="81.427" viewBox="0 0 107.508 81.427">
  <g id="Group_159" data-name="Group 159" transform="translate(-372.45 -419.45)">
    <g id="Group_140" data-name="Group 140" transform="translate(373 420)">
      <g id="Group_117" data-name="Group 117" transform="translate(0)">
        <g id="Group_114" data-name="Group 114" transform="translate(0)">
          <path id="Path_62" data-name="Path 62" d="M356.6,486.995h2.227V474.418h18.21v-1.572H356.6Z" transform="translate(-355.737 -471.87)" fill="none" stroke="#fff" stroke-miterlimit="10" stroke-width="1.1"/>
          <path id="Path_63" data-name="Path 63" d="M383.955,472.846H397.41v1.576h25.758v-1.576H397.41" transform="translate(-362.658 -471.87)" fill="none" stroke="#fff" stroke-miterlimit="10" stroke-width="1.1"/>
          <path id="Path_64" data-name="Path 64" d="M434.77,472.195v-.656h22.441v2.553h23.157v8.846h-8.475v1.313h8.475v8.594l1.49-.062.062-20.11-24.709-.179" transform="translate(-375.513 -471.539)" fill="none" stroke="#fff" stroke-miterlimit="10" stroke-width="1.1"/>
          <path id="Path_65" data-name="Path 65" d="M473.995,530.939H463.756v1.488h10.239v34.466h-70.55V530.939h1.425v22.275l-1.425.143v3.42h1.425v8.265H471.84V559.2h.9v-14.12l1.25.013" transform="translate(-367.589 -486.566)" fill="none" stroke="#fff" stroke-miterlimit="10" stroke-width="1.1"/>
          <path id="Path_66" data-name="Path 66" d="M495.809,500.06" transform="translate(-390.954 -478.754)" fill="none" stroke="#fff" stroke-width="1.1"/>
          <path id="Path_67" data-name="Path 67" d="M497.8,499.977l.062,23.129v1.487" transform="translate(-391.459 -478.733)" fill="none" stroke="#fff" stroke-miterlimit="10" stroke-width="1.1"/>
          <path id="Path_68" data-name="Path 68" d="M457.426,500.316l3.772-3.772,2.878-.52,4.665,3.642.52,2.731-4.032,4.682-3.382.78-4.422-3.382Z" transform="translate(-381.245 -477.733)" fill="none" stroke="#fff" stroke-miterlimit="10" stroke-width="1.1"/>
          <path id="Path_69" data-name="Path 69" d="M456.475,498.1l2.561-1.9-.187-1.867-1.867-.607-.187-1.167-3.127,2.591,1.447.181-.047,1.849Z" transform="translate(-380.294 -476.856)" fill="none" stroke="#fff" stroke-miterlimit="10" stroke-width="1.1"/>
          <path id="Path_70" data-name="Path 70" d="M459.074,511.222l-2.413-2.088-1.782.587-.187,1.954-1.1.435L456.8,514.6l-.137-1.452,1.815-.355Z" transform="translate(-380.275 -481.05)" fill="none" stroke="#fff" stroke-miterlimit="10" stroke-width="1.1"/>
          <path id="Path_71" data-name="Path 71" d="M471.7,507.774l-2.088,2.413.587,1.782,1.954.187.435,1.1,2.491-3.207-1.452.137-.356-1.815Z" transform="translate(-384.327 -480.706)" fill="none" stroke="#fff" stroke-miterlimit="10" stroke-width="1.1"/>
          <path id="Path_72" data-name="Path 72" d="M468.673,495.115l2.484,2,1.761-.649.12-1.96,1.083-.473-3.292-2.378.188,1.446-1.8.418Z" transform="translate(-384.09 -476.629)" fill="none" stroke="#fff" stroke-miterlimit="10" stroke-width="1.1"/>
          <rect id="Rectangle_106" data-name="Rectangle 106" width="7.399" height="4.789" transform="translate(47.071 15.7)" fill="none" stroke="#fff" stroke-miterlimit="10" stroke-width="1.1"/>
          <path id="Path_73" data-name="Path 73" d="M437.225,491.653c.787-.216,3.778,1.831,3.778,1.831h2.361l-3.07,6.77-1.339-1.575-1.732.315-2.455-1.065Z" transform="translate(-375.513 -476.623)" fill="none" stroke="#fff" stroke-miterlimit="10" stroke-width="1.1"/>
          <path id="Path_74" data-name="Path 74" d="M411.081,506.753h18.95V513h-18.95Z" transform="translate(-369.521 -480.447)" fill="none" stroke="#fff" stroke-miterlimit="10" stroke-width="1.1"/>
          <path id="Path_75" data-name="Path 75" d="M419.116,506.753,419.078,513" transform="translate(-371.543 -480.447)" fill="none" stroke="#fff" stroke-miterlimit="10" stroke-width="1.1"/>
          <path id="Path_76" data-name="Path 76" d="M427.521,506.753,427.482,513" transform="translate(-373.67 -480.447)" fill="none" stroke="#fff" stroke-miterlimit="10" stroke-width="1.1"/>
          <g id="Group_113" data-name="Group 113" transform="translate(35.856 13.002)">
            <path id="Path_77" data-name="Path 77" d="M406.881,488.944V510.7h-3.437V488.944Z" transform="translate(-403.444 -488.944)" fill="none" stroke="#fff" stroke-miterlimit="10" stroke-width="1.1"/>
            <path id="Path_78" data-name="Path 78" d="M406.881,498.167l-3.437-.044" transform="translate(-403.444 -491.266)" fill="none" stroke="#fff" stroke-miterlimit="10" stroke-width="1.1"/>
            <path id="Path_79" data-name="Path 79" d="M406.881,507.814l-3.437-.044" transform="translate(-403.444 -493.706)" fill="none" stroke="#fff" stroke-miterlimit="10" stroke-width="1.1"/>
          </g>
          <path id="Path_80" data-name="Path 80" d="M356.306,491.786h-.86v13.158h1.446v-2l-1.446-.017" transform="translate(-355.446 -476.661)" fill="none" stroke="#fff" stroke-miterlimit="10" stroke-width="1.1"/>
          <rect id="Rectangle_107" data-name="Rectangle 107" width="18.33" height="9.778" transform="translate(1.446 27.164)" fill="none" stroke="#fff" stroke-miterlimit="10" stroke-width="1.1"/>
          <path id="Path_81" data-name="Path 81" d="M373.989,516.837h1.162v-7.23h-15.4v7.081h2.472v1.423H365.9s.037-1.348,0-1.311,2.173,0,2.173,0v1.311H372.3v-.861h1.761Z" transform="translate(-356.536 -481.169)" fill="none" stroke="#fff" stroke-miterlimit="10" stroke-width="1.1"/>
          <path id="Path_82" data-name="Path 82" d="M357.382,520.991v43.385h18.942V537.252h1.215v-5.64h-1.826v-3.19h-1.161V531.7l1.161-.087" transform="translate(-355.936 -484.049)" fill="none" stroke="#fff" stroke-miterlimit="10" stroke-width="1.1"/>
          <path id="Path_83" data-name="Path 83" d="M367.653,520.991v8.693h-2.292v-1.255h.712v-6.817H358.1V528.5l7.257-.068" transform="translate(-356.118 -484.049)" fill="none" stroke="#fff" stroke-miterlimit="10" stroke-width="1.1"/>
          <path id="Path_84" data-name="Path 84" d="M361.887,531v1.388h-1.831v6.783h4.069v-5.63h1.662l.068-1.323" transform="translate(-356.612 -486.58)" fill="none" stroke="#fff" stroke-miterlimit="10" stroke-width="1.1"/>
          <path id="Path_85" data-name="Path 85" d="M376.924,542.55h-1.773v25.14h-15.4v-15h8.585v-2.054h-8.585v-8.7" transform="translate(-356.536 -489.347)" fill="none" stroke="#fff" stroke-miterlimit="10" stroke-width="1.1"/>
        </g>
        <line id="Line_75" data-name="Line 75" x2="15.468" transform="translate(20.388 80.327)" fill="none" stroke="#fff" stroke-miterlimit="10" stroke-width="1.1"/>
        <path id="Path_86" data-name="Path 86" d="M382.739,554.113h7.734v1.705h7.734" transform="translate(-362.351 -492.428)" fill="none" stroke="#fff" stroke-miterlimit="10" stroke-width="1.1"/>
        <path id="Path_87" data-name="Path 87" d="M405.352,567.909h16.532v-1.55h34.2v1.55h16.235" transform="translate(-368.071 -495.526)" fill="none" stroke="#fff" stroke-miterlimit="10" stroke-width="1.1"/>
        <line id="Line_76" data-name="Line 76" x2="58.887" transform="translate(37.281 45.861)" fill="none" stroke="#fff" stroke-miterlimit="10" stroke-width="1.1"/>
      </g>
    </g>
  </g>
</svg>
