<svg xmlns="http://www.w3.org/2000/svg" width="88.533" height="97.3" viewBox="0 0 88.533 97.3">
  <g id="Group_116" data-name="Group 116" transform="translate(-216.839 -436.453)">
    <g id="Group_103" data-name="Group 103" transform="translate(217.239 436.853)">
      <g id="Group_96" data-name="Group 96">
        <path id="Path_3" data-name="Path 3" d="M217.239,532.392V458.384h3.206v-5.1h3.414v-5.824h2.531v-3.736h1.968v-3.655h1.607s-.041-3.213,0-3.213h1.887v3.093h1.688v3.775h1.887V447.5h2.41v6.225h2.691v4.619H244.5v74.052Z" transform="translate(-217.239 -436.853)" fill="none" stroke="#fff" stroke-miterlimit="10" stroke-width="0.8"/>
        <path id="Path_4" data-name="Path 4" d="M244.5,576.374l-27.264.134v-1.927H244.5Z" transform="translate(-217.239 -487.009)" fill="none" stroke="#fff" stroke-miterlimit="10" stroke-width="0.8"/>
        <rect id="Rectangle_92" data-name="Rectangle 92" width="4.788" height="26.199" transform="translate(3.304 58.823)" fill="none" stroke="#fff" stroke-miterlimit="10" stroke-width="0.8"/>
        <line id="Line_6" data-name="Line 6" y2="26.199" transform="translate(5.698 58.823)" fill="none" stroke="#fff" stroke-miterlimit="10" stroke-width="0.8"/>
        <line id="Line_7" data-name="Line 7" x2="4.788" transform="translate(3.304 73.637)" fill="none" stroke="#fff" stroke-miterlimit="10" stroke-width="0.8"/>
        <line id="Line_8" data-name="Line 8" x2="4.788" transform="translate(3.304 64.415)" fill="none" stroke="#fff" stroke-miterlimit="10" stroke-width="0.8"/>
        <path id="Path_5" data-name="Path 5" d="M222.436,524.252l4.636.073a2.212,2.212,0,1,0-4.329.076" transform="translate(-219.132 -467.753)" fill="none" stroke="#fff" stroke-miterlimit="10" stroke-width="0.8"/>
        <path id="Path_6" data-name="Path 6" d="M244.5,515.4l-27.264.134V513.6H244.5Z" transform="translate(-217.239 -464.803)" fill="none" stroke="#fff" stroke-miterlimit="10" stroke-width="0.8"/>
        <rect id="Rectangle_93" data-name="Rectangle 93" width="4.788" height="26.199" transform="translate(11.238 58.931)" fill="none" stroke="#fff" stroke-miterlimit="10" stroke-width="0.8"/>
        <line id="Line_9" data-name="Line 9" y2="26.199" transform="translate(13.632 58.931)" fill="none" stroke="#fff" stroke-miterlimit="10" stroke-width="0.8"/>
        <line id="Line_10" data-name="Line 10" x2="4.788" transform="translate(11.238 73.745)" fill="none" stroke="#fff" stroke-miterlimit="10" stroke-width="0.8"/>
        <line id="Line_11" data-name="Line 11" x2="4.788" transform="translate(11.238 64.523)" fill="none" stroke="#fff" stroke-miterlimit="10" stroke-width="0.8"/>
        <rect id="Rectangle_94" data-name="Rectangle 94" width="4.788" height="26.199" transform="translate(18.949 58.931)" fill="none" stroke="#fff" stroke-miterlimit="10" stroke-width="0.8"/>
        <line id="Line_12" data-name="Line 12" y2="26.199" transform="translate(21.343 58.931)" fill="none" stroke="#fff" stroke-miterlimit="10" stroke-width="0.8"/>
        <line id="Line_13" data-name="Line 13" x2="4.788" transform="translate(18.949 73.745)" fill="none" stroke="#fff" stroke-miterlimit="10" stroke-width="0.8"/>
        <line id="Line_14" data-name="Line 14" x2="4.788" transform="translate(18.949 64.523)" fill="none" stroke="#fff" stroke-miterlimit="10" stroke-width="0.8"/>
        <path id="Path_7" data-name="Path 7" d="M247.041,524.347l4.637.073a2.212,2.212,0,1,0-4.33.076" transform="translate(-228.092 -467.788)" fill="none" stroke="#fff" stroke-miterlimit="10" stroke-width="0.8"/>
        <path id="Path_8" data-name="Path 8" d="M234.739,524.252l4.637.073a2.212,2.212,0,1,0-4.329.076" transform="translate(-223.612 -467.753)" fill="none" stroke="#fff" stroke-miterlimit="10" stroke-width="0.8"/>
        <g id="Group_92" data-name="Group 92" transform="translate(3.304 27.877)">
          <path id="Path_9" data-name="Path 9" d="M222.436,501.262V485.727H226.2v15.536Z" transform="translate(-222.436 -482.528)" fill="none" stroke="#fff" stroke-miterlimit="10" stroke-width="0.8"/>
          <line id="Line_15" data-name="Line 15" x2="3.765" transform="translate(0 6.694)" fill="none" stroke="#fff" stroke-miterlimit="10" stroke-width="0.8"/>
          <line id="Line_16" data-name="Line 16" y2="3.496" transform="translate(1.883 3.199)" fill="none" stroke="#fff" stroke-miterlimit="10" stroke-width="0.8"/>
          <path id="Path_10" data-name="Path 10" d="M222.436,482.572l3.415.053a1.629,1.629,0,1,0-3.189.056" transform="translate(-222.436 -480.696)" fill="none" stroke="#fff" stroke-miterlimit="10" stroke-width="0.8"/>
        </g>
        <g id="Group_93" data-name="Group 93" transform="translate(11.566 8.937)">
          <path id="Path_11" data-name="Path 11" d="M235.43,464.206v-8.691h3.765v8.691Z" transform="translate(-235.43 -452.586)" fill="none" stroke="#fff" stroke-miterlimit="10" stroke-width="0.8"/>
          <line id="Line_17" data-name="Line 17" x2="3.765" transform="translate(0 4.884)" fill="none" stroke="#fff" stroke-miterlimit="10" stroke-width="0.8"/>
          <line id="Line_18" data-name="Line 18" y2="1.956" transform="translate(1.883 2.929)" fill="none" stroke="#fff" stroke-miterlimit="10" stroke-width="0.8"/>
          <path id="Path_12" data-name="Path 12" d="M235.43,453.035l3.415.061a1.96,1.96,0,0,0-1.445-2.182,1.928,1.928,0,0,0-1.745,2.245" transform="translate(-235.43 -450.909)" fill="none" stroke="#fff" stroke-miterlimit="10" stroke-width="0.8"/>
          <path id="Path_13" data-name="Path 13" d="M235.43,462.839H239.5" transform="translate(-235.43 -455.253)" fill="none" stroke="#fff" stroke-miterlimit="10" stroke-width="0.8"/>
        </g>
        <g id="Group_94" data-name="Group 94" transform="translate(19.46 27.877)">
          <path id="Path_14" data-name="Path 14" d="M247.845,501.262V485.727h3.765v15.536Z" transform="translate(-247.845 -482.528)" fill="none" stroke="#fff" stroke-miterlimit="10" stroke-width="0.8"/>
          <line id="Line_19" data-name="Line 19" x2="3.765" transform="translate(0 6.694)" fill="none" stroke="#fff" stroke-miterlimit="10" stroke-width="0.8"/>
          <line id="Line_20" data-name="Line 20" y2="3.496" transform="translate(1.883 3.199)" fill="none" stroke="#fff" stroke-miterlimit="10" stroke-width="0.8"/>
          <path id="Path_15" data-name="Path 15" d="M247.845,482.572l3.416.053a1.629,1.629,0,1,0-3.189.056" transform="translate(-247.845 -480.696)" fill="none" stroke="#fff" stroke-miterlimit="10" stroke-width="0.8"/>
        </g>
        <path id="Path_16" data-name="Path 16" d="M244.5,472.884l-27.264.134v-1.927H244.5Z" transform="translate(-217.239 -449.321)" fill="none" stroke="#fff" stroke-miterlimit="10" stroke-width="0.8"/>
        <g id="Group_95" data-name="Group 95" transform="translate(11.75 27.877)">
          <path id="Path_17" data-name="Path 17" d="M235.718,501.262V485.727h3.765v15.536Z" transform="translate(-235.718 -482.528)" fill="none" stroke="#fff" stroke-miterlimit="10" stroke-width="0.8"/>
          <line id="Line_21" data-name="Line 21" x2="3.765" transform="translate(0 6.694)" fill="none" stroke="#fff" stroke-miterlimit="10" stroke-width="0.8"/>
          <line id="Line_22" data-name="Line 22" y2="3.496" transform="translate(1.883 3.199)" fill="none" stroke="#fff" stroke-miterlimit="10" stroke-width="0.8"/>
          <path id="Path_18" data-name="Path 18" d="M235.718,482.572l3.415.053a1.629,1.629,0,1,0-3.189.056" transform="translate(-235.718 -480.696)" fill="none" stroke="#fff" stroke-miterlimit="10" stroke-width="0.8"/>
        </g>
      </g>
      <path id="Path_19" data-name="Path 19" d="M260.118,465.111c.753-1.728,1.424-2.089,1.887-2.116,1.094-.062,1.567,1.724,3.2,2.071a3.781,3.781,0,0,0,2.611-.63c4.83-2.646,6.959-11.8,4.638-14.468a1.759,1.759,0,0,1-.493-.889c-.263-1.523,2-3.545,4.24-4.133,3.429-.9,7.425,1.4,7.5,3.177.019.459-.238.574-.508,1.525a8.141,8.141,0,0,0-.127,3.431c.75,5.715,1.261,9.6,4.321,11.437a7.952,7.952,0,0,0,5.719.762c-.11,2.009-.144,2.96-.119,3.085h0a.551.551,0,0,1-.008.219c-.027.1-3.713-.025-6.355-.127l-.127-1.652a21,21,0,0,1-2.886-4.615c-2.337-5.127-2.383-10.807-1.817-12.16a1.863,1.863,0,0,0,.079-.733,3.154,3.154,0,0,0-1.388-2.125,3.926,3.926,0,0,0-2.033-.717c-1.714-.1-3.652.921-4.052,2.368a3.019,3.019,0,0,0,.158,1.842c1.21,3.542-.411,9.168-3.262,12.473a12.52,12.52,0,0,1-4.368,3.21l.21,2.315-7.013-.158Z" transform="translate(-232.854 -439.727)" fill="none" stroke="#fff" stroke-miterlimit="10" stroke-width="0.8"/>
      <path id="Path_20" data-name="Path 20" d="M266.242,491.224h4.618v9.38h-4.618v-9.38Z" transform="translate(-235.084 -456.653)" fill="none" stroke="#fff" stroke-miterlimit="10" stroke-width="0.8"/>
      <path id="Path_21" data-name="Path 21" d="M270.86,496.127h-4.618v3.31h4.618" transform="translate(-235.084 -458.438)" fill="none" stroke="#fff" stroke-miterlimit="10" stroke-width="0.8"/>
      <line id="Line_23" data-name="Line 23" y2="9.38" transform="translate(33.467 34.571)" fill="none" stroke="#fff" stroke-miterlimit="10" stroke-width="0.8"/>
      <path id="Path_22" data-name="Path 22" d="M281.126,490.567h4.618v9.38h-4.618v-9.38Z" transform="translate(-240.505 -456.414)" fill="none" stroke="#fff" stroke-miterlimit="10" stroke-width="0.8"/>
      <path id="Path_23" data-name="Path 23" d="M285.744,495.47h-4.618v3.31h4.618" transform="translate(-240.505 -458.199)" fill="none" stroke="#fff" stroke-miterlimit="10" stroke-width="0.8"/>
      <line id="Line_24" data-name="Line 24" y2="9.38" transform="translate(42.931 34.153)" fill="none" stroke="#fff" stroke-miterlimit="10" stroke-width="0.8"/>
      <g id="Group_97" data-name="Group 97" transform="translate(50.673 34.153)">
        <path id="Path_24" data-name="Path 24" d="M296.934,490.567h4.618v9.38h-4.618v-9.38Z" transform="translate(-296.934 -490.567)" fill="none" stroke="#fff" stroke-miterlimit="10" stroke-width="0.8"/>
        <path id="Path_25" data-name="Path 25" d="M301.552,495.47h-4.618v3.31h4.618" transform="translate(-296.934 -492.353)" fill="none" stroke="#fff" stroke-miterlimit="10" stroke-width="0.8"/>
        <line id="Line_25" data-name="Line 25" y2="9.38" transform="translate(2.309)" fill="none" stroke="#fff" stroke-miterlimit="10" stroke-width="0.8"/>
      </g>
      <g id="Group_102" data-name="Group 102" transform="translate(31.02 49.261)">
        <path id="Path_26" data-name="Path 26" d="M296.934,514.328h5.622v13.98h-5.622v-13.98Z" transform="translate(-277.282 -514.328)" fill="none" stroke="#fff" stroke-miterlimit="10" stroke-width="0.8"/>
        <path id="Path_27" data-name="Path 27" d="M302.556,521.442h-5.622v3.514h5.622" transform="translate(-277.282 -516.919)" fill="none" stroke="#fff" stroke-miterlimit="10" stroke-width="0.8"/>
        <line id="Line_26" data-name="Line 26" y2="13.98" transform="translate(22.463)" fill="none" stroke="#fff" stroke-miterlimit="10" stroke-width="0.8"/>
        <line id="Line_27" data-name="Line 27" x2="5.897" transform="translate(19.653 11.107)" fill="none" stroke="#fff" stroke-miterlimit="10" stroke-width="0.8"/>
        <g id="Group_98" data-name="Group 98" transform="translate(9.601)">
          <path id="Path_28" data-name="Path 28" d="M281.126,514.328h5.622v13.98h-5.622v-13.98Z" transform="translate(-281.126 -514.328)" fill="none" stroke="#fff" stroke-miterlimit="10" stroke-width="0.8"/>
          <path id="Path_29" data-name="Path 29" d="M286.748,521.442h-5.622v3.514h5.622" transform="translate(-281.126 -516.919)" fill="none" stroke="#fff" stroke-miterlimit="10" stroke-width="0.8"/>
          <line id="Line_28" data-name="Line 28" y2="13.98" transform="translate(2.811)" fill="none" stroke="#fff" stroke-miterlimit="10" stroke-width="0.8"/>
          <line id="Line_29" data-name="Line 29" x2="5.897" transform="translate(0 11.107)" fill="none" stroke="#fff" stroke-miterlimit="10" stroke-width="0.8"/>
        </g>
        <g id="Group_99" data-name="Group 99" transform="translate(0.137)">
          <path id="Path_30" data-name="Path 30" d="M266.242,514.328h5.622v13.98h-5.622v-13.98Z" transform="translate(-266.242 -514.328)" fill="none" stroke="#fff" stroke-miterlimit="10" stroke-width="0.8"/>
          <path id="Path_31" data-name="Path 31" d="M271.864,521.442h-5.622v3.514h5.622" transform="translate(-266.242 -516.919)" fill="none" stroke="#fff" stroke-miterlimit="10" stroke-width="0.8"/>
          <line id="Line_30" data-name="Line 30" y2="13.98" transform="translate(2.811)" fill="none" stroke="#fff" stroke-miterlimit="10" stroke-width="0.8"/>
          <line id="Line_31" data-name="Line 31" x2="5.897" transform="translate(0 11.107)" fill="none" stroke="#fff" stroke-miterlimit="10" stroke-width="0.8"/>
        </g>
        <g id="Group_100" data-name="Group 100" transform="translate(0 20.661)">
          <path id="Path_32" data-name="Path 32" d="M266.026,546.823h6.607v16.7h-6.607v-16.7Z" transform="translate(-266.026 -546.823)" fill="none" stroke="#fff" stroke-miterlimit="10" stroke-width="0.8"/>
          <path id="Path_33" data-name="Path 33" d="M272.633,555.319h-6.607v4.2h6.607" transform="translate(-266.026 -549.917)" fill="none" stroke="#fff" stroke-miterlimit="10" stroke-width="0.8"/>
          <line id="Line_32" data-name="Line 32" y2="16.696" transform="translate(3.304)" fill="none" stroke="#fff" stroke-miterlimit="10" stroke-width="0.8"/>
          <line id="Line_33" data-name="Line 33" x2="6.931" transform="translate(0 13.265)" fill="none" stroke="#fff" stroke-miterlimit="10" stroke-width="0.8"/>
        </g>
        <g id="Group_101" data-name="Group 101" transform="translate(9.601 20.661)">
          <path id="Path_34" data-name="Path 34" d="M281.126,546.823h6.3v16.7h-6.3v-16.7Z" transform="translate(-281.126 -546.823)" fill="none" stroke="#fff" stroke-miterlimit="10" stroke-width="0.8"/>
          <path id="Path_35" data-name="Path 35" d="M287.426,555.319h-6.3v4.2h6.3" transform="translate(-281.126 -549.917)" fill="none" stroke="#fff" stroke-miterlimit="10" stroke-width="0.8"/>
          <line id="Line_34" data-name="Line 34" y2="16.696" transform="translate(3.15)" fill="none" stroke="#fff" stroke-miterlimit="10" stroke-width="0.8"/>
          <line id="Line_35" data-name="Line 35" x2="6.607" transform="translate(0 13.265)" fill="none" stroke="#fff" stroke-miterlimit="10" stroke-width="0.8"/>
        </g>
      </g>
      <rect id="Rectangle_95" data-name="Rectangle 95" width="5.502" height="7.661" transform="translate(41.9 22.201)" fill="none" stroke="#fff" stroke-miterlimit="10" stroke-width="0.8"/>
      <path id="Path_36" data-name="Path 36" d="M288.358,478.608h-2.811V473.7h2.811Z" transform="translate(-242.114 -450.271)" fill="none" stroke="#fff" stroke-miterlimit="10" stroke-width="0.8"/>
      <path id="Path_37" data-name="Path 37" d="M287.757,478.607V473.7" transform="translate(-242.919 -450.271)" fill="none" stroke="#fff" stroke-miterlimit="10" stroke-width="0.8"/>
      <path id="Path_38" data-name="Path 38" d="M292.979,481.892q.6,33.883,1.2,67.767H260.118v-.865" transform="translate(-232.854 -453.255)" fill="none" stroke="#fff" stroke-miterlimit="10" stroke-width="0.8"/>
      <rect id="Rectangle_96" data-name="Rectangle 96" width="8.922" height="22.188" transform="translate(48.951 69.923)" fill="none" stroke="#fff" stroke-miterlimit="10" stroke-width="0.8"/>
      <rect id="Rectangle_97" data-name="Rectangle 97" width="6.78" height="5.442" transform="translate(50.2 71.234)" fill="none" stroke="#fff" stroke-miterlimit="10" stroke-width="0.8"/>
      <path id="Path_39" data-name="Path 39" d="M296.19,551.607l3.39-2.721,3.39,2.721-3.359,2.721Z" transform="translate(-245.99 -477.652)" fill="none" stroke="#fff" stroke-miterlimit="10" stroke-width="0.8"/>
      <line id="Line_36" data-name="Line 36" y2="15.434" transform="translate(50.2 76.677)" fill="none" stroke="#fff" stroke-miterlimit="10" stroke-width="0.8"/>
      <line id="Line_37" data-name="Line 37" y2="15.434" transform="translate(56.98 76.677)" fill="none" stroke="#fff" stroke-miterlimit="10" stroke-width="0.8"/>
      <line id="Line_38" data-name="Line 38" y1="5.453" transform="translate(39.315 90.951)" fill="none" stroke="#fff" stroke-miterlimit="10" stroke-width="0.8"/>
      <line id="Line_39" data-name="Line 39" x2="27.264" y2="0.865" transform="translate(0 95.539)" fill="none" stroke="#fff" stroke-miterlimit="10" stroke-width="0.8"/>
      <path id="Path_40" data-name="Path 40" d="M279.072,578.574l9.635-5.492h12.2" transform="translate(-239.756 -486.463)" fill="none" stroke="#fff" stroke-miterlimit="10" stroke-width="0.8"/>
      <path id="Path_41" data-name="Path 41" d="M287.272,586.013v-4.293h16.793" transform="translate(-242.742 -489.608)" fill="none" stroke="#fff" stroke-miterlimit="10" stroke-width="0.8"/>
      <line id="Line_40" data-name="Line 40" y2="5.492" transform="translate(52.926 86.619)" fill="none" stroke="#fff" stroke-miterlimit="10" stroke-width="0.8"/>
      <line id="Line_41" data-name="Line 41" y1="2.972" transform="translate(44.529 89.139)" fill="none" stroke="#fff" stroke-miterlimit="10" stroke-width="0.8"/>
      <line id="Line_42" data-name="Line 42" y1="5.967" transform="translate(42.252 90.437)" fill="none" stroke="#fff" stroke-miterlimit="10" stroke-width="0.8"/>
      <line id="Line_43" data-name="Line 43" y1="5.657" transform="translate(60.244 19.896)" fill="none" stroke="#fff" stroke-miterlimit="10" stroke-width="0.8"/>
    </g>
    <g id="Group_110" data-name="Group 110" transform="translate(277.483 442.021)">
      <path id="Path_42" data-name="Path 42" d="M311.987,459.709a4.706,4.706,0,0,0,2.564-.705,7.64,7.64,0,0,0,2.054-2.712,12.079,12.079,0,0,1,3.131-3.4c.193-.143.083-1.625.092-1.947a8.265,8.265,0,0,1,.249-2.361,5.583,5.583,0,0,1,5.863-3.563c2.44.317,3.709,2.1,4.8,4.093a5.687,5.687,0,0,1,.457,2.63,12.663,12.663,0,0,0,.151,2.218,3.274,3.274,0,0,0,2.728,1.868c.6.066,1.3.022,1.693.479.327.381.286.943.41,1.429a2.075,2.075,0,0,0,.973,1.277,10.925,10.925,0,0,0,1.263.482,1.652,1.652,0,0,1,1.04,1.82v74.994H313.065" transform="translate(-311.987 -444.981)" fill="none" stroke="#fff" stroke-miterlimit="10" stroke-width="0.8"/>
      <path id="Path_43" data-name="Path 43" d="M311.987,465.811h7.888q-.015-4.609-.03-9.218" transform="translate(-311.987 -449.21)" fill="none" stroke="#fff" stroke-miterlimit="10" stroke-width="0.8"/>
      <path id="Path_44" data-name="Path 44" d="M344.243,463.021h-9.405V449.654h-9.717" transform="translate(-316.77 -446.683)" fill="none" stroke="#fff" stroke-miterlimit="10" stroke-width="0.8"/>
      <circle id="Ellipse_9" data-name="Ellipse 9" cx="0.957" cy="0.957" r="0.957" transform="translate(11.828 4.728)" fill="none" stroke="#fff" stroke-miterlimit="10" stroke-width="0.8"/>
      <circle id="Ellipse_10" data-name="Ellipse 10" cx="1.691" cy="1.691" r="1.691" transform="translate(2.614 21.219)" fill="none" stroke="#fff" stroke-miterlimit="10" stroke-width="0.8"/>
      <circle id="Ellipse_11" data-name="Ellipse 11" cx="1.68" cy="1.68" r="1.68" transform="translate(20.252 20.864)" fill="none" stroke="#fff" stroke-miterlimit="10" stroke-width="0.8"/>
      <path id="Path_45" data-name="Path 45" d="M329.1,458.45h3.875v4.706H329.1Z" transform="translate(-318.218 -449.886)" fill="none" stroke="#fff" stroke-miterlimit="10" stroke-width="0.8"/>
      <line id="Line_44" data-name="Line 44" y1="4.706" transform="translate(12.817 8.564)" fill="none" stroke="#fff" stroke-miterlimit="10" stroke-width="0.8"/>
      <rect id="Rectangle_98" data-name="Rectangle 98" width="9.196" height="9.992" transform="translate(8.351 20.864)" fill="none" stroke="#fff" stroke-miterlimit="10" stroke-width="0.8"/>
      <path id="Path_46" data-name="Path 46" d="M327.26,479.5v7.918h6.763V479.5H327.26Z" transform="translate(-317.549 -457.551)" fill="none" stroke="#fff" stroke-miterlimit="10" stroke-width="0.8"/>
      <path id="Path_47" data-name="Path 47" d="M330.59,487.417V479.5h2.337v7.918" transform="translate(-318.762 -457.551)" fill="none" stroke="#fff" stroke-miterlimit="10" stroke-width="0.8"/>
      <line id="Line_45" data-name="Line 45" x2="6.763" transform="translate(9.711 27.655)" fill="none" stroke="#fff" stroke-miterlimit="10" stroke-width="0.8"/>
      <line id="Line_46" data-name="Line 46" x2="6.763" transform="translate(9.711 24.695)" fill="none" stroke="#fff" stroke-miterlimit="10" stroke-width="0.8"/>
      <g id="Group_104" data-name="Group 104" transform="translate(2.614 34.175)">
        <rect id="Rectangle_99" data-name="Rectangle 99" width="5.273" height="7.815" fill="none" stroke="#fff" stroke-miterlimit="10" stroke-width="0.8"/>
        <path id="Path_48" data-name="Path 48" d="M317.661,500.676v4.6h3.217v-4.6h-3.217Z" transform="translate(-316.668 -499.439)" fill="none" stroke="#fff" stroke-miterlimit="10" stroke-width="0.8"/>
        <line id="Line_47" data-name="Line 47" y1="4.598" transform="translate(2.637 1.238)" fill="none" stroke="#fff" stroke-miterlimit="10" stroke-width="0.8"/>
        <line id="Line_48" data-name="Line 48" x2="3.217" transform="translate(0.993 2.701)" fill="none" stroke="#fff" stroke-miterlimit="10" stroke-width="0.8"/>
        <line id="Line_49" data-name="Line 49" x2="3.217" transform="translate(0.993 4.19)" fill="none" stroke="#fff" stroke-miterlimit="10" stroke-width="0.8"/>
      </g>
      <g id="Group_105" data-name="Group 105" transform="translate(11.106 33.804)">
        <rect id="Rectangle_100" data-name="Rectangle 100" width="5.273" height="7.815" fill="none" stroke="#fff" stroke-miterlimit="10" stroke-width="0.8"/>
        <path id="Path_49" data-name="Path 49" d="M331.016,500.093v4.6h3.217v-4.6h-3.217Z" transform="translate(-330.023 -498.855)" fill="none" stroke="#fff" stroke-miterlimit="10" stroke-width="0.8"/>
        <line id="Line_50" data-name="Line 50" y1="4.598" transform="translate(2.637 1.238)" fill="none" stroke="#fff" stroke-miterlimit="10" stroke-width="0.8"/>
        <line id="Line_51" data-name="Line 51" x2="3.217" transform="translate(0.993 2.701)" fill="none" stroke="#fff" stroke-miterlimit="10" stroke-width="0.8"/>
        <line id="Line_52" data-name="Line 52" x2="3.217" transform="translate(0.993 4.19)" fill="none" stroke="#fff" stroke-miterlimit="10" stroke-width="0.8"/>
      </g>
      <g id="Group_106" data-name="Group 106" transform="translate(19.295 34.087)">
        <rect id="Rectangle_101" data-name="Rectangle 101" width="5.273" height="7.815" fill="none" stroke="#fff" stroke-miterlimit="10" stroke-width="0.8"/>
        <path id="Path_50" data-name="Path 50" d="M343.895,500.537v4.6h3.217v-4.6h-3.217Z" transform="translate(-342.902 -499.299)" fill="none" stroke="#fff" stroke-miterlimit="10" stroke-width="0.8"/>
        <line id="Line_53" data-name="Line 53" y1="4.598" transform="translate(2.637 1.238)" fill="none" stroke="#fff" stroke-miterlimit="10" stroke-width="0.8"/>
        <line id="Line_54" data-name="Line 54" x2="3.217" transform="translate(0.993 2.701)" fill="none" stroke="#fff" stroke-miterlimit="10" stroke-width="0.8"/>
        <line id="Line_55" data-name="Line 55" x2="3.217" transform="translate(0.993 4.19)" fill="none" stroke="#fff" stroke-miterlimit="10" stroke-width="0.8"/>
      </g>
      <rect id="Rectangle_102" data-name="Rectangle 102" width="4.838" height="10.603" transform="translate(3.05 44.597)" fill="none" stroke="#fff" stroke-miterlimit="10" stroke-width="0.8"/>
      <path id="Path_51" data-name="Path 51" d="M318.758,516.636h2.519v8.2h-2.519Z" transform="translate(-314.453 -471.075)" fill="none" stroke="#fff" stroke-miterlimit="10" stroke-width="0.8"/>
      <line id="Line_56" data-name="Line 56" y1="0.102" x2="2.519" transform="translate(4.305 48.035)" fill="none" stroke="#fff" stroke-miterlimit="10" stroke-width="0.8"/>
      <line id="Line_57" data-name="Line 57" x2="2.519" transform="translate(4.305 51.084)" fill="none" stroke="#fff" stroke-miterlimit="10" stroke-width="0.8"/>
      <rect id="Rectangle_103" data-name="Rectangle 103" width="4.838" height="10.603" transform="translate(12.212 44.36)" fill="none" stroke="#fff" stroke-miterlimit="10" stroke-width="0.8"/>
      <path id="Path_52" data-name="Path 52" d="M333.167,516.263h2.519v8.2h-2.519Z" transform="translate(-319.7 -470.939)" fill="none" stroke="#fff" stroke-miterlimit="10" stroke-width="0.8"/>
      <line id="Line_58" data-name="Line 58" y1="0.102" x2="2.519" transform="translate(13.467 47.798)" fill="none" stroke="#fff" stroke-miterlimit="10" stroke-width="0.8"/>
      <line id="Line_59" data-name="Line 59" x2="2.519" transform="translate(13.467 50.846)" fill="none" stroke="#fff" stroke-miterlimit="10" stroke-width="0.8"/>
      <rect id="Rectangle_104" data-name="Rectangle 104" width="4.838" height="10.603" transform="translate(19.513 44.123)" fill="none" stroke="#fff" stroke-miterlimit="10" stroke-width="0.8"/>
      <path id="Path_53" data-name="Path 53" d="M344.649,515.89h2.519v8.2h-2.519Z" transform="translate(-323.881 -470.803)" fill="none" stroke="#fff" stroke-miterlimit="10" stroke-width="0.8"/>
      <line id="Line_60" data-name="Line 60" y1="0.102" x2="2.519" transform="translate(20.768 47.561)" fill="none" stroke="#fff" stroke-miterlimit="10" stroke-width="0.8"/>
      <line id="Line_61" data-name="Line 61" x2="2.519" transform="translate(20.768 50.609)" fill="none" stroke="#fff" stroke-miterlimit="10" stroke-width="0.8"/>
      <g id="Group_109" data-name="Group 109" transform="translate(0.48 57.353)">
        <path id="Path_54" data-name="Path 54" d="M318.529,544.687V552.8H322.2v-8.112h-3.672Z" transform="translate(-314.849 -538.643)" fill="none" stroke="#fff" stroke-miterlimit="10" stroke-width="0.8"/>
        <line id="Line_62" data-name="Line 62" y1="8.112" transform="translate(5.556 6.044)" fill="none" stroke="#fff" stroke-miterlimit="10" stroke-width="0.8"/>
        <line id="Line_63" data-name="Line 63" x2="3.672" transform="translate(3.68 8.626)" fill="none" stroke="#fff" stroke-miterlimit="10" stroke-width="0.8"/>
        <line id="Line_64" data-name="Line 64" x2="3.672" transform="translate(3.68 11.252)" fill="none" stroke="#fff" stroke-miterlimit="10" stroke-width="0.8"/>
        <g id="Group_107" data-name="Group 107" transform="translate(10.627 6.044)">
          <path id="Path_55" data-name="Path 55" d="M329.454,544.687V552.8h3.672v-8.112h-3.672Z" transform="translate(-329.454 -544.687)" fill="none" stroke="#fff" stroke-miterlimit="10" stroke-width="0.8"/>
          <line id="Line_65" data-name="Line 65" y1="8.112" transform="translate(1.876)" fill="none" stroke="#fff" stroke-miterlimit="10" stroke-width="0.8"/>
          <line id="Line_66" data-name="Line 66" x2="3.672" transform="translate(0 2.582)" fill="none" stroke="#fff" stroke-miterlimit="10" stroke-width="0.8"/>
          <line id="Line_67" data-name="Line 67" x2="3.672" transform="translate(0 5.209)" fill="none" stroke="#fff" stroke-miterlimit="10" stroke-width="0.8"/>
        </g>
        <g id="Group_108" data-name="Group 108" transform="translate(16.979 5.313)">
          <path id="Path_56" data-name="Path 56" d="M339.445,543.538v8.112h3.672v-8.112h-3.672Z" transform="translate(-339.445 -543.538)" fill="none" stroke="#fff" stroke-miterlimit="10" stroke-width="0.8"/>
          <line id="Line_68" data-name="Line 68" y1="8.112" transform="translate(1.876)" fill="none" stroke="#fff" stroke-miterlimit="10" stroke-width="0.8"/>
          <line id="Line_69" data-name="Line 69" x2="3.672" transform="translate(0 2.582)" fill="none" stroke="#fff" stroke-miterlimit="10" stroke-width="0.8"/>
          <line id="Line_70" data-name="Line 70" x2="3.672" transform="translate(0 5.209)" fill="none" stroke="#fff" stroke-miterlimit="10" stroke-width="0.8"/>
        </g>
        <rect id="Rectangle_105" data-name="Rectangle 105" width="27.007" height="1.421" fill="none" stroke="#fff" stroke-miterlimit="10" stroke-width="0.8"/>
        <path id="Path_57" data-name="Path 57" d="M332.405,578.8V561.919h10.719V578.9" transform="translate(-319.902 -544.919)" fill="none" stroke="#fff" stroke-miterlimit="10" stroke-width="0.8"/>
        <path id="Path_58" data-name="Path 58" d="M335.229,565.18h7.249v8.843h-7.249V565.18Z" transform="translate(-320.931 -546.106)" fill="none" stroke="#fff" stroke-miterlimit="10" stroke-width="0.8"/>
        <path id="Path_59" data-name="Path 59" d="M342.478,569.582h-7.249v3.179h7.154Z" transform="translate(-320.931 -547.709)" fill="none" stroke="#fff" stroke-miterlimit="10" stroke-width="0.8"/>
        <line id="Line_71" data-name="Line 71" y2="8.843" transform="translate(17.537 19.074)" fill="none" stroke="#fff" stroke-miterlimit="10" stroke-width="0.8"/>
        <path id="Path_60" data-name="Path 60" d="M317.41,578.972V562.386h6.307v16.682" transform="translate(-314.442 -545.088)" fill="none" stroke="#fff" stroke-miterlimit="10" stroke-width="0.8"/>
        <path id="Path_61" data-name="Path 61" d="M319.366,565.18h4v9.356h-4Z" transform="translate(-315.154 -546.106)" fill="none" stroke="#fff" stroke-miterlimit="10" stroke-width="0.8"/>
        <line id="Line_72" data-name="Line 72" y1="9.356" transform="translate(6.345 19.074)" fill="none" stroke="#fff" stroke-miterlimit="10" stroke-width="0.8"/>
        <line id="Line_73" data-name="Line 73" x2="3.997" transform="translate(4.212 22.609)" fill="none" stroke="#fff" stroke-miterlimit="10" stroke-width="0.8"/>
      </g>
      <line id="Line_74" data-name="Line 74" x2="3.997" transform="translate(4.692 82.991)" fill="none" stroke="#fff" stroke-miterlimit="10" stroke-width="0.8"/>
    </g>
  </g>
</svg>
