<svg xmlns="http://www.w3.org/2000/svg" width="56.994" height="96.41" viewBox="0 0 56.994 96.41">
  <g id="Group_157" data-name="Group 157" transform="translate(-906.281 -412.136)">
    <g id="Group_144" data-name="Group 144" transform="translate(839.924 395.547)">
      <g id="Group_138" data-name="Group 138" transform="translate(67.076 17.453)">
        <path id="Path_88" data-name="Path 88" d="M163.03,364.774c-2.351-.05-4.251-.159-5.523-.246-2.759-.186-4.572-.407-7,.185-2.3.561-2.733,1.263-2.884,1.657a2.917,2.917,0,0,0,.675,2.578c.826.974,2.421,1.617,3.315.983.438-.313.753-.965.552-1.35-.313-.6-1.882-.576-2.946.061a2.419,2.419,0,0,0-.491,4.05c.777.7,2.13,1.037,2.823.429a1.112,1.112,0,0,0,.369-1.227c-.3-.489-1.467-.419-2.209.061a2.462,2.462,0,0,0,1.657,4.481c.768-.135,1.561-.794,1.473-1.289-.1-.559-1.333-.949-2.271-.675a2.76,2.76,0,0,0-1.78,3.007c.353,1.852,3.077,2.752,4.173,2.025a1.2,1.2,0,0,0,.552-1.227c-.25-.718-1.9-1.057-2.885-.429a2.744,2.744,0,0,0-1.042,2.517c.314,3.4,6.7,5.062,8.468,5.524a8.928,8.928,0,0,0,4.419,0c.437-.12,1.677-.46,1.719-1.044.012-.169-.076-.371-.387-.632-.954-.8-2.39-.78-3.664-.779-3.859,0-4.832-.163-5.694.682a1.245,1.245,0,0,0-.488.877c.047,1.147,2.877,1.835,3.753,2.047a7.792,7.792,0,0,0,4.971.049,8.84,8.84,0,0,0,2.389-1.755c3.824-3.242,5.033-4.5,5.6-6.288.341-1.066.189-1.487,0-1.706-.515-.6-1.936-.414-2.1.049-.12.345.427.957,1.023,1.121a2.178,2.178,0,0,0,2.34-1.414c.521-1.479-1.112-3.441-2.632-3.559-.781-.059-1.663.358-1.657.683.006.357,1.088.749,2.046.634a2.531,2.531,0,0,0,2.1-1.413,2.4,2.4,0,0,0-1.414-2.778c-.784-.329-1.883-.191-2.047.243a.577.577,0,0,0,.2.586c.57.49,2.365.035,2.973-1.22a2.571,2.571,0,0,0-.438-2.681c-.74-.881-2.147-1.323-2.73-.828a.791.791,0,0,0-.243.877c.243.467,1.345.437,2.1.1a2.292,2.292,0,0,0,1.463-2c-.111-1.177-1.818-1.755-2.535-2a8.273,8.273,0,0,0-2.486-.341,36.755,36.755,0,0,0-3.9-.2,87.416,87.416,0,0,1-10.09-.292c-2.973-.4-4.484-.631-5.654-1.8-1.366-1.368-1.891-3.457-2.346-5.267-.378-1.5-.266-1.8-.576-3.159a18.559,18.559,0,0,0-2.394-5.65A158.8,158.8,0,0,1,134.066,332c-1.332-3.206-4.063-9.781-2.614-17.648a27.578,27.578,0,0,1,9.967-16.176c9.692-7.487,20.837-5.374,23.039-4.9a27.976,27.976,0,0,1,17.156,11.11c.41.59,7.056,10.453,4.248,20.916-.444,1.654-2.584,5.9-6.862,14.378-2.7,5.358-3.223,6.076-3.6,8.171-.672,3.775.123,6.453-1.8,10.293a7.081,7.081,0,0,1-2.288,2.942c-.757.5-1.35.612-6.956.617-11.591.009-7.462-.468-7.586-.454a1.531,1.531,0,0,1-1.066-.2c-.786-.553-.627-2.015-.574-2.6.379-4.125-.176-8.287-.076-12.428.032-1.336.044-2.136.618-2.883.782-1.018,1.755-.826,4.049-2.266,1.57-.984,1.839-1.529,1.923-1.716.307-.689.1-1.049.069-2.883a8.742,8.742,0,0,1,.206-3.09c.638-1.582,2.023-1.8,1.922-2.677-.1-.921-1.7-1.438-1.922-1.509-.826-.268-1.27-.115-3.982-.207-.8-.026-.925-.045-1.1-.137-.9-.479-.887-1.791-1.167-3.706-.4-2.749-.6-4.126-1.511-5.011a5.183,5.183,0,0,0-3.912-1.1c-.336.019-1.778.1-1.923.687-.106.427.535.926.755,1.1,1.7,1.327,4.83,1,7.894.755,9.742-.766,8.881.163,10.84-.406.388-.113,1.6-.49,2.134.063a1.613,1.613,0,0,1,.206,1.372,79.141,79.141,0,0,1-3.157,9.816c-1.31,3.6-1.364,5.561-3.364,7.346a2.91,2.91,0,0,1-2.2.961c-1.253-.133-2.219-1.529-2.609-2.677-.816-2.411.738-4.226-.411-5.423a3.673,3.673,0,0,0-1.511-.892c-.86-.259-1.456-.07-1.579-.344-.133-.3.4-.907.962-1.235a3.129,3.129,0,0,1,3.638.411c.286.305.489.7.617,2.814.172,2.828.244,4.264-.411,5.354-.171.283-1.1,1.831-2.54,1.923-.692.044-1.681-.237-3.3-2.266-2.223-2.8-2.72-5.251-4.049-8.786a55.027,55.027,0,0,0-2.815-6.246" transform="translate(-131.04 -292.638)" fill="none" stroke="#fff" stroke-miterlimit="10" stroke-width="1.5"/>
      </g>
    </g>
  </g>
</svg>
