<svg xmlns="http://www.w3.org/2000/svg" width="143.141" height="108.229" viewBox="0 0 143.141 108.229">
  <g id="Group_115" data-name="Group 115" transform="translate(-355.096 -471.189)">
    <g id="Group_114" data-name="Group 114">
      <path id="Path_62" data-name="Path 62" d="M356.6,491.786h2.981V474.951h24.377v-2.1H356.6Z" fill="none" stroke="#000" stroke-miterlimit="10" stroke-width="0.7"/>
      <path id="Path_63" data-name="Path 63" d="M383.955,472.846h18.012v2.11h34.481v-2.11H401.967" fill="none" stroke="#000" stroke-miterlimit="10" stroke-width="0.7"/>
      <path id="Path_64" data-name="Path 64" d="M434.77,472.417v-.878h30.04v3.417h31V486.8H484.464v1.758h11.345v11.5l1.994-.083.083-26.92-33.076-.24" fill="none" stroke="#000" stroke-miterlimit="10" stroke-width="0.7"/>
      <path id="Path_65" data-name="Path 65" d="M497.886,530.939H484.18v1.991h13.706v46.138H403.444v-48.13h1.907v29.818l-1.907.191v4.578h1.907v11.063H495v-7.821h1.21v-18.9l1.674.017" fill="none" stroke="#000" stroke-miterlimit="10" stroke-width="0.7"/>
      <path id="Path_66" data-name="Path 66" d="M495.809,500.06" fill="none" stroke="#000" stroke-width="0.7"/>
      <path id="Path_67" data-name="Path 67" d="M497.8,499.977l.083,30.962v1.991" fill="none" stroke="#000" stroke-miterlimit="10" stroke-width="0.7"/>
      <path id="Path_68" data-name="Path 68" d="M457.426,501.77l5.049-5.049,3.853-.7,6.245,4.875.7,3.656-5.4,6.268-4.527,1.045-5.92-4.527Z" fill="none" stroke="#000" stroke-miterlimit="10" stroke-width="0.7"/>
      <path id="Path_69" data-name="Path 69" d="M457.426,499.977l3.429-2.547-.25-2.5-2.5-.812-.25-1.562-4.187,3.468,1.937.242-.062,2.476Z" fill="none" stroke="#000" stroke-miterlimit="10" stroke-width="0.7"/>
      <path id="Path_70" data-name="Path 70" d="M460.93,511.929l-3.23-2.795-2.386.786-.251,2.616-1.471.583,4.294,3.335-.184-1.943,2.43-.476Z" fill="none" stroke="#000" stroke-miterlimit="10" stroke-width="0.7"/>
      <path id="Path_71" data-name="Path 71" d="M472.4,507.774,469.61,511l.786,2.386,2.616.251.583,1.471,3.335-4.294-1.943.184-.476-2.43Z" fill="none" stroke="#000" stroke-miterlimit="10" stroke-width="0.7"/>
      <path id="Path_72" data-name="Path 72" d="M468.673,496.286,472,498.967l2.357-.868.16-2.623,1.45-.633-4.407-3.184.251,1.936-2.412.56Z" fill="none" stroke="#000" stroke-miterlimit="10" stroke-width="0.7"/>
      <rect id="Rectangle_106" data-name="Rectangle 106" width="9.905" height="6.411" transform="translate(418.457 492.556)" fill="none" stroke="#000" stroke-miterlimit="10" stroke-width="0.7"/>
      <path id="Path_73" data-name="Path 73" d="M438.056,491.658c1.054-.289,5.058,2.451,5.058,2.451h3.161l-4.109,9.062-1.792-2.108-2.318.422-3.286-1.425Z" fill="none" stroke="#000" stroke-miterlimit="10" stroke-width="0.7"/>
      <path id="Path_74" data-name="Path 74" d="M411.081,506.753h25.367v8.358H411.081Z" fill="none" stroke="#000" stroke-miterlimit="10" stroke-width="0.7"/>
      <path id="Path_75" data-name="Path 75" d="M419.129,506.753l-.051,8.358" fill="none" stroke="#000" stroke-miterlimit="10" stroke-width="0.7"/>
      <path id="Path_76" data-name="Path 76" d="M427.534,506.753l-.052,8.358" fill="none" stroke="#000" stroke-miterlimit="10" stroke-width="0.7"/>
      <g id="Group_113" data-name="Group 113">
        <path id="Path_77" data-name="Path 77" d="M408.045,488.944v29.118h-4.6V488.944Z" fill="none" stroke="#000" stroke-miterlimit="10" stroke-width="0.7"/>
        <path id="Path_78" data-name="Path 78" d="M408.045,498.182l-4.6-.059" fill="none" stroke="#000" stroke-miterlimit="10" stroke-width="0.7"/>
        <path id="Path_79" data-name="Path 79" d="M408.045,507.829l-4.6-.059" fill="none" stroke="#000" stroke-miterlimit="10" stroke-width="0.7"/>
      </g>
      <path id="Path_80" data-name="Path 80" d="M356.6,491.786h-1.151V509.4h1.936v-2.68l-1.936-.023" fill="none" stroke="#000" stroke-miterlimit="10" stroke-width="0.7"/>
      <rect id="Rectangle_107" data-name="Rectangle 107" width="24.538" height="13.089" transform="translate(357.382 507.902)" fill="none" stroke="#000" stroke-miterlimit="10" stroke-width="0.7"/>
      <path id="Path_81" data-name="Path 81" d="M378.81,519.286h1.555v-9.679H359.754v9.479h3.309v1.905h4.915s.05-1.805,0-1.755,2.909,0,2.909,0v1.755h5.667v-1.153h2.357Z" fill="none" stroke="#000" stroke-miterlimit="10" stroke-width="0.7"/>
      <path id="Path_82" data-name="Path 82" d="M357.382,520.991v58.077h25.357v-36.31h1.626v-7.549H381.92v-4.27h-1.555v4.386l1.555-.116" fill="none" stroke="#000" stroke-miterlimit="10" stroke-width="0.7"/>
      <path id="Path_83" data-name="Path 83" d="M370.887,520.991v11.636h-3.068v-1.68h.953v-9.125H358.1v9.216l9.715-.091" fill="none" stroke="#000" stroke-miterlimit="10" stroke-width="0.7"/>
      <path id="Path_84" data-name="Path 84" d="M362.507,531v1.858h-2.451v9.08H365.5V534.4h2.225l.091-1.771" fill="none" stroke="#000" stroke-miterlimit="10" stroke-width="0.7"/>
      <path id="Path_85" data-name="Path 85" d="M382.739,542.758h-2.374v33.653H359.754V556.328h11.493v-2.749H359.754V541.934" fill="none" stroke="#000" stroke-miterlimit="10" stroke-width="0.7"/>
    </g>
    <line id="Line_75" data-name="Line 75" x2="20.706" transform="translate(382.739 579.068)" fill="none" stroke="#000" stroke-miterlimit="10" stroke-width="0.7"/>
    <path id="Path_86" data-name="Path 86" d="M382.739,554.113h10.353V556.4h10.353" fill="none" stroke="#000" stroke-miterlimit="10" stroke-width="0.7"/>
    <path id="Path_87" data-name="Path 87" d="M405.352,568.434h22.131v-2.076H473.27v2.076H495" fill="none" stroke="#000" stroke-miterlimit="10" stroke-width="0.7"/>
    <line id="Line_76" data-name="Line 76" x2="78.828" transform="translate(405.352 532.93)" fill="none" stroke="#000" stroke-miterlimit="10" stroke-width="0.7"/>
  </g>
</svg>
