<svg xmlns="http://www.w3.org/2000/svg" width="116.931" height="128.535" viewBox="0 0 116.931 128.535">
  <g id="Group_111" data-name="Group 111" transform="translate(-216.839 -436.453)">
    <g id="Group_103" data-name="Group 103" transform="translate(217.239 436.853)">
      <g id="Group_96" data-name="Group 96">
        <path id="Path_3" data-name="Path 3" d="M217.239,563.316V465.354h4.244V458.6H226v-7.709h3.35v-4.945h2.6v-4.838h2.127s-.054-4.253,0-4.253h2.5v4.094h2.234v5h2.5v5h3.19v8.24h3.563V465.3h5.263v98.021Z" transform="translate(-217.239 -436.853)" fill="none" stroke="#161615" stroke-miterlimit="10" stroke-width="0.8"/>
        <path id="Path_4" data-name="Path 4" d="M253.328,576.954l-36.089.178v-2.551h36.089Z" transform="translate(-217.239 -458.663)" fill="none" stroke="#161615" stroke-miterlimit="10" stroke-width="0.8"/>
        <rect id="Rectangle_92" data-name="Rectangle 92" width="6.338" height="34.679" transform="translate(4.374 77.863)" fill="none" stroke="#161615" stroke-miterlimit="10" stroke-width="0.8"/>
        <line id="Line_6" data-name="Line 6" y2="34.679" transform="translate(7.543 77.863)" fill="none" stroke="#161615" stroke-miterlimit="10" stroke-width="0.8"/>
        <line id="Line_7" data-name="Line 7" x2="6.338" transform="translate(4.374 97.472)" fill="none" stroke="#161615" stroke-miterlimit="10" stroke-width="0.8"/>
        <line id="Line_8" data-name="Line 8" x2="6.338" transform="translate(4.374 85.265)" fill="none" stroke="#161615" stroke-miterlimit="10" stroke-width="0.8"/>
        <path id="Path_5" data-name="Path 5" d="M222.436,525.077l6.137.1a2.927,2.927,0,1,0-5.731.1" transform="translate(-218.062 -450.29)" fill="none" stroke="#161615" stroke-miterlimit="10" stroke-width="0.8"/>
        <path id="Path_6" data-name="Path 6" d="M253.328,515.978l-36.089.178V513.6h36.089Z" transform="translate(-217.239 -449.007)" fill="none" stroke="#161615" stroke-miterlimit="10" stroke-width="0.8"/>
        <rect id="Rectangle_93" data-name="Rectangle 93" width="6.338" height="34.679" transform="translate(14.876 78.006)" fill="none" stroke="#161615" stroke-miterlimit="10" stroke-width="0.8"/>
        <line id="Line_9" data-name="Line 9" y2="34.679" transform="translate(18.045 78.006)" fill="none" stroke="#161615" stroke-miterlimit="10" stroke-width="0.8"/>
        <line id="Line_10" data-name="Line 10" x2="6.338" transform="translate(14.876 97.615)" fill="none" stroke="#161615" stroke-miterlimit="10" stroke-width="0.8"/>
        <line id="Line_11" data-name="Line 11" x2="6.338" transform="translate(14.876 85.407)" fill="none" stroke="#161615" stroke-miterlimit="10" stroke-width="0.8"/>
        <rect id="Rectangle_94" data-name="Rectangle 94" width="6.338" height="34.679" transform="translate(25.083 78.006)" fill="none" stroke="#161615" stroke-miterlimit="10" stroke-width="0.8"/>
        <line id="Line_12" data-name="Line 12" y2="34.679" transform="translate(28.252 78.006)" fill="none" stroke="#161615" stroke-miterlimit="10" stroke-width="0.8"/>
        <line id="Line_13" data-name="Line 13" x2="6.338" transform="translate(25.083 97.615)" fill="none" stroke="#161615" stroke-miterlimit="10" stroke-width="0.8"/>
        <line id="Line_14" data-name="Line 14" x2="6.338" transform="translate(25.083 85.407)" fill="none" stroke="#161615" stroke-miterlimit="10" stroke-width="0.8"/>
        <path id="Path_7" data-name="Path 7" d="M247.041,525.172l6.138.1a2.928,2.928,0,1,0-5.732.1" transform="translate(-221.958 -450.305)" fill="none" stroke="#161615" stroke-miterlimit="10" stroke-width="0.8"/>
        <path id="Path_8" data-name="Path 8" d="M234.739,525.077l6.137.1a2.927,2.927,0,1,0-5.731.1" transform="translate(-220.01 -450.29)" fill="none" stroke="#161615" stroke-miterlimit="10" stroke-width="0.8"/>
        <g id="Group_92" data-name="Group 92" transform="translate(4.374 36.9)">
          <path id="Path_9" data-name="Path 9" d="M222.436,506.291V485.727h4.984v20.564Z" transform="translate(-222.436 -481.492)" fill="none" stroke="#161615" stroke-miterlimit="10" stroke-width="0.8"/>
          <line id="Line_15" data-name="Line 15" x2="4.984" transform="translate(0 8.861)" fill="none" stroke="#161615" stroke-miterlimit="10" stroke-width="0.8"/>
          <line id="Line_16" data-name="Line 16" y2="4.627" transform="translate(2.492 4.234)" fill="none" stroke="#161615" stroke-miterlimit="10" stroke-width="0.8"/>
          <path id="Path_10" data-name="Path 10" d="M222.436,483.18l4.52.071a2.156,2.156,0,1,0-4.221.074" transform="translate(-222.436 -480.696)" fill="none" stroke="#161615" stroke-miterlimit="10" stroke-width="0.8"/>
        </g>
        <g id="Group_93" data-name="Group 93" transform="translate(15.31 11.83)">
          <path id="Path_11" data-name="Path 11" d="M235.43,467.019v-11.5h4.984v11.5Z" transform="translate(-235.43 -451.638)" fill="none" stroke="#161615" stroke-miterlimit="10" stroke-width="0.8"/>
          <line id="Line_17" data-name="Line 17" x2="4.984" transform="translate(0 6.465)" fill="none" stroke="#161615" stroke-miterlimit="10" stroke-width="0.8"/>
          <line id="Line_18" data-name="Line 18" y2="2.588" transform="translate(2.492 3.876)" fill="none" stroke="#161615" stroke-miterlimit="10" stroke-width="0.8"/>
          <path id="Path_12" data-name="Path 12" d="M235.43,453.723l4.52.081a2.594,2.594,0,0,0-1.912-2.888c-1.167-.114-2.438,1.21-2.309,2.971" transform="translate(-235.43 -450.909)" fill="none" stroke="#161615" stroke-miterlimit="10" stroke-width="0.8"/>
          <path id="Path_13" data-name="Path 13" d="M235.43,462.839h5.384" transform="translate(-235.43 -452.798)" fill="none" stroke="#161615" stroke-miterlimit="10" stroke-width="0.8"/>
        </g>
        <g id="Group_94" data-name="Group 94" transform="translate(25.759 36.9)">
          <path id="Path_14" data-name="Path 14" d="M247.845,506.291V485.727h4.984v20.564Z" transform="translate(-247.845 -481.492)" fill="none" stroke="#161615" stroke-miterlimit="10" stroke-width="0.8"/>
          <line id="Line_19" data-name="Line 19" x2="4.984" transform="translate(0 8.861)" fill="none" stroke="#161615" stroke-miterlimit="10" stroke-width="0.8"/>
          <line id="Line_20" data-name="Line 20" y2="4.627" transform="translate(2.492 4.234)" fill="none" stroke="#161615" stroke-miterlimit="10" stroke-width="0.8"/>
          <path id="Path_15" data-name="Path 15" d="M247.845,483.18l4.521.071a2.156,2.156,0,1,0-4.222.074" transform="translate(-247.845 -480.696)" fill="none" stroke="#161615" stroke-miterlimit="10" stroke-width="0.8"/>
        </g>
        <path id="Path_16" data-name="Path 16" d="M253.328,473.464l-36.089.178v-2.551h36.089Z" transform="translate(-217.239 -442.275)" fill="none" stroke="#161615" stroke-miterlimit="10" stroke-width="0.8"/>
        <g id="Group_95" data-name="Group 95" transform="translate(15.553 36.9)">
          <path id="Path_17" data-name="Path 17" d="M235.718,506.291V485.727H240.7v20.564Z" transform="translate(-235.718 -481.492)" fill="none" stroke="#161615" stroke-miterlimit="10" stroke-width="0.8"/>
          <line id="Line_21" data-name="Line 21" x2="4.984" transform="translate(0 8.861)" fill="none" stroke="#161615" stroke-miterlimit="10" stroke-width="0.8"/>
          <line id="Line_22" data-name="Line 22" y2="4.627" transform="translate(2.492 4.234)" fill="none" stroke="#161615" stroke-miterlimit="10" stroke-width="0.8"/>
          <path id="Path_18" data-name="Path 18" d="M235.718,483.18l4.52.071a2.156,2.156,0,1,0-4.221.074" transform="translate(-235.718 -480.696)" fill="none" stroke="#161615" stroke-miterlimit="10" stroke-width="0.8"/>
        </g>
      </g>
      <path id="Path_19" data-name="Path 19" d="M260.118,471.7c1-2.287,1.884-2.766,2.5-2.8,1.448-.082,2.074,2.282,4.23,2.741a5.005,5.005,0,0,0,3.456-.834c6.393-3.5,9.211-15.625,6.14-19.151a2.328,2.328,0,0,1-.653-1.177c-.348-2.016,2.654-4.692,5.612-5.471,4.539-1.194,9.828,1.857,9.925,4.2.025.608-.316.759-.672,2.019a10.775,10.775,0,0,0-.168,4.541c.993,7.565,1.669,12.712,5.72,15.139.975.584,3.409,1.769,7.57,1.009-.146,2.659-.19,3.918-.157,4.084h0a.729.729,0,0,1-.011.29c-.035.135-4.914-.033-8.411-.168l-.167-2.187a27.805,27.805,0,0,1-3.82-6.109c-3.094-6.786-3.154-14.3-2.4-16.1a2.466,2.466,0,0,0,.105-.97,4.174,4.174,0,0,0-1.837-2.813,5.2,5.2,0,0,0-2.691-.949c-2.269-.137-4.834,1.219-5.364,3.135a4,4,0,0,0,.209,2.438c1.6,4.688-.544,12.136-4.318,16.51a16.571,16.571,0,0,1-5.782,4.249l.279,3.064-9.283-.209Z" transform="translate(-224.029 -438.103)" fill="none" stroke="#161615" stroke-miterlimit="10" stroke-width="0.8"/>
      <path id="Path_20" data-name="Path 20" d="M266.242,491.224h6.113V503.64h-6.113V491.224Z" transform="translate(-224.999 -445.463)" fill="none" stroke="#161615" stroke-miterlimit="10" stroke-width="0.8"/>
      <path id="Path_21" data-name="Path 21" d="M272.355,496.127h-6.113v4.382h6.113" transform="translate(-224.999 -446.24)" fill="none" stroke="#161615" stroke-miterlimit="10" stroke-width="0.8"/>
      <line id="Line_23" data-name="Line 23" y2="12.416" transform="translate(44.299 45.761)" fill="none" stroke="#161615" stroke-miterlimit="10" stroke-width="0.8"/>
      <path id="Path_22" data-name="Path 22" d="M281.126,490.567h6.113v12.416h-6.113V490.567Z" transform="translate(-227.356 -445.359)" fill="none" stroke="#161615" stroke-miterlimit="10" stroke-width="0.8"/>
      <path id="Path_23" data-name="Path 23" d="M287.239,495.47h-6.113v4.382h6.113" transform="translate(-227.356 -446.135)" fill="none" stroke="#161615" stroke-miterlimit="10" stroke-width="0.8"/>
      <line id="Line_24" data-name="Line 24" y2="12.416" transform="translate(56.827 45.208)" fill="none" stroke="#161615" stroke-miterlimit="10" stroke-width="0.8"/>
      <g id="Group_97" data-name="Group 97" transform="translate(67.075 45.208)">
        <path id="Path_24" data-name="Path 24" d="M296.934,490.567h6.113v12.416h-6.113V490.567Z" transform="translate(-296.934 -490.567)" fill="none" stroke="#161615" stroke-miterlimit="10" stroke-width="0.8"/>
        <path id="Path_25" data-name="Path 25" d="M303.047,495.47h-6.113v4.382h6.113" transform="translate(-296.934 -491.344)" fill="none" stroke="#161615" stroke-miterlimit="10" stroke-width="0.8"/>
        <line id="Line_25" data-name="Line 25" y2="12.416" transform="translate(3.056)" fill="none" stroke="#161615" stroke-miterlimit="10" stroke-width="0.8"/>
      </g>
      <g id="Group_102" data-name="Group 102" transform="translate(41.061 65.206)">
        <path id="Path_26" data-name="Path 26" d="M296.934,514.328h7.441v18.505h-7.441V514.328Z" transform="translate(-270.921 -514.328)" fill="none" stroke="#161615" stroke-miterlimit="10" stroke-width="0.8"/>
        <path id="Path_27" data-name="Path 27" d="M304.376,521.442h-7.441v4.652h7.441" transform="translate(-270.921 -515.455)" fill="none" stroke="#161615" stroke-miterlimit="10" stroke-width="0.8"/>
        <line id="Line_26" data-name="Line 26" y2="18.506" transform="translate(29.734)" fill="none" stroke="#161615" stroke-miterlimit="10" stroke-width="0.8"/>
        <line id="Line_27" data-name="Line 27" x2="7.805" transform="translate(26.014 14.702)" fill="none" stroke="#161615" stroke-miterlimit="10" stroke-width="0.8"/>
        <g id="Group_98" data-name="Group 98" transform="translate(12.709)">
          <path id="Path_28" data-name="Path 28" d="M281.126,514.328h7.441v18.505h-7.441V514.328Z" transform="translate(-281.126 -514.328)" fill="none" stroke="#161615" stroke-miterlimit="10" stroke-width="0.8"/>
          <path id="Path_29" data-name="Path 29" d="M288.568,521.442h-7.441v4.652h7.441" transform="translate(-281.126 -515.455)" fill="none" stroke="#161615" stroke-miterlimit="10" stroke-width="0.8"/>
          <line id="Line_28" data-name="Line 28" y2="18.506" transform="translate(3.721)" fill="none" stroke="#161615" stroke-miterlimit="10" stroke-width="0.8"/>
          <line id="Line_29" data-name="Line 29" x2="7.805" transform="translate(0 14.702)" fill="none" stroke="#161615" stroke-miterlimit="10" stroke-width="0.8"/>
        </g>
        <g id="Group_99" data-name="Group 99" transform="translate(0.182)">
          <path id="Path_30" data-name="Path 30" d="M266.242,514.328h7.441v18.505h-7.441V514.328Z" transform="translate(-266.242 -514.328)" fill="none" stroke="#161615" stroke-miterlimit="10" stroke-width="0.8"/>
          <path id="Path_31" data-name="Path 31" d="M273.684,521.442h-7.441v4.652h7.441" transform="translate(-266.242 -515.455)" fill="none" stroke="#161615" stroke-miterlimit="10" stroke-width="0.8"/>
          <line id="Line_30" data-name="Line 30" y2="18.506" transform="translate(3.721)" fill="none" stroke="#161615" stroke-miterlimit="10" stroke-width="0.8"/>
          <line id="Line_31" data-name="Line 31" x2="7.805" transform="translate(0 14.702)" fill="none" stroke="#161615" stroke-miterlimit="10" stroke-width="0.8"/>
        </g>
        <g id="Group_100" data-name="Group 100" transform="translate(0 27.349)">
          <path id="Path_32" data-name="Path 32" d="M266.026,546.823h8.746v22.1h-8.746v-22.1Z" transform="translate(-266.026 -546.823)" fill="none" stroke="#161615" stroke-miterlimit="10" stroke-width="0.8"/>
          <path id="Path_33" data-name="Path 33" d="M274.772,555.319h-8.746v5.555h8.746" transform="translate(-266.026 -548.168)" fill="none" stroke="#161615" stroke-miterlimit="10" stroke-width="0.8"/>
          <line id="Line_32" data-name="Line 32" y2="22.1" transform="translate(4.373)" fill="none" stroke="#161615" stroke-miterlimit="10" stroke-width="0.8"/>
          <line id="Line_33" data-name="Line 33" x2="9.174" transform="translate(0 17.558)" fill="none" stroke="#161615" stroke-miterlimit="10" stroke-width="0.8"/>
        </g>
        <g id="Group_101" data-name="Group 101" transform="translate(12.709 27.349)">
          <path id="Path_34" data-name="Path 34" d="M281.126,546.823h8.338v22.1h-8.338v-22.1Z" transform="translate(-281.126 -546.823)" fill="none" stroke="#161615" stroke-miterlimit="10" stroke-width="0.8"/>
          <path id="Path_35" data-name="Path 35" d="M289.465,555.319h-8.338v5.555h8.338" transform="translate(-281.126 -548.168)" fill="none" stroke="#161615" stroke-miterlimit="10" stroke-width="0.8"/>
          <line id="Line_34" data-name="Line 34" y2="22.1" transform="translate(4.169)" fill="none" stroke="#161615" stroke-miterlimit="10" stroke-width="0.8"/>
          <line id="Line_35" data-name="Line 35" x2="8.746" transform="translate(0 17.558)" fill="none" stroke="#161615" stroke-miterlimit="10" stroke-width="0.8"/>
        </g>
      </g>
      <rect id="Rectangle_95" data-name="Rectangle 95" width="7.283" height="10.141" transform="translate(55.463 29.388)" fill="none" stroke="#161615" stroke-miterlimit="10" stroke-width="0.8"/>
      <path id="Path_36" data-name="Path 36" d="M289.268,480.2h-3.721v-6.5h3.721Z" transform="translate(-228.056 -442.688)" fill="none" stroke="#161615" stroke-miterlimit="10" stroke-width="0.8"/>
      <path id="Path_37" data-name="Path 37" d="M287.757,480.2v-6.5" transform="translate(-228.406 -442.688)" fill="none" stroke="#161615" stroke-miterlimit="10" stroke-width="0.8"/>
      <path id="Path_38" data-name="Path 38" d="M303.616,481.892q.793,44.85,1.585,89.7H260.118v-1.145" transform="translate(-224.029 -443.985)" fill="none" stroke="#161615" stroke-miterlimit="10" stroke-width="0.8"/>
      <rect id="Rectangle_96" data-name="Rectangle 96" width="11.809" height="29.37" transform="translate(64.795 92.555)" fill="none" stroke="#161615" stroke-miterlimit="10" stroke-width="0.8"/>
      <rect id="Rectangle_97" data-name="Rectangle 97" width="8.975" height="7.204" transform="translate(66.449 94.291)" fill="none" stroke="#161615" stroke-miterlimit="10" stroke-width="0.8"/>
      <path id="Path_39" data-name="Path 39" d="M296.19,552.488l4.488-3.6,4.488,3.6-4.446,3.6Z" transform="translate(-229.742 -454.594)" fill="none" stroke="#161615" stroke-miterlimit="10" stroke-width="0.8"/>
      <line id="Line_36" data-name="Line 36" y2="20.43" transform="translate(66.449 101.495)" fill="none" stroke="#161615" stroke-miterlimit="10" stroke-width="0.8"/>
      <line id="Line_37" data-name="Line 37" y2="20.43" transform="translate(75.424 101.495)" fill="none" stroke="#161615" stroke-miterlimit="10" stroke-width="0.8"/>
      <line id="Line_38" data-name="Line 38" y1="7.218" transform="translate(52.041 120.39)" fill="none" stroke="#161615" stroke-miterlimit="10" stroke-width="0.8"/>
      <line id="Line_39" data-name="Line 39" x2="36.089" y2="1.146" transform="translate(0 126.463)" fill="none" stroke="#161615" stroke-miterlimit="10" stroke-width="0.8"/>
      <path id="Path_40" data-name="Path 40" d="M279.072,580.351l12.754-7.27h16.147" transform="translate(-227.031 -458.426)" fill="none" stroke="#161615" stroke-miterlimit="10" stroke-width="0.8"/>
      <path id="Path_41" data-name="Path 41" d="M287.272,587.4v-5.683H309.5" transform="translate(-228.329 -459.794)" fill="none" stroke="#161615" stroke-miterlimit="10" stroke-width="0.8"/>
      <line id="Line_40" data-name="Line 40" y2="7.27" transform="translate(70.057 114.656)" fill="none" stroke="#161615" stroke-miterlimit="10" stroke-width="0.8"/>
      <line id="Line_41" data-name="Line 41" y1="3.934" transform="translate(58.942 117.992)" fill="none" stroke="#161615" stroke-miterlimit="10" stroke-width="0.8"/>
      <line id="Line_42" data-name="Line 42" y1="7.898" transform="translate(55.928 119.71)" fill="none" stroke="#161615" stroke-miterlimit="10" stroke-width="0.8"/>
      <line id="Line_43" data-name="Line 43" y1="7.488" transform="translate(79.744 26.335)" fill="none" stroke="#161615" stroke-miterlimit="10" stroke-width="0.8"/>
    </g>
    <g id="Group_110" data-name="Group 110" transform="translate(296.983 443.694)">
      <path id="Path_42" data-name="Path 42" d="M311.987,464.476a6.229,6.229,0,0,0,3.393-.933c1.32-.859,1.921-2.3,2.719-3.59a15.989,15.989,0,0,1,4.145-4.5c.256-.189.11-2.15.121-2.577a10.94,10.94,0,0,1,.33-3.125,7.391,7.391,0,0,1,7.761-4.717c3.23.42,4.91,2.786,6.358,5.418.656,1.193.5,2.2.605,3.482a16.761,16.761,0,0,0,.2,2.936c.4,1.4,2.248,2.323,3.611,2.473.794.087,1.72.029,2.241.635.433.5.379,1.248.543,1.892a2.746,2.746,0,0,0,1.289,1.69,14.467,14.467,0,0,0,1.672.638,2.187,2.187,0,0,1,1.377,2.41v99.268H313.414" transform="translate(-311.987 -444.981)" fill="none" stroke="#161615" stroke-miterlimit="10" stroke-width="0.8"/>
      <path id="Path_43" data-name="Path 43" d="M311.987,468.8h10.441q-.02-6.1-.04-12.2" transform="translate(-311.987 -446.82)" fill="none" stroke="#161615" stroke-miterlimit="10" stroke-width="0.8"/>
      <path id="Path_44" data-name="Path 44" d="M350.432,467.347H337.983V449.654H325.121" transform="translate(-314.067 -445.721)" fill="none" stroke="#161615" stroke-miterlimit="10" stroke-width="0.8"/>
      <circle id="Ellipse_9" data-name="Ellipse 9" cx="1.267" cy="1.267" r="1.267" transform="translate(15.657 6.259)" fill="none" stroke="#161615" stroke-miterlimit="10" stroke-width="0.8"/>
      <circle id="Ellipse_10" data-name="Ellipse 10" cx="2.238" cy="2.238" r="2.238" transform="translate(3.461 28.087)" fill="none" stroke="#161615" stroke-miterlimit="10" stroke-width="0.8"/>
      <circle id="Ellipse_11" data-name="Ellipse 11" cx="2.224" cy="2.224" r="2.224" transform="translate(26.807 27.617)" fill="none" stroke="#161615" stroke-miterlimit="10" stroke-width="0.8"/>
      <path id="Path_45" data-name="Path 45" d="M329.1,458.45h5.13v6.229H329.1Z" transform="translate(-314.697 -447.114)" fill="none" stroke="#161615" stroke-miterlimit="10" stroke-width="0.8"/>
      <line id="Line_44" data-name="Line 44" y1="6.229" transform="translate(16.966 11.336)" fill="none" stroke="#161615" stroke-miterlimit="10" stroke-width="0.8"/>
      <rect id="Rectangle_98" data-name="Rectangle 98" width="12.173" height="13.226" transform="translate(11.054 27.617)" fill="none" stroke="#161615" stroke-miterlimit="10" stroke-width="0.8"/>
      <path id="Path_46" data-name="Path 46" d="M327.26,479.5V489.98h8.953V479.5H327.26Z" transform="translate(-314.406 -450.447)" fill="none" stroke="#161615" stroke-miterlimit="10" stroke-width="0.8"/>
      <path id="Path_47" data-name="Path 47" d="M330.59,489.98V479.5h3.093V489.98" transform="translate(-314.933 -450.447)" fill="none" stroke="#161615" stroke-miterlimit="10" stroke-width="0.8"/>
      <line id="Line_45" data-name="Line 45" x2="8.953" transform="translate(12.854 36.607)" fill="none" stroke="#161615" stroke-miterlimit="10" stroke-width="0.8"/>
      <line id="Line_46" data-name="Line 46" x2="8.953" transform="translate(12.854 32.688)" fill="none" stroke="#161615" stroke-miterlimit="10" stroke-width="0.8"/>
      <g id="Group_104" data-name="Group 104" transform="translate(3.461 45.237)">
        <rect id="Rectangle_99" data-name="Rectangle 99" width="6.98" height="10.345" fill="none" stroke="#161615" stroke-miterlimit="10" stroke-width="0.8"/>
        <path id="Path_48" data-name="Path 48" d="M317.661,500.676v6.086h4.258v-6.086h-4.258Z" transform="translate(-316.346 -499.038)" fill="none" stroke="#161615" stroke-miterlimit="10" stroke-width="0.8"/>
        <line id="Line_47" data-name="Line 47" y1="6.086" transform="translate(3.49 1.638)" fill="none" stroke="#161615" stroke-miterlimit="10" stroke-width="0.8"/>
        <line id="Line_48" data-name="Line 48" x2="4.258" transform="translate(1.314 3.576)" fill="none" stroke="#161615" stroke-miterlimit="10" stroke-width="0.8"/>
        <line id="Line_49" data-name="Line 49" x2="4.258" transform="translate(1.314 5.546)" fill="none" stroke="#161615" stroke-miterlimit="10" stroke-width="0.8"/>
      </g>
      <g id="Group_105" data-name="Group 105" transform="translate(14.701 44.746)">
        <rect id="Rectangle_100" data-name="Rectangle 100" width="6.98" height="10.345" fill="none" stroke="#161615" stroke-miterlimit="10" stroke-width="0.8"/>
        <path id="Path_49" data-name="Path 49" d="M331.016,500.093v6.086h4.258v-6.086h-4.258Z" transform="translate(-329.702 -498.455)" fill="none" stroke="#161615" stroke-miterlimit="10" stroke-width="0.8"/>
        <line id="Line_50" data-name="Line 50" y1="6.086" transform="translate(3.49 1.638)" fill="none" stroke="#161615" stroke-miterlimit="10" stroke-width="0.8"/>
        <line id="Line_51" data-name="Line 51" x2="4.258" transform="translate(1.314 3.576)" fill="none" stroke="#161615" stroke-miterlimit="10" stroke-width="0.8"/>
        <line id="Line_52" data-name="Line 52" x2="4.258" transform="translate(1.314 5.546)" fill="none" stroke="#161615" stroke-miterlimit="10" stroke-width="0.8"/>
      </g>
      <g id="Group_106" data-name="Group 106" transform="translate(25.54 45.12)">
        <rect id="Rectangle_101" data-name="Rectangle 101" width="6.98" height="10.345" fill="none" stroke="#161615" stroke-miterlimit="10" stroke-width="0.8"/>
        <path id="Path_50" data-name="Path 50" d="M343.895,500.537v6.086h4.258v-6.086h-4.258Z" transform="translate(-342.58 -498.899)" fill="none" stroke="#161615" stroke-miterlimit="10" stroke-width="0.8"/>
        <line id="Line_53" data-name="Line 53" y1="6.086" transform="translate(3.49 1.638)" fill="none" stroke="#161615" stroke-miterlimit="10" stroke-width="0.8"/>
        <line id="Line_54" data-name="Line 54" x2="4.258" transform="translate(1.314 3.576)" fill="none" stroke="#161615" stroke-miterlimit="10" stroke-width="0.8"/>
        <line id="Line_55" data-name="Line 55" x2="4.258" transform="translate(1.314 5.546)" fill="none" stroke="#161615" stroke-miterlimit="10" stroke-width="0.8"/>
      </g>
      <rect id="Rectangle_102" data-name="Rectangle 102" width="6.404" height="14.036" transform="translate(4.037 59.032)" fill="none" stroke="#161615" stroke-miterlimit="10" stroke-width="0.8"/>
      <path id="Path_51" data-name="Path 51" d="M318.758,516.636h3.335v10.857h-3.335Z" transform="translate(-313.059 -456.328)" fill="none" stroke="#161615" stroke-miterlimit="10" stroke-width="0.8"/>
      <line id="Line_56" data-name="Line 56" y1="0.136" x2="3.335" transform="translate(5.698 63.584)" fill="none" stroke="#161615" stroke-miterlimit="10" stroke-width="0.8"/>
      <line id="Line_57" data-name="Line 57" x2="3.335" transform="translate(5.698 67.618)" fill="none" stroke="#161615" stroke-miterlimit="10" stroke-width="0.8"/>
      <rect id="Rectangle_103" data-name="Rectangle 103" width="6.404" height="14.036" transform="translate(16.165 58.718)" fill="none" stroke="#161615" stroke-miterlimit="10" stroke-width="0.8"/>
      <path id="Path_52" data-name="Path 52" d="M333.167,516.263H336.5V527.12h-3.335Z" transform="translate(-315.341 -456.269)" fill="none" stroke="#161615" stroke-miterlimit="10" stroke-width="0.8"/>
      <line id="Line_58" data-name="Line 58" y1="0.136" x2="3.335" transform="translate(17.826 63.27)" fill="none" stroke="#161615" stroke-miterlimit="10" stroke-width="0.8"/>
      <line id="Line_59" data-name="Line 59" x2="3.335" transform="translate(17.826 67.304)" fill="none" stroke="#161615" stroke-miterlimit="10" stroke-width="0.8"/>
      <rect id="Rectangle_104" data-name="Rectangle 104" width="6.404" height="14.036" transform="translate(25.829 58.405)" fill="none" stroke="#161615" stroke-miterlimit="10" stroke-width="0.8"/>
      <path id="Path_53" data-name="Path 53" d="M344.649,515.89h3.335v10.857h-3.335Z" transform="translate(-317.159 -456.21)" fill="none" stroke="#161615" stroke-miterlimit="10" stroke-width="0.8"/>
      <line id="Line_60" data-name="Line 60" y1="0.136" x2="3.335" transform="translate(27.49 62.956)" fill="none" stroke="#161615" stroke-miterlimit="10" stroke-width="0.8"/>
      <line id="Line_61" data-name="Line 61" x2="3.335" transform="translate(27.49 66.991)" fill="none" stroke="#161615" stroke-miterlimit="10" stroke-width="0.8"/>
      <g id="Group_109" data-name="Group 109" transform="translate(0.635 75.917)">
        <path id="Path_54" data-name="Path 54" d="M318.529,544.687v10.738h4.86V544.687h-4.86Z" transform="translate(-313.658 -536.687)" fill="none" stroke="#161615" stroke-miterlimit="10" stroke-width="0.8"/>
        <line id="Line_62" data-name="Line 62" y1="10.738" transform="translate(7.355 8)" fill="none" stroke="#161615" stroke-miterlimit="10" stroke-width="0.8"/>
        <line id="Line_63" data-name="Line 63" x2="4.86" transform="translate(4.871 11.418)" fill="none" stroke="#161615" stroke-miterlimit="10" stroke-width="0.8"/>
        <line id="Line_64" data-name="Line 64" x2="4.86" transform="translate(4.871 14.895)" fill="none" stroke="#161615" stroke-miterlimit="10" stroke-width="0.8"/>
        <g id="Group_107" data-name="Group 107" transform="translate(14.066 8)">
          <path id="Path_55" data-name="Path 55" d="M329.454,544.687v10.738h4.86V544.687h-4.86Z" transform="translate(-329.454 -544.687)" fill="none" stroke="#161615" stroke-miterlimit="10" stroke-width="0.8"/>
          <line id="Line_65" data-name="Line 65" y1="10.738" transform="translate(2.483)" fill="none" stroke="#161615" stroke-miterlimit="10" stroke-width="0.8"/>
          <line id="Line_66" data-name="Line 66" x2="4.86" transform="translate(0 3.418)" fill="none" stroke="#161615" stroke-miterlimit="10" stroke-width="0.8"/>
          <line id="Line_67" data-name="Line 67" x2="4.86" transform="translate(0 6.895)" fill="none" stroke="#161615" stroke-miterlimit="10" stroke-width="0.8"/>
        </g>
        <g id="Group_108" data-name="Group 108" transform="translate(22.475 7.033)">
          <path id="Path_56" data-name="Path 56" d="M339.445,543.538v10.738h4.86V543.538h-4.86Z" transform="translate(-339.445 -543.538)" fill="none" stroke="#161615" stroke-miterlimit="10" stroke-width="0.8"/>
          <line id="Line_68" data-name="Line 68" y1="10.738" transform="translate(2.483)" fill="none" stroke="#161615" stroke-miterlimit="10" stroke-width="0.8"/>
          <line id="Line_69" data-name="Line 69" x2="4.86" transform="translate(0 3.418)" fill="none" stroke="#161615" stroke-miterlimit="10" stroke-width="0.8"/>
          <line id="Line_70" data-name="Line 70" x2="4.86" transform="translate(0 6.895)" fill="none" stroke="#161615" stroke-miterlimit="10" stroke-width="0.8"/>
        </g>
        <rect id="Rectangle_105" data-name="Rectangle 105" width="35.748" height="1.881" fill="none" stroke="#161615" stroke-miterlimit="10" stroke-width="0.8"/>
        <path id="Path_57" data-name="Path 57" d="M332.405,584.267V561.919h14.189v22.474" transform="translate(-315.855 -539.416)" fill="none" stroke="#161615" stroke-miterlimit="10" stroke-width="0.8"/>
        <path id="Path_58" data-name="Path 58" d="M335.229,565.18h9.6v11.7h-9.6v-11.7Z" transform="translate(-316.303 -539.932)" fill="none" stroke="#161615" stroke-miterlimit="10" stroke-width="0.8"/>
        <path id="Path_59" data-name="Path 59" d="M344.825,569.582h-9.6v4.208H344.7Z" transform="translate(-316.303 -540.629)" fill="none" stroke="#161615" stroke-miterlimit="10" stroke-width="0.8"/>
        <line id="Line_71" data-name="Line 71" y2="11.705" transform="translate(23.213 25.248)" fill="none" stroke="#161615" stroke-miterlimit="10" stroke-width="0.8"/>
        <path id="Path_60" data-name="Path 60" d="M317.41,584.341V562.386h8.348v22.081" transform="translate(-313.481 -539.49)" fill="none" stroke="#161615" stroke-miterlimit="10" stroke-width="0.8"/>
        <path id="Path_61" data-name="Path 61" d="M319.366,565.18h5.291v12.385h-5.291Z" transform="translate(-313.791 -539.932)" fill="none" stroke="#161615" stroke-miterlimit="10" stroke-width="0.8"/>
        <line id="Line_72" data-name="Line 72" y1="12.385" transform="translate(8.398 25.248)" fill="none" stroke="#161615" stroke-miterlimit="10" stroke-width="0.8"/>
        <line id="Line_73" data-name="Line 73" x2="5.291" transform="translate(5.576 29.927)" fill="none" stroke="#161615" stroke-miterlimit="10" stroke-width="0.8"/>
      </g>
      <line id="Line_74" data-name="Line 74" x2="5.291" transform="translate(6.211 109.854)" fill="none" stroke="#161615" stroke-miterlimit="10" stroke-width="0.8"/>
    </g>
  </g>
</svg>
