<svg xmlns="http://www.w3.org/2000/svg" width="133.984" height="101.366" viewBox="0 0 133.984 101.366">
  <g id="Group_117" data-name="Group 117" transform="translate(-354.996 -471.089)">
    <g id="Group_114" data-name="Group 114" transform="translate(355.446 471.539)">
      <path id="Path_62" data-name="Path 62" d="M356.6,490.542h2.785v-15.73h22.775v-1.966H356.6Z" transform="translate(-355.522 -471.625)" fill="none" stroke="#fff" stroke-miterlimit="10" stroke-width="0.9"/>
      <path id="Path_63" data-name="Path 63" d="M383.955,472.846h16.829v1.971H433v-1.971H400.784" transform="translate(-357.319 -471.625)" fill="none" stroke="#fff" stroke-miterlimit="10" stroke-width="0.9"/>
      <path id="Path_64" data-name="Path 64" d="M434.77,472.359v-.82h28.067v3.193H491.8V485.8H481.2v1.643h10.6v10.748l1.863-.078.078-25.152-30.9-.224" transform="translate(-360.657 -471.539)" fill="none" stroke="#fff" stroke-miterlimit="10" stroke-width="0.9"/>
      <path id="Path_65" data-name="Path 65" d="M491.682,530.939H478.876V532.8h12.805v43.107H403.444V530.939h1.782V558.8l-1.782.178v4.277h1.782V573.59h83.761v-7.307h1.13V548.624l1.564.016" transform="translate(-358.599 -475.441)" fill="none" stroke="#fff" stroke-miterlimit="10" stroke-width="0.9"/>
      <path id="Path_66" data-name="Path 66" d="M495.809,500.06" transform="translate(-364.667 -473.413)" fill="none" stroke="#fff" stroke-width="0.9"/>
      <path id="Path_67" data-name="Path 67" d="M497.8,499.977l.078,28.928v1.86" transform="translate(-364.798 -473.407)" fill="none" stroke="#fff" stroke-miterlimit="10" stroke-width="0.9"/>
      <path id="Path_68" data-name="Path 68" d="M457.426,501.392l4.717-4.718,3.6-.651,5.835,4.555.651,3.416-5.043,5.856-4.229.976-5.531-4.229Z" transform="translate(-362.145 -473.147)" fill="none" stroke="#fff" stroke-miterlimit="10" stroke-width="0.9"/>
      <path id="Path_69" data-name="Path 69" d="M457.179,499.489l3.2-2.38-.234-2.335-2.335-.759-.234-1.46-3.912,3.24,1.81.226-.058,2.313Z" transform="translate(-361.899 -472.92)" fill="none" stroke="#fff" stroke-miterlimit="10" stroke-width="0.9"/>
      <path id="Path_70" data-name="Path 70" d="M460.448,511.745l-3.018-2.611-2.229.734-.234,2.444-1.374.545,4.012,3.116-.172-1.816,2.271-.445Z" transform="translate(-361.894 -474.009)" fill="none" stroke="#fff" stroke-miterlimit="10" stroke-width="0.9"/>
      <path id="Path_71" data-name="Path 71" d="M472.221,507.774l-2.611,3.018.734,2.229,2.444.234.545,1.374,3.116-4.012-1.816.172-.445-2.271Z" transform="translate(-362.946 -473.919)" fill="none" stroke="#fff" stroke-miterlimit="10" stroke-width="0.9"/>
      <path id="Path_72" data-name="Path 72" d="M468.673,495.982l3.107,2.5,2.2-.811.149-2.451,1.354-.592-4.117-2.974.235,1.809-2.254.523Z" transform="translate(-362.884 -472.861)" fill="none" stroke="#fff" stroke-miterlimit="10" stroke-width="0.9"/>
      <rect id="Rectangle_106" data-name="Rectangle 106" width="9.254" height="5.99" transform="translate(58.872 19.636)" fill="none" stroke="#fff" stroke-miterlimit="10" stroke-width="0.9"/>
      <path id="Path_73" data-name="Path 73" d="M437.84,491.657c.985-.27,4.726,2.29,4.726,2.29h2.953l-3.839,8.467-1.674-1.97-2.166.394-3.07-1.331Z" transform="translate(-360.657 -472.859)" fill="none" stroke="#fff" stroke-miterlimit="10" stroke-width="0.9"/>
      <path id="Path_74" data-name="Path 74" d="M411.081,506.753h23.7v7.809h-23.7Z" transform="translate(-359.101 -473.852)" fill="none" stroke="#fff" stroke-miterlimit="10" stroke-width="0.9"/>
      <path id="Path_75" data-name="Path 75" d="M419.126,506.753l-.048,7.809" transform="translate(-359.626 -473.852)" fill="none" stroke="#fff" stroke-miterlimit="10" stroke-width="0.9"/>
      <path id="Path_76" data-name="Path 76" d="M427.531,506.753l-.049,7.809" transform="translate(-360.178 -473.852)" fill="none" stroke="#fff" stroke-miterlimit="10" stroke-width="0.9"/>
      <g id="Group_113" data-name="Group 113" transform="translate(44.845 16.261)">
        <path id="Path_77" data-name="Path 77" d="M407.743,488.944v27.205h-4.3V488.944Z" transform="translate(-403.444 -488.944)" fill="none" stroke="#fff" stroke-miterlimit="10" stroke-width="0.9"/>
        <path id="Path_78" data-name="Path 78" d="M407.743,498.178l-4.3-.055" transform="translate(-403.444 -489.547)" fill="none" stroke="#fff" stroke-miterlimit="10" stroke-width="0.9"/>
        <path id="Path_79" data-name="Path 79" d="M407.743,507.825l-4.3-.055" transform="translate(-403.444 -490.18)" fill="none" stroke="#fff" stroke-miterlimit="10" stroke-width="0.9"/>
      </g>
      <path id="Path_80" data-name="Path 80" d="M356.521,491.786h-1.075v16.457h1.808v-2.5l-1.808-.022" transform="translate(-355.446 -472.869)" fill="none" stroke="#fff" stroke-miterlimit="10" stroke-width="0.9"/>
      <rect id="Rectangle_107" data-name="Rectangle 107" width="22.926" height="12.229" transform="translate(1.808 33.974)" fill="none" stroke="#fff" stroke-miterlimit="10" stroke-width="0.9"/>
      <path id="Path_81" data-name="Path 81" d="M377.558,518.65h1.453v-9.043H359.754v8.856h3.092v1.78h4.592s.047-1.686,0-1.64,2.718,0,2.718,0v1.64h5.295v-1.077h2.2Z" transform="translate(-355.729 -474.04)" fill="none" stroke="#fff" stroke-miterlimit="10" stroke-width="0.9"/>
      <path id="Path_82" data-name="Path 82" d="M357.382,520.991v54.262h23.691V541.328h1.519v-7.053h-2.284v-3.99h-1.452v4.1l1.452-.108" transform="translate(-355.573 -474.788)" fill="none" stroke="#fff" stroke-miterlimit="10" stroke-width="0.9"/>
      <path id="Path_83" data-name="Path 83" d="M370.047,520.991v10.872H367.18v-1.569h.891v-8.526H358.1v8.61l9.077-.085" transform="translate(-355.621 -474.788)" fill="none" stroke="#fff" stroke-miterlimit="10" stroke-width="0.9"/>
      <path id="Path_84" data-name="Path 84" d="M362.346,531v1.736h-2.29v8.484h5.089v-7.041h2.079l.085-1.655" transform="translate(-355.749 -475.445)" fill="none" stroke="#fff" stroke-miterlimit="10" stroke-width="0.9"/>
      <path id="Path_85" data-name="Path 85" d="M381.229,542.7h-2.218v31.442H359.754V555.383h10.738v-2.569H359.754v-10.88" transform="translate(-355.729 -476.163)" fill="none" stroke="#fff" stroke-miterlimit="10" stroke-width="0.9"/>
    </g>
    <line id="Line_75" data-name="Line 75" x2="19.345" transform="translate(380.946 572.005)" fill="none" stroke="#fff" stroke-miterlimit="10" stroke-width="0.9"/>
    <path id="Path_86" data-name="Path 86" d="M382.739,554.113h9.673v2.133h9.673" transform="translate(-1.793 -5.424)" fill="none" stroke="#fff" stroke-miterlimit="10" stroke-width="0.9"/>
    <path id="Path_87" data-name="Path 87" d="M405.352,568.3h20.677v-1.939h42.78V568.3h20.3" transform="translate(-3.278 -6.229)" fill="none" stroke="#fff" stroke-miterlimit="10" stroke-width="0.9"/>
    <line id="Line_76" data-name="Line 76" x2="73.65" transform="translate(402.073 528.897)" fill="none" stroke="#fff" stroke-miterlimit="10" stroke-width="0.9"/>
  </g>
</svg>
